if (_typeface_js && _typeface_js.loadFace) _typeface_js.loadFace({"glyphs":{"⌐":{"x_min":0,"x_max":0,"ha":811},"♀":{"x_min":0,"x_max":0,"ha":1042},"ǻ":{"x_min":0,"x_max":0,"ha":772},"Á":{"x_min":0,"x_max":0,"ha":926},"ĥ":{"x_min":0,"x_max":0,"ha":772},"Κ":{"x_min":0,"x_max":0,"ha":926},"»":{"x_min":0,"x_max":0,"ha":772},"∆":{"x_min":0,"x_max":0,"ha":850},"♥":{"x_min":0,"x_max":0,"ha":825},"ў":{"x_min":0,"x_max":0,"ha":694},"ţ":{"x_min":0,"x_max":0,"ha":386},"«":{"x_min":0,"x_max":0,"ha":772},"í":{"x_min":0,"x_max":0,"ha":386},"◦":{"x_min":0,"x_max":0,"ha":492},"ņ":{"x_min":0,"x_max":0,"ha":772},"µ":{"x_min":0,"x_max":0,"ha":800},"ỳ":{"x_min":0,"x_max":0,"ha":694},"Ι":{"x_min":0,"x_max":0,"ha":386},"Ύ":{"x_min":0,"x_max":0,"ha":1188},"ѕ":{"x_min":0,"x_max":0,"ha":694},"Ш":{"x_min":0,"x_max":0,"ha":1273},"M":{"x_min":0,"x_max":1058,"ha":1090,"o":"m 5 1077 l 192 1077 q 415 523 200 1071 l 496 326 l 507 331 l 515 328 l 515 331 l 521 344 l 515 344 l 515 347 l 513 345 l 507 345 l 507 347 l 532 363 q 543 355 543 359 q 529 350 543 350 l 521 333 l 521 323 l 524 326 l 526 326 l 534 317 l 540 317 q 553 328 540 323 l 564 323 l 569 339 l 566 339 l 564 336 l 561 336 l 553 339 l 553 344 q 602 421 582 344 q 719 719 705 670 l 762 817 l 760 819 l 760 822 q 835 1009 768 828 q 868 1077 861 1074 l 1052 1077 l 1058 1071 l 1058 5 l 1052 0 l 914 0 l 909 5 l 909 295 l 906 307 l 909 314 l 906 323 l 909 323 l 906 326 l 906 328 l 909 331 l 909 333 l 906 350 l 909 350 l 906 353 l 906 361 l 909 371 l 906 383 l 909 383 l 906 385 l 909 399 l 909 402 l 903 407 l 906 421 l 906 426 l 903 428 l 903 431 l 906 434 l 909 434 l 906 436 l 906 499 l 909 501 l 909 504 l 906 507 l 903 507 l 906 510 l 906 559 l 903 567 l 906 580 l 906 675 l 901 681 l 901 670 l 898 670 l 890 678 l 890 684 l 903 684 l 903 689 l 909 716 l 906 727 l 909 751 l 909 784 l 906 784 l 830 599 q 643 125 830 588 l 645 122 l 645 117 q 634 98 634 107 l 634 73 q 621 68 634 68 q 591 0 595 0 l 469 0 q 401 160 463 5 l 399 160 l 399 155 l 394 155 l 394 163 l 399 163 l 399 171 l 396 168 l 391 168 l 391 171 l 396 176 q 238 580 241 561 l 238 591 q 228 599 228 591 l 228 602 q 238 621 238 611 l 238 638 l 244 638 q 488 27 480 31 l 572 27 q 824 656 577 27 q 930 925 930 915 l 936 925 l 936 27 l 1031 27 l 1031 1050 l 881 1050 l 532 166 l 529 166 l 176 1050 l 27 1050 l 27 686 l 5 686 l 0 692 l 0 1071 l 5 1077 m 125 922 l 130 922 l 222 689 l 219 687 l 198 687 q 154 787 190 687 l 152 787 l 152 692 l 146 687 l 130 687 l 125 692 l 125 922 m 749 827 l 754 827 l 754 825 l 749 825 l 749 827 m 716 809 l 721 809 l 721 803 l 716 809 m 898 754 l 903 754 l 903 749 l 898 749 l 898 754 m 705 740 l 711 740 l 711 738 l 705 738 l 705 740 m 675 735 l 681 735 l 681 733 l 675 733 l 675 735 m 133 684 l 146 678 l 149 681 l 152 678 l 152 675 l 146 670 q 125 681 125 673 l 133 684 m 198 684 l 206 684 l 219 678 l 217 665 l 214 665 l 198 675 l 198 684 m 879 681 l 881 681 l 884 670 l 879 670 l 879 681 m 5 672 l 27 645 l 27 610 l 22 610 q 0 640 22 621 l 0 667 l 5 672 m 149 662 l 152 659 l 152 624 l 146 618 l 138 624 l 136 624 q 127 610 136 610 l 125 613 l 125 632 l 130 640 l 125 648 l 149 662 m 228 662 l 233 662 l 233 656 l 228 656 l 228 662 m 892 662 l 895 659 l 895 656 l 887 651 l 887 656 l 892 662 m 141 638 l 141 630 l 143 630 l 143 638 l 141 638 m 3 588 l 16 578 l 19 578 l 19 572 l 5 567 l 0 572 l 0 583 l 3 586 l 3 588 m 135 575 l 135 572 l 130 548 l 125 548 l 125 553 q 135 575 128 573 m 144 559 l 152 559 l 152 556 l 146 550 l 144 553 l 144 559 m 5 556 l 16 537 l 14 528 l 8 528 l 5 556 m 19 523 l 27 515 l 24 513 l 27 510 l 27 501 l 22 501 q 14 515 22 515 l 14 518 l 19 523 m 3 513 l 14 513 l 14 510 l 11 497 l 3 497 l 3 513 m 146 507 l 152 501 l 149 499 l 133 499 l 133 504 l 146 507 m 14 493 l 19 493 l 19 490 l 16 483 l 24 483 l 24 480 l 14 472 l 11 474 l 11 480 l 14 493 m 5 464 l 8 461 l 14 456 l 16 456 l 16 450 l 11 450 l 0 461 l 3 464 l 5 464 m 135 450 l 149 450 l 149 445 l 135 442 l 135 450 m 127 445 q 136 434 136 445 l 141 439 l 152 436 l 152 434 l 149 421 l 146 421 l 135 423 l 127 421 l 125 423 l 130 436 l 127 445 m 133 417 l 138 417 l 138 412 l 133 417 m 125 402 l 146 402 l 152 396 l 152 5 l 146 0 l 95 0 l 92 3 l 89 0 l 84 0 l 81 3 l 79 0 l 62 0 q 54 24 57 0 l 57 27 l 73 27 q 79 19 79 27 l 89 27 l 125 27 l 125 290 l 130 309 l 125 314 l 125 317 l 135 356 q 125 383 128 356 l 125 402 m 575 396 l 583 393 l 583 391 q 561 383 581 383 l 558 383 l 575 396 m 22 374 l 27 374 l 27 347 l 22 347 l 22 353 l 19 350 l 16 350 l 19 347 l 19 341 l 8 336 l 11 323 l 11 306 l 16 306 l 22 336 l 27 336 l 27 312 l 22 287 l 27 287 l 27 282 l 19 282 l 19 277 l 24 277 l 24 271 l 16 271 l 19 268 l 19 263 q 11 257 11 263 l 11 255 l 14 258 l 19 258 l 19 230 l 22 233 l 27 233 l 22 225 l 27 209 l 27 198 l 24 198 q 14 228 16 199 l 11 228 l 3 223 l 0 223 l 0 271 q 11 295 11 286 l 5 301 l 8 303 l 0 331 l 22 371 l 22 374 m 516 374 l 521 374 l 521 369 l 516 369 l 516 374 m 493 344 l 502 344 l 502 339 l 493 339 l 493 344 m 504 317 l 502 307 l 504 303 l 510 303 l 507 317 l 504 317 m 537 309 l 534 312 l 532 309 l 532 303 q 550 290 541 303 l 553 290 l 561 317 l 558 317 l 537 309 m 513 312 l 513 303 l 518 303 l 518 312 l 513 312 m 524 307 l 524 301 l 515 298 l 518 290 l 521 290 l 526 303 l 526 307 l 524 307 m 507 301 l 507 298 l 513 280 l 516 280 l 516 282 q 507 301 513 301 m 532 287 q 537 280 537 287 l 540 280 l 540 285 l 537 285 l 540 287 l 540 293 l 537 293 l 532 287 m 521 287 l 521 282 l 529 282 l 529 290 l 521 287 m 358 250 l 360 250 l 360 244 l 358 244 l 358 250 m 337 244 l 342 244 l 342 236 l 337 236 l 337 244 m 314 220 l 320 211 l 314 206 l 311 206 l 309 217 l 311 220 l 314 220 m 353 209 l 364 209 l 364 201 l 361 201 l 353 203 l 353 209 m 377 201 l 382 201 l 377 195 l 377 201 m 371 193 l 374 193 l 374 187 l 371 187 l 371 193 m 331 185 l 334 185 l 339 179 l 339 176 l 337 176 l 331 182 l 331 185 m 24 179 l 27 179 l 27 163 q 16 143 16 163 q 27 130 16 130 l 27 40 l 22 40 l 19 43 l 18 43 l 18 40 l 18 3 l 16 0 l 5 0 l 0 5 l 0 27 l 11 40 l 5 46 l 8 46 l 0 65 l 5 65 q 19 46 5 54 l 22 46 l 22 81 q 14 122 22 104 l 11 122 l 3 117 l 0 117 q 8 136 0 125 l 8 138 l 0 138 q 19 171 0 147 q 24 179 19 179 m 377 171 l 382 171 l 382 163 l 377 163 l 377 171 m 379 160 l 379 152 l 374 157 l 377 160 l 379 160 m 296 157 l 301 157 l 301 155 l 296 155 l 296 157 m 385 152 l 388 152 l 388 149 l 377 138 l 374 138 l 364 149 l 366 149 l 374 144 l 380 144 q 385 152 380 152 m 355 144 l 358 144 l 358 141 l 353 136 l 350 136 l 350 138 l 355 144 m 385 133 l 385 130 l 379 125 l 377 128 l 377 130 l 379 133 l 385 133 m 361 128 l 366 128 l 361 122 l 361 128 m 355 122 l 361 122 l 361 117 l 355 122 m 337 114 l 342 114 l 342 108 l 337 108 l 337 114 m 353 106 l 358 106 l 364 100 l 364 98 l 358 98 l 353 103 l 353 106 m 415 97 l 420 97 l 420 95 l 415 95 l 415 97 m 25 30 l 30 30 l 30 24 l 25 24 l 25 30 m 43 27 l 46 27 l 46 24 q 32 0 40 0 l 27 0 l 24 3 l 22 3 l 27 21 l 30 19 l 32 19 l 43 27 m 95 24 l 92 7 l 92 5 l 95 5 l 98 21 l 98 24 l 95 24 m 125 24 l 125 21 l 133 21 l 133 24 l 125 24 "},"╗":{"x_min":0,"x_max":0,"ha":984},"Ψ":{"x_min":0,"x_max":0,"ha":1160},"ũ":{"x_min":0,"x_max":0,"ha":772},"ŭ":{"x_min":0,"x_max":0,"ha":772},"―":{"x_min":0,"x_max":0,"ha":1389},"{":{"x_min":0,"x_max":553,"ha":584,"o":"m 534 1260 l 537 1247 l 540 1250 l 543 1250 q 551 1242 543 1242 l 551 1236 l 547 1236 l 537 1242 l 537 1219 q 547 1192 547 1208 l 547 1182 l 543 1182 l 540 1185 l 537 1185 l 537 1138 l 543 1138 l 543 1133 l 531 1128 l 490 1128 q 380 1089 405 1128 q 361 916 361 1047 l 361 758 q 263 538 361 590 l 263 536 q 361 318 361 488 l 361 188 l 363 177 l 361 167 l 361 161 q 398 -28 361 -21 q 469 -47 398 -38 l 547 -47 l 553 -52 l 553 -171 l 547 -177 l 466 -177 q 254 -87 306 -177 q 217 180 217 -36 l 217 210 l 214 221 l 217 232 l 217 319 q 133 465 217 445 q 75 474 104 474 l 5 474 l 0 479 l 0 598 l 5 604 l 67 604 q 195 658 164 604 q 217 761 217 703 l 217 894 q 282 1201 217 1163 q 534 1260 328 1260 m 244 894 l 244 756 q 173 598 244 641 q 65 577 129 577 l 27 577 l 27 501 l 75 501 q 244 321 244 501 l 244 183 q 309 -109 244 -78 q 469 -150 364 -150 l 526 -150 l 526 -74 l 472 -74 q 350 -6 371 -74 q 334 158 334 26 l 334 315 q 225 528 334 486 q 198 539 198 532 l 198 543 q 290 595 235 543 q 334 761 334 650 l 334 916 q 387 1133 334 1121 q 493 1155 421 1155 l 526 1155 l 526 1233 l 523 1233 q 284 1165 327 1233 q 244 894 244 1113 m 339 604 l 347 604 l 342 598 l 339 598 l 339 604 m 154 444 l 157 444 l 157 438 l 154 438 l 154 444 m 152 433 l 152 427 l 138 408 l 138 414 q 152 433 147 433 m 130 400 l 136 400 l 136 397 l 133 389 l 130 389 l 130 400 m 130 357 l 136 357 l 136 354 l 130 354 l 130 357 m 122 338 l 124 338 l 124 332 l 122 332 l 122 338 m 377 224 l 380 224 l 378 213 q 382 183 378 183 l 393 177 l 395 180 l 399 177 l 399 175 l 395 172 q 369 185 369 179 l 369 202 q 377 224 369 222 m 423 186 l 429 186 l 429 183 l 423 183 l 423 186 m 420 177 l 426 169 l 423 167 l 407 169 q 420 177 407 175 m 404 169 q 395 163 404 163 l 393 155 l 401 150 l 399 147 l 399 144 l 401 131 l 382 155 l 385 163 l 382 167 l 385 167 l 387 163 l 404 169 "},"¼":{"x_min":0,"x_max":0,"ha":1158},"▄":{"x_min":0,"x_max":0,"ha":984},"ι":{"x_min":0,"x_max":0,"ha":309},"Ĳ":{"x_min":0,"x_max":0,"ha":1021},"Ê":{"x_min":0,"x_max":0,"ha":926},"Ά":{"x_min":0,"x_max":0,"ha":927},")":{"x_min":0,"x_max":280,"ha":314,"o":"m 0 1259 l 2 1259 q 40 1237 40 1242 l 40 1224 l 45 1224 l 45 1218 q 37 1210 37 1218 l 27 1215 l 27 1099 q 62 1055 58 1070 l 59 1053 q 44 1078 44 1053 l 41 1078 l 41 1050 l 37 1050 l 0 1086 l 0 1259 m 54 1227 l 57 1227 q 73 1219 73 1225 q 59 1204 59 1219 l 52 1199 l 52 1204 l 54 1227 m 122 1172 l 130 1172 q 135 1164 135 1172 l 133 1156 l 122 1156 l 125 1170 l 122 1172 m 111 1170 l 117 1170 l 117 1167 l 111 1167 l 111 1170 m 136 1154 l 141 1154 l 141 1151 l 138 1142 l 146 1142 l 146 1140 l 141 1135 l 133 1135 l 133 1140 l 136 1154 m 149 1154 l 154 1148 l 154 1142 l 149 1148 l 149 1154 m 168 1129 l 173 1129 l 165 1102 l 160 1102 l 160 1124 q 168 1129 168 1124 m 187 1107 l 195 1099 l 195 1097 q 184 1072 187 1097 l 179 1072 l 173 1097 q 179 1104 179 1097 l 181 1107 l 187 1107 m 195 1094 l 201 1094 q 228 1002 228 1053 l 231 1002 l 231 1023 l 235 1023 l 241 999 l 241 996 l 231 977 l 233 961 l 233 955 l 247 952 l 250 964 l 254 964 q 279 708 279 886 l 279 437 l 276 434 l 280 432 l 280 426 l 274 418 l 279 412 l 279 407 l 276 407 l 279 388 l 279 361 q 262 353 279 353 l 262 348 l 271 334 l 269 326 l 276 326 l 276 320 l 271 320 l 271 318 q 279 312 279 318 l 279 301 l 274 296 l 279 274 l 279 233 l 271 225 q 263 239 268 239 l 254 233 l 252 236 l 252 245 l 258 245 l 258 247 l 252 255 l 252 290 l 260 299 l 258 307 l 266 307 l 274 301 l 274 309 q 260 323 266 309 l 260 331 l 263 334 l 263 337 q 258 348 258 337 l 252 348 l 252 350 l 263 364 l 263 367 l 260 367 l 252 364 l 252 372 l 265 374 l 265 383 l 254 386 l 258 394 l 263 394 l 263 388 l 266 388 l 274 391 l 274 396 l 266 399 q 271 429 271 409 l 269 429 l 260 426 l 260 429 l 252 443 l 252 678 l 254 681 l 252 683 l 252 706 q 201 1039 252 927 q 195 1078 201 1069 l 198 1080 l 198 1083 l 195 1094 m 87 1036 l 90 1033 l 90 1031 q 79 1004 79 1016 l 73 1004 l 70 1017 l 87 1036 m 117 980 l 122 964 l 122 961 l 120 961 l 108 966 l 106 950 l 103 950 l 98 955 q 117 980 112 980 m 250 980 l 252 980 l 252 969 l 244 969 l 244 974 l 250 980 m 114 950 l 117 931 l 120 931 l 130 939 q 141 871 141 894 q 136 887 136 871 l 133 887 q 122 863 125 887 l 117 863 l 106 936 l 106 941 l 114 950 m 141 836 l 146 836 l 146 827 q 138 803 139 819 l 149 784 l 149 700 l 144 700 l 141 703 l 138 703 l 138 700 l 141 667 l 138 657 q 144 665 144 657 l 149 665 l 149 657 l 144 651 q 149 616 149 639 l 149 607 l 141 575 l 144 567 l 136 545 l 138 545 q 144 554 144 545 l 149 554 l 149 527 q 141 516 141 527 l 138 494 l 144 494 l 144 507 l 149 507 l 149 505 q 136 483 149 494 l 133 472 l 136 469 q 128 456 129 469 l 133 440 l 130 432 q 136 424 136 432 l 144 424 l 144 432 l 149 426 l 149 312 l 146 309 l 149 301 q 73 -29 149 31 q 27 -78 73 -36 l 27 -192 l 29 -192 q 217 24 150 -137 q 244 79 228 79 l 238 65 l 244 65 l 258 67 q 117 -167 215 -88 q 2 -238 75 -202 l 0 -235 l 0 -64 q 103 81 85 3 l 122 114 l 125 117 l 114 130 l 114 136 l 120 171 l 117 174 l 121 182 l 121 315 l 121 323 q 130 329 121 329 l 130 331 l 124 331 l 124 337 q 136 350 136 337 l 136 355 l 130 364 l 133 372 l 122 372 l 122 686 l 133 700 l 128 706 l 130 706 l 122 724 l 128 724 q 141 706 128 714 l 144 706 l 144 741 q 136 782 144 764 l 133 782 l 125 776 l 122 776 q 130 795 122 786 l 130 797 l 125 797 l 125 793 l 120 793 l 120 797 l 125 806 l 122 808 l 122 811 q 141 836 141 820 m 136 635 l 136 630 l 141 624 l 141 635 l 136 635 m 133 622 l 133 616 l 136 616 l 136 622 l 133 622 m 141 483 l 146 483 l 146 478 l 141 483 m 136 470 l 144 470 l 149 464 l 149 458 l 146 456 l 149 453 l 149 443 l 138 443 l 138 445 l 141 456 l 136 470 m 263 437 l 263 432 l 266 432 l 266 437 l 263 437 m 130 399 l 128 380 l 128 377 l 136 377 l 133 399 l 130 399 m 269 386 l 269 383 l 274 377 l 274 386 l 269 386 m 274 348 l 279 342 l 279 331 l 274 331 l 274 348 m 138 299 l 138 293 l 141 293 l 141 299 l 138 299 m 250 196 l 254 196 q 274 163 254 186 l 271 160 l 274 158 l 274 152 l 266 144 l 247 168 l 250 196 m 120 139 l 120 136 l 133 133 l 133 139 l 120 139 m 266 125 l 269 122 l 269 117 l 266 117 l 260 122 l 263 125 l 266 125 m 258 114 l 263 114 l 263 109 l 258 109 l 258 114 m 258 100 l 263 100 l 263 98 l 258 98 l 258 100 m 260 87 l 260 84 l 258 73 l 250 81 l 250 84 l 260 87 "},"ε":{"x_min":0,"x_max":0,"ha":619},"э":{"x_min":0,"x_max":0,"ha":709},"ш":{"x_min":0,"x_max":0,"ha":1114},"Я":{"x_min":0,"x_max":0,"ha":1003},"a":{"x_min":0,"x_max":871,"ha":872,"o":"m 844 898 l 851 898 l 851 895 l 846 889 l 844 892 l 844 898 m 768 892 l 768 887 l 762 887 l 768 892 m 567 871 l 578 871 l 578 865 l 567 858 l 561 865 l 567 871 m 694 871 l 700 871 l 700 858 l 697 858 l 689 865 l 694 871 m 729 871 l 735 865 l 732 849 l 729 849 q 719 855 729 855 q 727 860 719 860 l 724 863 l 724 865 l 729 871 m 770 871 l 779 871 l 779 868 l 768 858 l 762 858 l 762 860 l 770 871 m 794 871 l 800 871 l 800 865 l 789 863 l 789 865 l 794 871 m 673 863 l 675 863 l 675 857 l 673 857 l 673 863 m 741 863 l 750 863 l 746 857 l 741 857 l 741 863 m 787 860 l 787 855 l 781 855 l 787 860 m 711 858 l 711 852 l 700 849 l 700 855 l 711 858 m 840 858 l 840 855 q 819 846 840 849 l 819 844 l 822 841 l 822 839 l 824 841 l 835 841 l 835 836 l 830 836 l 830 833 l 846 831 l 844 827 l 844 11 l 837 6 l 697 6 l 692 11 l 692 81 l 642 41 l 640 43 q 447 -13 536 -13 l 439 -13 l 442 -15 l 442 -18 l 363 -10 l 358 -27 l 353 -27 l 353 -24 l 355 -10 l 276 8 l 260 -2 l 252 -4 l 244 -2 l 238 -7 l 233 -7 l 228 -2 q 257 14 228 6 q 176 62 199 45 q 0 421 0 193 q 24 527 0 527 l 27 524 l 29 524 l 41 527 q 27 398 27 470 l 29 377 l 27 377 q 100 176 49 238 q 409 14 225 14 l 434 14 q 702 133 593 14 l 713 149 l 719 149 l 719 33 l 817 33 l 817 806 l 759 806 l 743 817 l 746 827 l 741 827 l 741 819 l 735 819 l 722 836 l 722 838 l 727 838 l 727 833 l 741 833 l 753 836 l 743 849 l 743 852 l 745 852 q 750 844 750 852 l 753 841 l 765 841 q 776 852 776 846 l 779 852 l 794 841 l 789 836 l 787 836 l 784 839 l 781 839 l 781 833 l 802 833 l 805 836 l 808 836 l 811 833 q 819 855 811 855 l 840 858 m 762 852 l 762 846 l 756 846 l 762 852 m 854 852 l 857 849 l 857 846 l 851 841 l 846 841 l 846 844 l 854 852 m 866 852 l 871 852 l 871 846 l 866 846 l 866 852 m 415 849 l 415 846 l 417 849 l 464 849 l 464 841 l 469 841 q 475 849 469 849 l 488 841 l 496 844 l 488 833 l 475 839 l 475 836 q 466 822 475 822 l 464 825 l 450 822 l 436 822 q 81 630 207 822 l 68 630 l 73 635 l 76 632 l 81 643 l 71 649 l 71 659 q 415 849 207 849 m 518 849 l 523 849 q 537 839 523 839 l 539 841 l 550 833 l 559 836 l 559 833 l 561 822 l 564 825 l 567 825 q 578 803 573 825 l 578 801 l 575 798 l 575 795 q 537 812 537 807 l 553 822 l 553 825 l 534 831 l 534 827 q 523 812 534 817 l 499 817 q 518 846 499 832 l 518 849 m 738 846 l 746 844 l 746 841 l 741 836 l 729 836 l 729 844 l 738 846 m 773 836 l 773 833 l 779 833 l 779 836 l 773 836 m 673 833 l 675 831 l 678 831 l 675 827 l 675 825 l 678 822 l 678 819 l 673 814 l 678 809 l 678 795 l 683 795 l 716 809 l 719 806 l 719 801 l 713 793 l 713 790 l 719 781 l 719 776 l 716 773 l 719 771 l 719 762 l 713 757 q 683 779 697 779 l 667 803 l 673 809 q 665 814 665 809 l 665 819 l 667 817 l 670 817 l 673 833 m 851 833 l 860 833 l 860 827 l 851 827 l 851 833 m 651 828 l 659 828 l 659 822 l 651 822 l 651 828 m 607 812 l 610 812 l 610 806 l 607 806 l 607 812 m 640 803 l 640 795 l 642 795 l 651 801 l 654 801 l 654 798 l 642 787 l 629 787 l 629 793 l 632 793 l 634 790 l 637 790 l 637 793 l 632 801 l 634 803 l 640 803 m 670 790 l 672 790 l 672 784 l 670 784 l 670 790 m 700 787 l 700 781 l 705 781 l 705 787 l 700 787 m 659 781 l 659 779 l 656 776 l 656 773 l 675 773 l 675 768 q 656 754 656 768 l 651 754 l 632 768 l 634 771 l 637 771 l 648 768 l 648 773 l 629 776 l 629 779 l 659 781 m 673 757 l 675 757 l 675 752 l 673 752 l 673 757 m 692 746 l 694 744 l 697 744 l 708 746 l 719 738 l 719 689 l 716 689 l 667 741 l 667 744 l 689 744 l 692 746 m 79 649 l 84 649 l 89 654 l 84 654 l 79 649 m 41 611 l 71 611 l 71 608 l 68 605 l 68 602 l 57 605 l 43 602 l 41 605 l 41 611 m 43 600 l 54 589 l 57 592 l 62 592 q 54 576 60 576 l 49 580 l 46 578 l 43 578 l 32 589 l 43 600 m 41 589 l 41 586 l 46 592 l 46 594 l 41 589 m 29 570 q 41 562 41 566 l 32 554 l 22 554 l 22 562 l 29 570 m 49 565 l 52 562 l 52 559 l 46 548 l 38 548 l 38 556 l 46 556 l 43 559 l 43 562 l 46 565 l 49 565 m 19 540 l 27 534 l 32 540 l 41 540 l 41 534 l 38 537 l 24 529 l 19 529 l 19 540 m 8 456 l 8 451 l 10 451 l 10 456 l 8 456 m 255 -21 l 260 -21 l 260 -27 l 255 -27 l 255 -21 "},"Ę":{"x_min":0,"x_max":0,"ha":926},"Z":{"x_min":0,"x_max":659,"ha":691,"o":"m 35 1077 l 642 1077 l 648 1071 l 648 950 q 258 272 636 918 l 244 272 l 244 277 l 241 277 l 241 274 l 247 266 l 254 269 l 254 263 q 241 257 254 257 l 241 254 l 247 247 q 233 228 242 247 l 231 228 l 222 230 l 222 225 l 228 225 l 228 217 q 220 201 220 210 l 206 184 l 203 187 l 203 189 l 206 192 l 206 195 l 197 198 l 201 201 l 201 203 l 195 211 l 195 214 l 201 214 q 209 203 202 203 l 211 203 l 211 222 q 203 228 203 222 l 621 955 l 621 1050 l 396 1050 l 390 1055 l 390 1069 l 190 1069 l 195 1064 l 206 1066 l 214 1053 l 211 1050 l 209 1050 q 168 1069 196 1062 l 70 1069 l 70 1055 l 73 1058 l 75 1058 l 75 1050 l 57 1050 l 57 950 l 75 947 l 75 941 l 70 941 l 70 927 l 65 922 l 35 922 l 30 927 l 30 1071 l 35 1077 m 285 1066 l 296 1060 l 298 1064 l 301 1064 l 323 1060 l 326 1064 l 326 1066 l 328 1064 l 333 1064 l 360 1066 q 372 1060 360 1060 l 372 1058 l 366 1050 l 355 1053 l 328 1050 l 328 1053 l 326 1051 l 323 1051 q 276 1064 276 1051 l 285 1066 m 146 1058 l 149 1058 l 155 1053 l 155 1050 l 152 1050 l 146 1055 l 146 1058 m 179 1058 l 184 1058 l 184 1053 l 179 1053 l 179 1058 m 231 1058 l 236 1053 l 236 1050 l 231 1055 l 231 1058 m 89 950 l 105 950 l 111 944 l 111 938 l 92 941 q 81 922 89 922 l 78 925 q 89 950 84 950 m 203 950 q 222 938 218 950 l 217 933 l 222 933 l 222 930 l 214 923 l 201 923 q 187 947 194 924 l 190 950 l 203 950 m 250 950 l 258 950 l 260 947 l 263 947 q 254 938 263 938 l 258 925 l 254 923 l 252 923 l 250 925 l 247 925 l 250 938 l 250 941 l 244 941 l 244 944 l 250 950 m 393 950 l 499 950 l 504 944 l 258 521 l 254 521 l 254 526 l 258 555 l 258 564 l 254 564 q 225 463 254 503 l 193 412 l 193 417 l 195 439 l 187 447 l 377 783 l 385 783 l 388 782 l 391 782 l 391 783 l 385 792 l 385 795 q 391 808 391 795 l 458 923 l 393 923 l 388 927 l 388 944 l 393 950 m 282 947 l 285 947 l 285 944 q 274 923 285 929 l 274 925 q 282 947 276 947 m 350 944 l 352 944 l 360 936 l 355 936 l 350 941 l 350 944 m 296 940 q 318 933 318 940 l 318 927 q 296 938 296 932 l 296 940 m 133 939 l 138 939 l 138 933 l 133 933 l 133 939 m 158 938 l 163 933 l 163 925 l 158 925 l 158 938 m 239 939 l 241 939 l 241 933 l 239 933 l 239 939 m 217 488 l 217 485 l 225 485 l 225 491 l 217 488 m 179 434 l 182 434 l 182 406 l 177 406 l 177 420 l 171 428 l 179 434 m 165 412 l 171 406 l 171 393 l 168 379 q 179 404 174 379 l 187 398 q 103 257 113 267 l 92 254 l 98 244 q 27 114 36 141 l 27 27 l 163 27 l 165 24 l 168 27 l 187 27 l 193 22 q 182 0 186 0 l 5 0 l 0 5 l 0 130 q 89 277 78 268 q 103 291 97 277 l 98 291 l 98 293 l 119 339 l 124 339 l 130 317 l 133 317 l 140 352 l 138 368 l 165 412 m 412 330 l 412 328 l 407 322 l 407 325 l 412 330 m 599 319 l 604 314 l 599 309 l 594 309 l 594 314 l 599 319 m 510 312 l 515 312 l 515 306 l 510 306 l 510 312 m 534 312 l 540 312 l 540 309 l 534 309 l 534 312 m 586 312 l 591 312 l 591 306 l 586 306 l 586 312 m 377 301 l 379 301 l 379 296 l 377 296 l 377 301 m 385 288 q 396 277 394 285 q 388 252 394 252 q 379 285 382 252 l 382 288 l 385 288 m 461 285 l 464 285 l 464 282 l 455 274 l 453 274 l 453 277 l 461 285 m 103 277 l 103 272 l 111 274 l 111 277 l 103 277 m 453 274 l 453 272 l 448 266 l 448 269 l 453 274 m 515 269 l 518 266 l 518 263 l 515 261 l 512 261 l 510 263 l 510 266 l 512 269 l 515 269 m 551 254 l 551 252 l 545 247 l 545 249 l 551 254 m 572 236 l 575 236 l 575 225 l 572 225 l 567 230 l 572 236 m 190 201 l 193 201 l 201 184 l 201 181 l 193 174 l 195 160 l 193 157 l 193 154 l 195 144 l 201 144 l 203 154 q 247 133 247 154 l 250 133 l 252 136 l 254 136 l 247 149 l 250 151 l 268 151 q 279 144 268 145 l 282 141 l 282 138 l 268 125 l 265 125 l 258 130 l 255 130 l 255 125 l 241 125 l 231 122 l 222 127 l 220 125 l 214 125 q 209 133 209 125 l 206 133 q 200 125 206 125 l 171 125 l 168 127 l 165 125 l 146 125 l 158 152 l 165 152 l 165 146 l 174 146 q 179 154 174 154 l 179 157 l 174 157 l 171 154 l 168 157 l 168 168 l 190 201 m 464 181 l 475 181 l 475 178 l 464 176 l 464 181 m 507 181 l 512 176 l 510 174 l 507 174 l 507 181 m 407 178 l 428 176 l 445 178 l 448 176 l 450 176 l 458 178 l 458 174 q 439 165 439 170 l 425 168 l 420 168 l 369 160 l 369 165 q 391 176 383 165 l 393 174 l 396 174 l 407 178 m 318 174 l 320 174 l 320 168 l 318 168 l 318 174 m 277 165 l 293 165 l 293 160 l 277 160 l 277 165 m 358 163 l 363 163 l 363 157 l 358 157 l 358 163 m 303 154 l 306 152 l 309 152 l 326 153 l 379 153 l 504 153 l 515 154 l 526 152 l 569 152 l 583 154 l 599 152 l 653 152 l 659 146 l 659 5 l 653 0 l 197 0 l 193 5 l 195 8 l 197 5 l 206 5 l 206 16 q 197 21 197 16 l 197 27 l 274 27 l 285 18 l 290 18 l 290 27 l 293 27 l 301 24 l 315 27 l 632 27 l 632 125 l 350 125 l 347 127 l 344 125 l 303 125 q 298 133 298 125 l 301 141 l 298 138 l 290 138 l 285 144 l 285 149 l 296 152 l 296 146 l 290 146 l 290 144 l 298 144 l 303 154 m 214 149 l 214 141 l 217 138 l 220 138 l 220 141 l 217 149 l 214 149 m 168 22 l 168 16 l 171 16 l 171 22 l 168 22 m 303 19 l 306 8 l 312 8 l 309 19 l 303 19 "},"k":{"x_min":-33.5625,"x_max":637.25,"ha":672,"o":"m 7 1077 l 151 1077 l 157 1071 l 157 681 l 159 670 l 157 659 l 157 645 l 159 634 l 157 623 l 157 607 l 159 599 l 157 585 l 157 524 l 159 524 l 395 828 l 574 828 l 574 825 l 332 513 l 338 507 l 316 491 l 319 488 l 319 486 q 278 442 307 486 q 295 423 283 430 l 298 426 q 313 401 298 411 q 360 423 348 407 l 360 417 q 319 393 359 410 l 637 2 l 634 0 l 447 0 l 435 13 l 438 27 l 425 27 q 159 350 408 41 l 157 350 l 157 309 l 159 309 q 164 323 159 323 l 167 323 l 167 314 q 157 285 157 300 l 157 92 q 146 86 157 86 l 143 83 l 143 79 l 146 79 l 154 81 l 157 79 l 157 70 l 151 62 l 157 56 l 154 54 l 151 56 l 143 56 l 148 49 l 132 46 l 132 52 l 138 52 l 138 54 l 132 54 l 132 60 l 135 56 q 146 65 146 61 l 146 68 q 130 81 130 68 l 130 426 l 135 426 l 455 27 l 580 27 l 580 29 l 243 442 l 520 801 l 408 801 l 132 448 l 130 448 l 130 1050 l 29 1050 l 29 89 l 26 86 l 29 83 l 29 79 l 10 76 q 2 97 2 78 l 2 306 l 0 304 l -6 304 l -6 309 l 2 309 l 2 328 l -8 325 l -17 328 l -22 323 l -28 323 l -33 328 q 2 347 -31 337 l 2 1071 l 7 1077 m 422 553 l 425 550 l 425 542 l 420 537 l 417 537 l 417 547 l 422 553 m 398 545 l 403 539 l 403 534 l 395 526 l 387 526 l 382 531 l 393 534 l 393 537 l 390 539 l 390 542 l 393 545 l 398 545 m 463 545 l 468 537 l 468 534 l 461 526 l 452 526 l 447 531 q 461 545 458 533 l 463 545 m 488 545 l 488 537 l 482 537 l 482 539 l 488 545 m 370 537 l 379 537 l 379 531 l 374 526 l 370 529 l 370 537 m 387 521 l 390 521 l 390 516 l 387 516 l 387 521 m 425 513 l 431 513 l 431 510 l 425 510 l 425 513 m 341 510 l 343 510 l 349 505 l 349 502 l 346 502 l 341 507 l 341 510 m 382 510 l 387 505 l 384 502 l 377 505 l 382 510 m 406 510 l 408 510 l 414 505 l 414 502 l 411 502 l 406 507 l 406 510 m 447 510 l 449 507 l 449 502 l 441 505 l 447 510 m 403 507 l 406 505 l 406 502 l 403 499 l 398 499 l 398 502 l 403 507 m 466 505 l 468 505 l 468 499 l 466 499 l 466 505 m 431 499 l 433 496 l 433 493 l 425 488 l 417 496 l 431 499 m 490 499 l 496 499 l 496 491 l 485 491 l 485 493 l 490 499 m 379 491 l 384 486 l 382 483 l 374 483 l 374 486 l 379 491 m 349 480 l 352 480 l 352 474 q 308 434 333 462 l 303 434 q 298 426 303 426 l 298 431 l 335 472 l 349 480 m 414 480 l 417 480 l 417 474 q 403 467 417 470 q 390 453 403 460 q 366 431 383 437 l 366 434 l 414 480 m 377 469 l 382 469 l 382 464 l 377 464 l 377 469 m 441 469 l 447 469 l 447 467 l 441 467 l 441 469 m 461 464 l 466 464 l 466 458 l 461 458 l 461 464 m 368 458 l 370 458 l 377 453 l 377 445 l 370 445 l 363 453 l 368 458 m 431 458 l 435 458 l 441 453 l 441 450 l 435 445 l 431 450 l 431 458 m 374 407 l 379 407 l 379 396 l 370 396 l 366 401 l 374 407 m -28 391 l -20 388 l -20 380 l -28 380 l -33 385 l -28 391 m 442 391 l 447 391 l 447 385 l 442 385 l 442 391 m 390 382 l 390 380 l 382 372 l 379 372 l 379 377 l 390 382 m 455 380 l 447 372 l 444 372 l 444 377 l 455 380 m 176 312 l 181 312 l 181 309 l 176 309 l 176 312 m 132 81 l 135 81 l 140 87 l 138 87 l 132 81 m 21 73 l 29 73 l 23 68 l 21 68 l 21 73 m 26 65 l 29 62 l 29 56 l 23 49 l 29 43 l 29 29 l 26 27 l 26 24 l 31 19 l 23 13 l 18 13 l 16 16 l 13 16 l 13 5 l 7 5 l 5 19 l 5 22 l 10 22 l 10 24 q 2 37 3 24 l 5 40 l 5 43 l 2 60 l 5 60 l 7 56 l 26 65 m 577 43 l 577 37 l 583 37 l 583 43 l 577 43 m 16 27 l 16 24 l 21 24 l 21 27 l 16 27 m 48 27 l 64 27 l 83 22 l 86 24 l 86 27 l 105 22 l 105 16 l 97 13 l 81 16 l 86 8 l 86 5 l 81 0 q 53 16 81 3 l 48 22 l 48 27 m 444 22 l 438 13 l 441 11 l 444 11 l 458 16 l 461 13 l 463 16 l 463 19 l 444 24 l 444 22 m 70 14 l 72 14 l 78 19 l 75 19 l 70 14 m 26 11 l 34 11 l 37 0 l 21 0 l 21 5 l 26 11 m 102 8 l 107 2 l 97 0 l 97 2 l 102 8 "},"":{"x_min":0,"x_max":0,"ha":463},"Ù":{"x_min":0,"x_max":0,"ha":1003},"Ů":{"x_min":0,"x_max":0,"ha":1003},"¢":{"x_min":0,"x_max":0,"ha":772},"В":{"x_min":0,"x_max":0,"ha":926},"І":{"x_min":0,"x_max":0,"ha":386},"ē":{"x_min":0,"x_max":0,"ha":772},"β":{"x_min":0,"x_max":0,"ha":799},"≠":{"x_min":0,"x_max":0,"ha":762},"‼":{"x_min":0,"x_max":0,"ha":694},"¥":{"x_min":0,"x_max":0,"ha":772},"Ĥ":{"x_min":0,"x_max":0,"ha":1003},"U":{"x_min":-45,"x_max":715,"ha":743,"o":"m 12 1099 l 156 1099 l 162 1093 l 162 469 q 175 331 162 331 l 175 328 l 167 325 l 170 306 l 188 317 l 194 309 l 175 301 l 172 303 l 172 295 l 175 292 l 175 290 l 191 301 l 194 301 l 199 295 q 175 284 199 290 q 262 176 207 203 l 265 165 l 265 152 l 270 152 q 278 163 278 152 l 286 163 l 286 160 l 283 157 l 283 152 l 286 152 q 291 160 286 160 l 294 157 l 294 152 l 281 138 l 275 138 l 267 147 l 265 144 l 262 144 q 136 390 136 200 l 136 477 l 136 1072 l 34 1072 l 34 499 q 102 141 34 219 q 251 41 142 76 q 270 14 270 41 l 273 11 l 273 8 q 99 97 193 15 l 86 116 l 86 119 l 83 116 l 77 116 l 80 119 l 80 125 q 7 485 7 209 l 7 1093 l 12 1099 m 569 1099 l 709 1099 l 715 1093 l 715 401 q 511 21 715 105 l 452 8 l 449 11 q 419 3 449 3 l 414 3 l 414 5 l 430 21 l 430 24 l 427 24 q 403 0 415 20 l 371 0 l 365 5 l 365 14 q 371 27 371 14 l 373 27 q 668 249 610 27 q 688 404 688 322 l 688 1072 l 590 1072 l 590 407 l 584 407 l 584 420 l 579 420 l 566 417 l 563 420 l 563 431 l 569 436 l 574 431 q 584 450 584 440 l 584 483 q 574 488 574 483 l 574 491 q 584 504 584 491 l 584 515 l 569 515 l 563 521 l 563 1093 l 569 1099 m 582 396 l 587 396 l 587 369 l 582 369 l 582 396 m 229 385 l 229 382 l 223 377 l 218 382 l 221 385 l 229 385 m 582 363 l 585 360 l 585 352 l 558 347 l 558 352 q 582 363 558 358 m 246 339 l 246 336 l 240 331 l 234 336 l 237 339 l 246 339 m 569 336 l 569 333 l 560 325 l 560 328 l 569 336 m 574 328 l 579 328 l 579 319 l 574 315 l 571 315 l 574 328 m 265 317 l 265 315 l 259 309 l 254 315 l 256 317 l 265 317 m 267 303 l 270 301 l 270 298 l 265 292 l 259 298 l 267 303 m 563 276 l 569 271 q 555 247 560 247 l 544 247 q 558 263 558 257 l 555 271 l 563 276 m 544 271 l 547 271 l 547 268 l 541 261 l 549 261 l 544 255 l 541 255 l 536 261 l 536 263 l 544 271 m -45 266 l -39 266 l -39 263 l -45 263 l -45 266 m 530 252 l 533 252 l 552 242 l 552 239 q 473 147 552 201 l 470 147 q 511 217 470 173 q 530 252 526 233 m 530 242 l 530 236 l 533 236 l 533 242 l 530 242 m 273 239 l 281 236 l 281 233 q 259 225 279 225 l 256 225 l 273 239 m 352 239 l 352 236 l 346 230 l 341 236 l 343 239 l 352 239 m 218 228 l 221 228 l 221 223 l 218 223 l 218 228 m -28 219 l -23 219 l -23 217 l -28 217 l -28 219 m 365 200 l 373 192 l 352 187 l 349 187 l 365 200 m 444 200 l 444 198 l 438 192 l 432 198 l 435 200 l 444 200 m -9 198 l -4 198 l -4 195 l -9 195 l -9 198 m -4 181 l 2 181 l 2 179 l -4 179 l -4 181 m 465 171 l 465 165 q 452 136 457 157 l 381 122 l 378 125 l 378 133 l 383 138 l 389 133 l 397 136 l 397 152 l 403 152 l 408 147 l 403 133 l 405 133 l 416 136 l 414 138 l 414 149 q 465 171 414 155 m 308 155 l 313 141 l 311 138 l 308 138 l 305 141 q 297 130 305 130 l 295 133 l 295 136 l 305 155 l 308 155 m 430 149 l 430 144 l 435 144 l 435 149 l 430 149 m 341 149 l 349 144 l 357 147 l 357 136 l 362 136 q 367 149 362 149 l 381 149 l 381 144 q 368 122 374 144 l 360 122 q 352 138 352 122 l 349 138 q 343 128 349 128 l 333 133 q 327 125 333 125 l 324 128 l 322 128 q 341 149 324 137 m 316 128 l 319 125 l 319 119 l 305 116 l 303 119 l 303 122 l 316 128 m 265 108 l 270 108 l 270 103 l 265 108 m 324 108 l 330 108 l 330 106 l 324 106 l 324 108 m 322 100 l 322 95 l 316 95 l 322 100 m 275 90 l 278 90 l 284 84 l 284 82 l 278 82 l 275 90 m 322 84 l 330 84 l 324 70 l 327 68 q 322 60 322 68 l 316 60 l 322 84 m 308 65 l 311 62 l 308 51 l 305 51 l 297 57 l 291 51 l 283 51 q 308 65 294 65 m 297 30 l 313 30 l 341 27 q 327 3 335 3 l 313 3 l 311 5 l 308 5 l 311 8 l 311 14 q 305 6 305 14 l 297 6 l 300 8 l 300 16 l 297 30 m 284 21 l 289 21 l 289 19 l 284 14 l 284 21 m 446 19 l 446 16 l 452 16 l 452 19 l 446 19 m 392 8 l 392 5 l 397 5 l 397 14 l 392 8 m 284 11 l 289 11 l 289 5 l 284 5 l 284 11 "},"Ñ":{"x_min":0,"x_max":0,"ha":1003},"F":{"x_min":-76,"x_max":559,"ha":594,"o":"m 98 1120 l 103 1115 q 87 1107 100 1107 l 81 1107 l 98 1120 m 176 1120 l 176 1118 l 171 1112 l 165 1118 l 168 1120 l 176 1120 m 46 1080 l 60 1074 l 70 1077 l 79 1064 l 79 1061 l 81 1061 l 84 1064 l 87 1061 l 89 1061 l 98 1064 l 98 1061 l 105 1056 l 108 1058 l 111 1058 l 119 1056 q 133 1061 119 1061 l 133 1064 l 130 1066 l 130 1069 l 133 1069 l 141 1066 l 135 1058 l 138 1050 l 62 1050 l 51 1053 l 40 1050 l 27 1050 l 27 27 l 122 27 l 128 32 l 128 485 l 133 491 l 532 491 l 532 594 l 133 594 l 128 599 l 128 944 l 133 950 l 532 950 l 532 1050 l 526 1050 l 526 1053 l 523 1050 l 488 1050 l 480 1056 l 475 1050 l 414 1050 l 412 1053 l 409 1050 l 404 1050 l 401 1053 l 398 1053 l 396 1050 q 377 1066 396 1055 l 374 1066 l 365 1061 l 363 1061 l 360 1064 l 357 1064 l 353 1058 l 353 1061 l 355 1064 l 355 1066 l 347 1069 l 350 1077 l 357 1077 l 357 1072 l 363 1072 l 363 1077 l 371 1077 l 380 1072 l 385 1077 l 404 1077 l 412 1072 l 417 1077 l 469 1077 l 477 1072 l 496 1072 l 496 1077 l 504 1077 l 504 1072 l 510 1072 l 510 1077 l 529 1077 l 532 1074 l 534 1077 q 559 1066 559 1073 l 559 928 l 553 923 l 412 923 l 412 925 l 414 933 l 398 939 q 382 931 382 936 l 404 925 l 404 923 l 171 923 l 176 901 q 171 909 171 901 q 165 920 165 909 l 155 923 l 155 846 l 168 825 l 171 828 l 174 828 l 182 825 l 182 822 q 171 817 182 817 l 190 789 l 217 800 l 222 792 l 222 789 q 212 781 222 785 l 200 784 l 198 784 l 198 776 l 190 781 l 187 779 l 174 779 q 182 784 174 784 l 182 787 l 165 814 l 157 811 l 155 814 l 155 773 l 157 776 l 165 776 l 163 768 l 160 768 l 157 771 l 155 771 l 155 743 l 160 743 q 168 749 160 749 l 176 757 l 179 757 l 184 746 l 184 743 l 155 738 l 155 725 l 157 725 l 174 735 q 184 727 184 731 q 155 719 171 719 l 171 702 l 187 716 q 195 710 187 710 l 198 708 l 198 705 l 195 702 l 195 700 l 201 695 l 201 683 l 190 681 l 182 683 l 182 681 q 198 656 182 670 q 206 667 199 667 l 212 661 l 200 656 l 200 653 l 206 653 l 217 661 l 214 664 l 228 669 l 228 667 l 236 648 l 222 643 l 212 646 l 209 637 l 206 640 l 203 640 l 179 637 l 190 654 q 174 678 185 654 l 155 675 l 155 667 q 163 641 155 641 l 174 637 l 168 632 l 171 621 l 553 621 l 559 616 l 559 469 l 553 464 l 155 464 l 157 461 l 155 447 l 155 5 l 149 0 l 5 0 l 0 5 l 0 808 l 2 811 l 0 814 l 0 920 l 2 923 l 0 925 l 0 939 l 2 941 l 0 944 l 0 1072 l 5 1077 l 24 1077 l 35 1074 l 46 1080 m 157 1077 l 157 1072 l 152 1072 l 157 1077 m 165 1077 l 168 1077 l 174 1072 l 171 1069 l 168 1069 q 179 1055 171 1055 l 174 1050 l 155 1050 l 157 1053 l 157 1058 l 138 1058 q 160 1064 138 1064 l 165 1077 m 212 1077 l 217 1077 q 222 1069 217 1069 l 217 1061 l 222 1061 l 228 1066 l 228 1069 l 222 1069 l 222 1077 l 296 1077 l 298 1074 l 301 1077 l 311 1077 l 314 1074 l 317 1077 l 331 1077 l 336 1072 l 331 1066 l 331 1064 l 333 1064 l 333 1069 l 339 1069 l 339 1066 l 333 1058 l 341 1058 l 333 1050 l 331 1050 l 322 1058 l 325 1061 l 311 1064 q 293 1053 302 1053 l 293 1058 q 301 1069 301 1058 l 309 1069 l 309 1074 q 296 1061 296 1070 l 293 1061 q 287 1072 287 1061 l 279 1072 l 279 1069 l 281 1061 l 273 1053 l 241 1050 q 233 1061 233 1050 l 230 1061 l 228 1058 l 225 1050 l 222 1050 l 220 1053 l 217 1053 l 209 1050 l 203 1056 l 200 1053 q 195 1061 200 1061 l 195 1064 l 198 1066 l 198 1069 l 195 1069 l 187 1066 l 190 1064 l 190 1061 l 184 1061 l 182 1069 l 184 1072 l 187 1072 l 190 1069 q 198 1074 190 1074 l 212 1069 l 212 1077 m 271 1074 l 271 1069 l 276 1069 l 271 1074 m 54 1072 l 51 1061 l 57 1061 l 57 1072 l 54 1072 m 116 1074 l 122 1066 l 119 1064 l 111 1064 l 111 1069 l 116 1074 m 62 1069 l 68 1064 l 70 1064 l 65 1069 l 62 1069 m 239 1069 l 239 1064 l 241 1064 l 241 1069 l 239 1069 m 244 1066 l 244 1064 l 246 1064 l 258 1066 l 258 1069 l 252 1069 l 244 1066 m 529 1064 l 540 1064 l 540 1069 l 534 1069 l 529 1064 m 475 1066 l 475 1058 l 480 1064 l 480 1066 l 475 1066 m 209 1064 l 209 1055 l 214 1055 l 214 1064 l 209 1064 m 461 1064 l 461 1058 l 464 1058 l 464 1064 l 461 1064 m 420 1061 l 420 1056 l 423 1056 l 423 1061 l 420 1061 m 5 1058 l 5 1056 l 11 1056 l 11 1058 l 5 1058 m 314 1061 l 317 1058 l 317 1056 l 314 1053 l 306 1053 l 314 1061 m 537 1058 l 537 1053 l 542 1053 l 542 1058 l 537 1058 m -30 941 l -24 941 l -24 939 l -30 939 l -30 941 m 179 898 l 192 884 l 220 895 l 225 887 l 225 884 l 220 879 l 201 879 l 201 873 l 198 873 l 195 876 l 182 873 l 177 873 q 184 879 177 879 l 187 881 l 187 884 l 179 892 l 179 898 m 141 868 l 141 865 l 146 865 l 146 868 l 141 868 m 214 865 l 220 865 l 220 863 l 214 857 l 209 857 l 209 860 l 214 865 m 155 833 l 155 817 l 157 817 l 160 820 l 163 820 q 155 833 159 833 m 249 830 l 255 825 l 246 820 l 241 820 l 241 822 l 249 830 m 141 822 l 146 817 l 149 820 l 149 822 l 141 822 m 5 811 l 8 811 l 13 817 l 11 817 l 5 811 m 200 770 l 203 770 l 209 765 l 203 760 l 198 760 l 198 762 l 200 770 m 214 770 l 225 770 l 225 765 l 214 765 l 214 770 m 261 757 l 266 757 l 266 751 l 261 751 l 261 757 m 246 753 l 252 753 l 252 751 l 246 746 l 241 746 l 241 749 l 246 753 m -54 746 l -49 746 l -49 743 l -54 743 l -54 746 m 249 738 l 252 735 l 252 732 l 246 727 l 241 727 l 241 730 l 249 738 m 261 738 l 266 738 l 266 732 l 261 732 l 261 738 m 261 716 l 266 710 l 261 705 l 258 705 l 252 710 l 261 716 m 228 710 l 234 710 l 236 708 l 239 708 l 234 696 l 225 702 l 228 710 m 241 711 l 249 711 l 249 705 l 241 705 l 241 711 m -21 708 l -16 708 l -21 702 l -21 708 m 171 696 l 174 695 l 174 692 l 184 700 l 182 700 l 171 696 m 241 696 l 244 695 l 246 695 l 258 696 l 258 692 l 234 686 l 234 691 q 241 696 234 696 m 174 656 l 179 656 l 179 651 l 174 651 l 174 656 m -65 648 l -60 648 l -60 646 l -65 646 l -65 648 m -21 635 l -16 635 l -16 632 l -21 632 l -21 635 m 209 635 l 211 635 l 211 630 l 209 630 l 209 635 m 155 627 l 160 621 l 163 621 l 163 627 l 155 627 m -21 616 l -16 616 l -16 613 l -21 613 l -21 616 m -8 594 l -3 594 l -3 591 l -8 591 l -8 594 m -33 588 q -40 583 -33 583 l -43 583 l -43 585 l -33 588 m -30 575 l -24 575 l -27 561 l -33 567 l -30 575 m -65 545 l -60 545 l -60 543 l -65 543 l -65 545 m -76 532 l -71 532 l -71 529 l -76 529 l -76 532 "},"╤":{"x_min":0,"x_max":0,"ha":984},"Ќ":{"x_min":0,"x_max":0,"ha":809},"∕":{"x_min":0,"x_max":0,"ha":232},"å":{"x_min":0,"x_max":0,"ha":772},"Ϋ":{"x_min":0,"x_max":0,"ha":926},"0":{"x_min":-13,"x_max":782,"ha":819,"o":"m 573 1250 l 581 1247 l 581 1244 q 557 1233 581 1239 l 549 1236 l 549 1239 l 554 1247 l 562 1244 l 573 1250 m 652 1250 l 652 1247 l 646 1241 l 641 1247 l 643 1250 l 652 1250 m 481 1244 l 489 1236 l 467 1231 l 464 1231 l 481 1244 m 641 1179 l 649 1171 l 627 1166 l 624 1166 l 641 1179 m 714 1179 l 719 1179 l 719 1176 l 714 1171 l 709 1171 l 709 1173 l 714 1179 m 524 1176 q 535 1168 524 1168 l 535 1162 l 530 1162 l 530 1157 q 559 1136 538 1157 l 559 1133 l 567 1139 l 570 1136 l 570 1130 l 567 1128 l 578 1112 l 578 1109 l 581 1109 l 581 1112 l 578 1125 q 584 1139 584 1125 l 587 1141 l 592 1141 l 597 1136 l 587 1130 l 587 1128 l 595 1120 l 597 1122 l 608 1122 l 608 1117 l 587 1112 l 587 1106 q 600 1093 595 1106 l 589 1090 l 597 1079 l 589 1062 l 584 1062 l 581 1076 l 589 1076 q 573 1095 589 1089 l 576 1098 l 576 1101 q 562 1122 562 1112 l 557 1122 l 557 1120 l 559 1112 l 557 1112 q 521 1122 538 1122 l 524 1125 l 524 1128 l 505 1122 l 502 1125 q 524 1154 516 1154 l 524 1160 l 521 1158 l 519 1158 l 519 1162 l 524 1162 l 524 1166 l 519 1166 l 516 1162 l 511 1171 l 524 1176 m 374 1171 l 380 1171 l 391 1152 l 391 1149 q 382 1144 391 1144 q 225 1112 321 1144 l 223 1114 q 206 1101 223 1101 q 201 1109 201 1101 l 199 1109 l 199 1103 l 201 1095 l 193 1090 q 185 1109 188 1090 l 182 1109 q 149 1057 176 1076 l 136 1052 l 136 1057 l 142 1065 l 142 1068 q 127 1046 133 1068 l 130 1038 l 120 1030 l 114 1036 l 123 1046 l 123 1054 l 108 1054 l 108 1060 l 120 1060 l 123 1057 l 125 1057 q 190 1120 125 1086 l 204 1114 q 231 1139 204 1139 l 231 1136 q 223 1117 223 1125 l 249 1147 q 374 1171 312 1171 m 394 1171 l 397 1168 l 397 1160 l 394 1160 l 388 1166 l 394 1171 m 432 1171 q 451 1147 438 1150 l 453 1147 q 459 1155 453 1155 l 462 1155 l 462 1149 l 454 1139 l 454 1128 l 456 1128 q 462 1136 456 1136 q 478 1112 478 1120 l 497 1114 l 505 1114 l 505 1109 l 500 1101 l 497 1103 l 492 1103 l 494 1101 l 494 1098 l 492 1090 l 486 1090 q 462 1125 486 1096 l 462 1120 l 464 1106 l 462 1109 l 454 1109 l 454 1103 l 456 1106 l 462 1106 l 462 1098 l 456 1093 l 443 1093 l 440 1112 l 443 1114 l 429 1117 q 445 1128 435 1128 l 445 1136 l 432 1133 l 424 1133 l 424 1139 l 432 1141 l 429 1144 l 432 1158 l 432 1160 l 429 1160 l 427 1158 l 424 1158 l 418 1166 l 432 1171 m 486 1162 l 500 1160 l 497 1147 l 497 1139 l 500 1136 l 500 1133 l 494 1133 l 489 1139 l 492 1139 l 486 1155 l 481 1155 l 481 1139 l 467 1139 l 467 1147 l 469 1149 l 467 1152 l 467 1158 l 469 1158 l 472 1155 l 475 1155 q 486 1162 475 1161 m 603 1141 l 611 1141 l 611 1139 l 605 1133 l 603 1136 l 603 1141 m 451 1117 l 451 1112 l 456 1112 l 456 1117 l 451 1117 m 513 1120 l 516 1120 l 516 1117 l 513 1109 l 507 1109 l 507 1114 l 513 1120 m 630 1120 l 643 1109 l 641 1106 l 641 1103 l 638 1106 l 633 1106 l 633 1101 q 641 1093 641 1101 l 643 1090 l 646 1090 l 649 1093 l 652 1093 l 671 1084 q 675 1093 671 1093 l 684 1084 l 684 1082 l 671 1082 l 673 1079 l 673 1076 l 700 1084 q 711 1076 711 1080 l 711 1073 l 697 1071 l 697 1079 l 684 1071 l 681 1071 l 678 1073 l 675 1073 l 678 1065 l 673 1055 q 709 1025 683 1055 l 727 1025 l 727 1022 q 722 1013 722 1022 l 719 1011 l 717 1011 l 717 1013 l 719 1016 l 719 1019 l 711 1019 l 711 1016 q 729 984 727 997 l 733 987 l 744 987 l 744 981 l 733 978 q 782 680 782 901 l 782 514 q 729 188 782 243 q 675 123 729 172 l 673 137 l 675 145 l 671 145 l 671 150 q 755 455 755 232 l 755 683 q 686 1003 755 920 q 630 1065 673 1026 l 627 1065 l 627 1062 l 632 1062 l 632 1057 q 608 1044 632 1049 l 608 1046 l 605 1044 l 603 1044 q 587 1052 587 1046 l 592 1060 l 589 1062 l 594 1062 q 600 1055 600 1062 q 621 1073 615 1060 l 614 1082 l 611 1082 l 603 1079 l 600 1082 l 600 1090 l 608 1098 l 616 1095 l 624 1098 l 624 1101 l 614 1101 l 614 1106 q 630 1120 630 1109 m 709 1120 l 711 1117 l 711 1114 q 703 1109 711 1109 l 709 1101 l 703 1095 l 697 1095 q 709 1120 700 1120 m 719 1119 l 727 1119 l 727 1114 l 719 1114 l 719 1119 m 410 1114 l 416 1114 l 416 1109 q 424 1103 424 1109 l 424 1101 l 391 1095 l 391 1100 q 410 1114 405 1100 m 427 1112 l 432 1112 l 435 1095 l 427 1103 l 427 1112 m 519 1112 l 524 1112 l 524 1106 l 519 1112 m 565 1112 l 565 1109 l 559 1103 l 557 1106 l 557 1109 l 559 1112 l 565 1112 m 524 1106 l 529 1101 l 529 1095 l 524 1101 l 524 1106 m 717 1106 l 722 1106 l 722 1100 l 717 1100 l 717 1106 m 627 1087 l 632 1082 l 638 1093 l 632 1093 l 627 1087 m 727 1095 l 730 1093 l 730 1090 l 719 1076 l 717 1076 q 727 1095 720 1095 m 739 1095 l 744 1095 l 744 1090 l 739 1090 l 739 1095 m 535 1076 l 540 1076 l 540 1073 l 535 1073 l 535 1076 m 567 1073 l 573 1068 l 570 1068 l 573 1065 l 573 1057 l 567 1052 l 565 1055 l 565 1057 l 567 1073 m 729 1068 l 736 1062 l 729 1057 l 725 1057 l 725 1062 l 729 1068 m 744 1068 l 749 1068 l 749 1062 l 744 1062 l 744 1068 m 605 1065 l 608 1062 l 608 1060 l 600 1060 l 605 1065 m 700 1055 l 706 1055 l 706 1049 l 700 1055 m 101 1052 l 104 1052 l 112 1046 q 106 1027 112 1027 l 109 1025 l 109 1016 q 63 949 101 1016 q 33 780 33 879 l 33 406 q 196 88 33 175 q 396 34 277 34 q 540 61 463 34 l 543 59 q 559 70 549 70 l 567 53 l 570 53 l 608 78 l 605 80 l 603 80 l 600 78 l 600 80 l 605 86 l 614 83 l 630 86 l 630 83 q 611 78 630 78 l 614 75 l 614 67 l 600 61 l 603 59 l 603 53 l 597 48 l 578 48 l 578 42 l 573 42 l 570 45 q 481 15 548 30 l 481 12 l 483 4 l 469 12 l 443 7 l 440 9 l 440 4 l 443 -11 l 437 -20 l 427 -11 l 427 -6 l 429 -3 l 429 -1 l 418 7 l 402 7 l 388 4 l 339 9 l 336 7 l 334 7 q 231 36 264 23 l 223 34 q 207 48 219 48 l 207 42 l 204 42 q 187 59 189 48 l 185 56 l 182 56 q 163 70 172 70 l 163 75 l 161 75 l 161 67 l 166 59 l 163 59 q 155 75 158 59 l 158 78 q 65 169 106 110 q 6 409 6 247 l 6 780 q 90 1036 6 951 l 93 1036 q 101 1022 93 1022 l 104 1022 l 104 1027 l 101 1041 l 104 1041 l 101 1044 l 101 1052 m 749 1030 l 752 1027 l 752 1025 l 747 1019 l 741 1019 l 741 1022 l 749 1030 m 755 978 l 757 976 l 757 973 l 752 968 l 747 968 l 747 970 l 755 978 m 673 222 l 675 222 l 681 216 l 681 213 l 678 213 l 673 219 l 673 222 m 11 199 l 17 199 l 17 197 l 11 197 l 11 199 m -13 178 l -8 178 l -8 167 l -13 172 l -13 178 m 638 156 l 643 148 l 635 140 l 621 140 l 619 148 q 638 156 629 156 m 595 137 l 600 137 l 600 135 l 595 135 l 595 137 m 654 135 l 660 135 l 660 129 l 662 132 l 668 132 l 668 129 l 665 121 l 668 118 l 665 115 l 654 121 l 654 118 l 657 115 l 657 113 q 652 99 652 113 l 649 99 q 638 121 640 99 l 654 135 m 93 121 l 98 121 l 98 115 l 93 121 m 41 113 l 47 113 l 47 110 l 41 110 l 41 113 m 624 105 l 627 105 l 627 102 l 616 91 l 605 91 l 605 97 l 624 105 m 120 99 l 125 99 l 125 94 l 120 94 l 120 99 m 554 97 l 557 97 l 551 78 l 546 78 q 554 97 548 97 m 570 94 l 576 94 l 578 80 l 576 78 l 567 78 l 562 83 l 562 86 l 570 94 m 505 91 l 511 91 l 511 88 l 505 88 l 505 91 m 459 86 l 462 86 l 462 83 q 440 53 453 66 l 437 53 l 427 61 l 421 56 l 418 56 l 413 61 q 427 80 427 61 l 429 80 l 443 75 l 443 78 q 459 86 445 86 m 142 80 l 147 80 l 147 75 l 142 75 l 142 80 m 486 70 l 494 70 l 500 64 l 478 48 l 475 48 l 475 53 q 486 70 486 53 m 169 53 l 174 48 l 174 45 l 169 50 l 169 53 m 432 7 l 432 -1 l 435 -1 l 435 7 l 432 7 m 483 4 l 497 -9 l 524 1 l 530 -6 l 530 -9 l 524 -14 l 505 -14 l 505 -20 l 502 -20 l 500 -17 l 486 -20 l 481 -20 q 489 -14 481 -14 l 492 -11 l 492 -9 l 483 -1 l 483 4 "},"ō":{"x_min":0,"x_max":0,"ha":772},"”":{"x_min":0,"x_max":0,"ha":463},"ö":{"x_min":0,"x_max":0,"ha":772},"☺":{"x_min":0,"x_max":0,"ha":1418},"╧":{"x_min":0,"x_max":0,"ha":984},"ć":{"x_min":0,"x_max":0,"ha":694},"þ":{"x_min":0,"x_max":0,"ha":772},"]":{"x_min":0,"x_max":341.421875,"ha":335,"o":"m 5 1262 l 111 1262 l 124 1251 q 130 1262 124 1262 l 133 1259 l 133 1251 q 124 1235 133 1237 q 116 1249 118 1235 l 113 1249 q 108 1235 113 1235 l 27 1235 l 27 1148 l 108 1148 l 116 1143 l 124 1148 l 130 1148 l 136 1143 l 113 1121 l 5 1121 l 0 1126 l 0 1257 l 5 1262 m 178 1262 l 187 1262 l 192 1257 q 184 1249 184 1257 l 181 1249 l 173 1257 l 178 1262 m 224 1262 l 227 1259 l 224 1257 l 224 1251 q 230 1259 230 1251 l 235 1259 l 241 1254 l 241 1249 l 227 1235 l 222 1235 l 219 1259 l 222 1262 l 224 1262 m 249 1262 l 257 1262 l 260 1259 l 263 1259 q 252 1235 255 1235 l 246 1235 l 244 1238 l 241 1238 l 249 1257 l 244 1257 l 249 1262 m 286 1262 q 294 1213 294 1262 l 294 1055 l 294 928 l 294 887 q 290 874 294 874 l 296 855 q 287 838 287 855 l 287 836 l 290 836 l 290 844 l 296 844 l 296 811 q 277 803 296 803 l 274 796 l 269 796 l 269 812 l 274 812 l 274 822 l 269 822 l 269 882 l 271 885 l 268 887 l 268 933 l 271 936 l 268 939 l 268 1010 l 282 1026 q 268 1031 268 1026 l 268 1053 l 271 1055 l 269 1058 l 269 1061 l 271 1064 l 269 1077 l 269 1080 q 277 1102 269 1100 l 285 1099 l 285 1102 l 287 1113 l 287 1121 l 285 1121 l 271 1110 l 269 1110 l 269 1137 l 271 1140 l 269 1143 l 269 1148 l 274 1186 l 269 1207 l 274 1207 l 274 1218 q 269 1249 274 1238 l 271 1257 l 269 1259 l 271 1262 l 286 1262 m 163 1260 l 168 1260 l 168 1249 l 163 1249 l 163 1260 m 173 1241 l 176 1241 l 176 1235 l 173 1235 l 173 1241 m 279 1150 l 279 1146 l 285 1146 l 285 1150 l 279 1150 m 154 1148 l 157 1148 l 163 1143 l 160 1140 l 157 1140 l 154 1143 l 150 1121 l 138 1121 l 138 1123 l 154 1148 m 163 1113 l 165 1113 l 165 1105 q 141 1086 159 1105 l 138 1086 q 163 1113 138 1096 m 154 1091 l 157 1091 l 157 1088 l 152 1083 l 149 1083 l 149 1086 l 154 1091 m 138 1080 l 144 1080 l 149 1074 l 149 1071 l 144 1067 l 141 1067 l 141 1069 l 144 1071 l 144 1074 l 138 1080 m 160 1069 l 165 1069 l 160 1044 l 165 1044 l 165 1018 q 149 996 149 1018 l 149 993 l 154 988 l 157 988 l 157 998 l 160 1013 l 165 1013 l 165 1010 l 163 1007 l 166 1004 l 166 982 q 176 964 166 973 l 170 958 l 176 952 l 173 950 l 170 950 q 163 964 167 964 l 160 964 l 160 955 l 166 925 l 166 915 l 163 898 l 166 895 l 166 893 q 144 825 144 837 l 138 825 l 138 893 l 144 901 l 144 909 l 138 917 l 140 941 l 140 990 l 144 996 l 141 1010 l 144 1007 l 146 1007 l 150 1010 l 150 1020 l 146 1034 q 160 1069 156 1034 m 138 1042 l 141 1042 l 146 1036 l 146 1034 l 144 1034 l 138 1039 l 138 1042 m 71 950 l 73 947 l 73 944 l 71 941 l 62 941 l 62 947 l 71 950 m 122 950 l 124 947 l 127 947 l 124 939 l 122 939 l 119 941 l 116 939 l 113 939 l 103 941 l 103 947 l 122 950 m 81 944 l 87 939 l 81 939 l 81 944 m 90 925 l 95 925 l 95 923 l 90 923 l 90 925 m 30 917 l 33 915 l 35 915 l 33 907 l 30 907 l 24 912 l 30 917 m 87 915 q 103 906 103 912 l 103 901 l 97 895 l 92 895 l 87 901 l 87 915 m 274 850 q 290 898 280 850 q 274 850 282 898 m 97 880 l 100 880 l 100 877 q 87 866 98 870 l 87 868 l 97 880 m 160 866 l 165 866 l 165 863 l 160 857 l 160 866 m 160 850 l 165 850 l 165 665 l 160 665 l 160 660 l 165 660 l 165 554 l 160 554 l 160 548 l 165 548 l 165 535 l 163 535 l 160 538 l 157 538 l 157 532 q 165 526 157 526 l 165 323 l 160 315 l 160 298 l 165 298 l 165 272 l 163 269 l 163 266 l 160 269 l 154 269 q 138 250 154 250 l 138 689 l 150 703 l 150 705 q 138 711 138 705 l 138 719 q 146 738 138 728 q 138 743 138 738 l 138 751 q 145 757 138 757 l 145 803 q 160 850 150 829 m 285 831 l 285 825 l 287 825 l 287 831 l 285 831 m 71 831 l 71 825 l 64 820 l 64 825 l 71 831 m 279 820 l 279 809 l 282 809 l 285 820 l 279 820 m 65 820 l 65 814 l 43 776 l 43 781 q 65 820 43 794 m 296 798 l 296 779 l 288 779 l 288 776 l 296 765 l 296 724 l 290 719 l 285 724 l 285 719 q 296 714 285 714 l 296 706 l 285 706 l 285 701 l 296 701 l 296 629 l 293 627 l 296 624 l 296 595 l 290 595 l 290 592 q 306 565 295 565 l 309 568 l 312 565 l 312 562 l 309 559 l 306 559 l 303 562 l 300 559 l 296 565 l 293 557 q 300 551 300 557 l 336 568 l 338 557 l 336 554 l 333 557 l 328 557 l 309 551 l 309 543 l 314 538 l 312 535 l 312 532 l 314 518 l 296 540 l 296 492 l 293 492 q 269 510 276 499 l 269 538 l 274 538 q 288 505 288 526 l 293 505 l 277 554 l 282 559 q 269 567 269 559 l 269 603 l 271 603 l 282 595 l 282 600 l 271 608 l 269 611 l 269 616 l 274 632 l 269 637 l 269 649 l 271 646 l 277 646 l 282 652 l 282 655 q 269 663 269 655 l 269 671 l 271 671 l 279 668 l 279 671 q 271 676 279 676 l 269 679 l 269 716 l 274 724 l 274 736 l 269 736 l 269 787 q 296 798 282 798 m 76 793 l 79 790 l 79 787 l 76 785 l 73 785 l 71 787 l 71 790 l 73 793 l 76 793 m 285 770 l 285 762 l 290 762 l 290 765 l 285 770 m 136 765 l 136 762 l 130 757 l 130 759 l 136 765 m 274 749 l 274 741 l 277 741 l 277 749 l 274 749 m 43 744 l 49 744 l 49 741 l 43 741 l 43 744 m 146 724 l 146 719 l 155 722 l 155 724 l 146 724 m 33 724 l 41 724 l 41 722 l 35 716 l 33 719 l 33 724 m 282 689 l 282 686 l 288 686 l 288 689 l 282 689 m 279 665 l 279 660 l 285 665 l 279 665 m 146 627 l 146 622 l 152 622 l 152 627 l 146 627 m 279 622 l 279 616 l 285 616 l 285 622 l 279 622 m 157 606 l 157 603 l 163 603 l 163 606 l 157 606 m 336 576 l 341 570 l 338 568 l 336 568 l 336 576 m 296 551 l 296 546 l 298 546 l 298 551 l 296 551 m 288 543 l 288 540 l 293 540 l 293 543 l 288 543 m 269 483 l 271 483 q 296 475 296 481 l 296 448 l 290 443 l 288 443 l 269 453 l 269 483 m 144 416 l 144 407 l 146 407 l 146 416 l 144 416 m 152 369 l 152 361 l 155 361 l 155 369 l 152 369 m 285 371 l 285 363 l 274 345 l 269 345 l 269 363 q 285 371 269 369 m 269 339 l 274 339 l 282 320 l 279 318 l 277 318 l 269 331 l 269 339 m 269 315 l 274 315 l 279 293 l 274 269 l 277 261 l 280 261 q 287 285 280 285 l 293 285 l 290 266 l 290 255 l 296 225 l 296 -151 l 290 -157 l 5 -157 l 0 -151 l 0 -21 l 5 -16 l 138 -16 l 138 244 l 146 244 l 160 247 l 165 236 l 165 -37 l 160 -43 l 27 -43 l 27 -130 l 269 -130 l 269 233 l 271 250 l 269 263 l 269 315 m 144 274 l 144 272 l 150 272 l 150 279 l 144 274 "},"А":{"x_min":0,"x_max":0,"ha":926},"′":{"x_min":0,"x_max":0,"ha":260},"Ы":{"x_min":0,"x_max":0,"ha":1230},"ẁ":{"x_min":0,"x_max":0,"ha":1003},"ĭ":{"x_min":0,"x_max":0,"ha":386},"8":{"x_min":0,"x_max":735,"ha":772,"o":"m 347 1164 l 382 1164 l 382 1158 l 347 1158 l 347 1164 m 366 1156 l 376 1151 l 379 1153 l 382 1153 l 404 1151 l 407 1153 l 407 1156 l 409 1153 l 415 1153 l 442 1156 q 452 1151 442 1151 l 450 1137 l 447 1137 l 439 1142 l 426 1142 l 426 1137 q 434 1131 434 1137 l 434 1128 q 358 1153 358 1144 l 366 1156 m 279 1153 l 290 1153 q 309 1137 290 1145 l 309 1131 l 277 1123 l 277 1126 l 274 1134 l 277 1137 l 279 1134 l 288 1134 q 279 1148 288 1148 l 279 1153 m 263 1148 l 265 1148 l 265 1142 l 263 1142 l 263 1148 m 312 1148 l 317 1142 l 317 1140 l 312 1140 l 312 1148 m 472 1145 q 599 1069 519 1140 q 686 868 686 979 l 686 857 q 591 648 686 720 l 591 643 q 735 374 735 548 q 499 21 735 122 q 407 2 438 2 q 396 24 396 13 l 396 30 q 401 19 401 30 l 404 19 q 450 35 404 35 q 634 149 560 63 q 708 377 708 246 q 545 640 708 549 l 545 648 q 659 854 659 717 l 659 868 q 472 1120 659 1031 q 463 1126 472 1126 l 461 1128 l 461 1134 q 472 1145 472 1134 m 244 1140 q 258 1115 258 1125 l 235 1107 l 209 1120 l 209 1123 l 217 1120 l 225 1123 l 231 1117 l 231 1123 l 225 1131 l 244 1140 m 182 1101 l 201 1093 l 201 1085 l 198 1085 q 182 1098 187 1089 l 182 1101 m 163 1088 l 163 1080 l 160 1080 l 154 1085 l 157 1088 l 163 1088 m 149 1080 l 152 1077 l 152 1044 q 73 854 73 957 q 154 667 73 750 l 165 651 l 168 654 l 171 654 q 184 643 182 648 l 182 643 l 171 645 l 174 643 l 174 637 q 124 596 174 630 q 27 379 27 506 l 27 360 q 231 51 27 154 l 282 35 l 282 30 l 277 30 l 279 16 l 277 16 l 269 19 l 269 16 l 266 13 l 266 10 q 182 46 210 27 l 184 49 l 184 57 l 182 57 l 182 49 l 176 49 q 0 355 0 165 l 0 377 q 141 645 0 540 l 124 662 l 122 659 l 102 659 l 97 664 l 114 667 l 114 670 q 46 860 46 750 q 149 1080 46 980 m 182 694 l 190 694 l 190 692 l 182 692 l 182 694 m 235 670 l 244 667 l 244 662 l 228 662 l 228 667 l 235 670 m 249 654 l 252 651 l 252 648 l 241 643 l 235 648 l 249 654 m 231 648 l 233 645 l 233 643 l 214 638 l 214 640 q 231 648 216 648 m 152 632 l 152 627 l 160 635 l 160 638 l 157 638 l 152 632 m 190 638 l 195 632 l 192 630 l 190 630 l 190 638 m 238 635 l 241 632 l 241 630 l 238 627 l 233 627 l 233 630 l 238 635 m 174 632 l 176 630 l 176 627 l 171 621 l 168 624 l 168 627 l 174 632 m 91 627 l 100 624 l 100 616 l 91 616 l 86 621 l 91 627 m 206 624 l 217 624 l 217 618 l 206 618 l 206 624 m 176 594 l 179 591 l 179 588 l 176 586 l 171 586 l 171 588 l 176 594 m 225 35 l 225 30 l 231 30 l 231 35 l 225 35 m 355 27 q 366 3 359 27 l 363 0 l 349 0 q 339 24 344 0 l 341 27 l 355 27 m 323 13 l 323 8 l 317 3 l 309 3 l 303 8 l 323 13 "},"R":{"x_min":0,"x_max":765,"ha":734,"o":"m 5 1077 l 10 1077 l 15 1072 l 15 1056 l 10 1056 l 8 1058 l 5 1058 l 5 1012 l 10 1012 l 10 1006 l 5 1006 l 5 966 l 10 955 l 5 939 l 5 887 l 14 866 l 16 866 q 22 879 16 879 l 24 870 l 22 849 l 27 843 l 24 841 l 22 841 q 8 866 8 852 l 5 866 l 5 773 l 10 765 l 5 765 l 5 759 l 10 759 l 22 784 l 27 784 l 27 781 l 19 768 l 19 765 l 22 768 l 24 768 l 27 765 l 27 762 q 5 719 5 741 l 5 714 l 19 721 l 19 716 l 14 697 l 16 697 l 19 695 l 22 697 l 27 697 l 27 695 q 5 670 20 682 l 8 656 l 8 637 q 27 627 8 627 q 19 621 27 621 l 19 613 l 22 616 l 23 616 l 23 613 q 16 591 23 591 l 16 597 l 19 599 l 19 602 l 13 602 l 13 608 l 19 608 l 10 616 l 5 610 l 5 597 q 19 586 10 586 l 14 578 l 16 575 l 19 578 l 27 578 q 22 564 27 564 l 27 543 q 8 510 10 543 l 5 487 l 16 487 l 16 483 l 5 477 l 10 453 l 14 453 l 19 485 l 16 496 l 27 491 l 27 428 l 22 420 l 27 412 l 27 410 l 24 410 l 22 412 l 19 412 l 16 385 l 19 383 l 16 369 l 16 353 l 21 344 l 21 339 l 16 339 l 16 336 l 27 336 l 27 323 l 22 314 l 22 311 l 27 311 l 27 27 l 38 21 l 43 27 l 75 27 q 80 19 80 27 l 84 19 q 89 27 84 27 l 119 27 l 128 21 q 136 46 128 37 l 128 57 l 130 60 l 130 62 l 128 71 l 130 73 l 133 71 l 141 71 l 144 82 q 128 95 133 82 l 128 100 l 130 103 l 130 105 q 154 97 154 103 l 154 87 l 152 76 l 154 65 l 154 54 l 152 51 l 155 49 l 155 24 l 149 19 l 146 19 l 146 27 l 141 21 l 144 14 l 141 16 l 138 16 q 125 0 136 4 l 86 0 l 84 2 l 80 0 l 48 0 q 40 14 42 0 l 38 14 l 38 11 l 40 2 l 38 0 l 5 0 l 0 5 l 0 1072 l 5 1077 m 122 1077 q 135 1053 135 1070 l 133 1050 l 117 1050 l 100 1075 l 103 1077 l 122 1077 m 214 1077 l 217 1077 l 219 1075 l 222 1077 l 224 1077 l 227 1075 l 230 1077 l 241 1077 l 241 1075 l 232 1066 l 224 1072 l 222 1072 q 206 1050 222 1059 l 201 1056 q 214 1077 208 1075 m 330 1077 q 675 881 577 1077 l 681 881 l 681 879 l 678 870 l 681 868 l 683 868 l 681 866 l 681 863 q 708 757 700 821 l 710 757 l 708 744 l 708 714 l 710 714 l 727 719 l 732 711 l 732 700 l 727 695 l 710 695 l 708 686 l 710 684 l 705 684 l 705 676 l 708 676 l 716 678 l 716 676 l 719 665 q 703 659 719 659 q 618 485 703 595 q 480 404 535 412 l 727 0 l 547 0 q 212 548 212 536 l 363 548 q 423 569 423 548 l 415 572 l 407 569 l 407 572 l 404 581 l 407 581 l 417 583 q 426 572 426 583 l 431 567 l 439 561 q 496 599 475 578 l 491 608 q 539 670 519 608 l 537 670 l 524 667 l 524 670 l 529 678 l 531 676 l 537 676 q 545 711 545 676 l 545 741 q 445 903 545 843 q 326 925 412 916 l 326 941 l 315 933 l 312 933 l 312 941 l 317 941 l 315 944 l 315 947 l 317 950 l 320 950 l 326 944 l 328 947 l 328 950 q 555 822 503 950 q 575 721 575 766 q 426 529 575 580 q 371 521 406 521 l 257 521 l 317 423 l 312 417 l 320 393 l 326 393 l 326 395 l 323 404 l 326 407 l 328 407 q 564 27 547 45 l 681 27 l 437 420 l 437 426 q 577 485 500 426 q 681 729 681 578 q 526 1006 681 900 q 317 1050 445 1050 l 317 1056 q 326 1075 326 1056 l 328 1077 l 330 1077 m 35 1075 l 43 1075 q 56 1066 43 1068 q 67 1056 56 1056 l 61 1050 l 35 1075 m 179 1066 l 184 1066 l 184 1064 l 179 1064 l 179 1066 m 306 1056 l 309 1056 l 309 1050 l 306 1050 l 306 1056 m 24 1018 l 27 1015 l 27 1012 l 16 969 l 8 969 l 8 971 q 24 1018 20 1018 m 149 950 l 162 950 q 173 925 170 950 l 171 923 l 154 923 q 149 939 149 923 l 144 939 l 144 944 l 149 950 m 190 950 l 190 947 l 187 939 l 184 939 l 181 947 l 184 950 l 190 950 m 274 950 l 285 950 l 285 947 l 279 941 l 274 947 l 274 950 m 301 950 l 303 950 l 303 944 l 301 944 l 301 950 m 138 923 l 141 923 l 133 898 l 128 898 l 128 906 l 138 923 m 149 895 l 155 887 l 133 809 l 128 809 l 128 833 l 141 870 l 138 884 q 144 892 144 884 l 146 895 l 149 895 m 760 887 l 765 887 l 765 882 l 760 882 l 760 887 m 746 885 l 751 885 l 754 873 l 746 868 l 741 868 l 741 879 l 746 885 m 760 879 l 765 879 l 765 873 l 760 873 l 760 879 m 132 870 l 132 863 l 128 863 l 128 866 l 132 870 m 732 843 l 735 841 l 738 841 l 751 843 l 751 839 q 732 833 738 839 l 727 833 l 727 836 l 732 843 m 149 809 l 155 803 l 155 795 l 152 798 l 146 798 l 146 795 l 152 795 l 149 792 l 152 790 l 152 787 l 144 752 l 155 752 l 155 746 l 149 729 q 155 721 155 729 q 133 665 133 694 q 146 676 145 670 l 144 678 l 144 681 q 152 697 146 697 l 155 697 l 155 637 l 146 618 l 149 621 l 155 621 l 155 567 l 152 553 l 155 537 l 155 501 l 152 499 l 155 496 l 155 261 l 149 255 l 152 252 l 152 249 l 149 247 l 149 244 l 155 239 l 149 233 l 155 217 l 149 217 l 149 225 l 144 220 q 151 195 151 220 l 149 195 l 152 192 l 152 187 l 146 187 l 146 182 q 155 168 155 182 l 155 144 l 149 138 l 146 147 l 144 147 l 144 133 l 146 130 l 146 128 q 136 111 142 128 l 133 111 l 128 116 l 128 209 l 136 209 l 136 214 q 144 249 136 237 l 141 258 l 144 261 q 130 282 133 261 l 128 292 l 133 300 l 133 344 l 128 353 l 128 383 l 133 383 l 133 385 l 128 395 l 141 404 l 138 407 l 138 410 l 146 426 l 146 428 l 130 414 l 130 426 q 146 445 136 426 l 141 477 q 133 464 133 477 l 128 464 l 128 477 l 130 496 l 128 521 l 128 578 l 133 578 l 133 586 l 128 586 l 128 608 q 138 632 138 608 l 149 656 l 149 662 q 133 621 138 662 l 128 621 l 128 686 l 130 689 l 128 692 l 128 705 l 136 719 l 133 719 l 130 716 l 128 719 l 128 729 q 141 746 134 746 l 136 754 l 141 754 l 128 781 l 133 800 l 138 800 l 138 795 q 144 806 144 795 l 146 809 l 149 809 m 136 790 l 136 784 l 138 784 l 138 790 l 136 790 m 13 790 l 16 790 l 16 784 l 13 784 l 13 790 m 478 765 l 483 765 l 483 752 l 477 752 l 477 754 l 480 757 l 478 759 l 478 765 m 133 752 l 136 752 l 136 749 l 130 744 l 128 744 l 128 746 l 133 752 m 140 744 l 140 730 l 144 730 l 146 744 l 140 744 m 13 733 l 27 733 l 27 727 l 16 724 l 13 727 l 13 733 m 144 727 l 144 719 l 146 719 l 146 727 l 144 727 m 464 721 l 469 721 l 469 719 l 464 719 l 464 721 m 442 692 l 448 692 l 448 689 l 442 689 l 442 692 m 456 676 l 464 673 l 464 670 q 437 659 464 663 l 437 665 q 456 676 443 665 m 423 635 l 429 635 l 429 632 l 423 632 l 423 635 m 5 630 l 5 624 l 8 624 l 8 630 l 5 630 m 401 605 l 403 605 q 412 586 410 605 l 407 586 l 404 594 l 401 592 l 398 592 l 392 597 l 404 599 l 401 602 l 401 605 m 133 564 l 133 556 l 136 556 l 136 564 l 133 564 m 358 567 l 363 567 l 363 561 l 358 561 l 358 567 m 16 556 l 14 548 l 19 548 l 19 556 l 16 556 m 24 534 l 24 532 l 19 526 l 19 529 l 24 534 m 14 513 l 16 513 l 22 507 l 14 499 l 10 499 l 14 513 m 138 494 l 138 488 l 141 488 l 141 494 l 138 494 m 133 488 l 133 483 l 138 483 l 133 488 m 10 448 l 10 440 l 14 440 l 14 448 l 10 448 m 138 377 l 138 372 l 141 372 l 141 377 l 138 377 m 133 361 l 138 361 l 138 366 l 133 361 m 22 366 l 27 366 l 27 358 l 22 358 l 22 366 m 141 353 l 138 333 l 144 328 l 146 330 l 141 341 l 144 344 l 144 353 l 141 353 m 146 347 l 146 339 l 149 339 l 149 347 l 146 347 m 138 323 l 138 314 l 149 303 l 149 311 q 144 320 144 311 l 141 323 l 138 323 m 136 292 l 133 282 l 141 266 l 146 271 l 146 287 l 136 292 m 128 255 l 130 255 l 136 249 l 136 247 l 130 242 l 128 242 l 128 255 m 141 201 q 136 189 141 189 l 136 184 l 141 184 l 146 198 l 144 201 l 141 201 m 136 174 l 144 174 l 144 179 l 141 179 l 136 174 m 138 171 l 138 166 l 141 166 l 141 171 l 138 171 m 19 168 l 19 163 l 22 163 l 22 168 l 19 168 m 78 14 l 78 5 l 84 5 l 84 8 l 78 14 "},"Ż":{"x_min":0,"x_max":0,"ha":848},"ħ":{"x_min":0,"x_max":0,"ha":772},"õ":{"x_min":0,"x_max":0,"ha":772},"─":{"x_min":0,"x_max":0,"ha":984},"˙":{"x_min":0,"x_max":0,"ha":463},"ê":{"x_min":0,"x_max":919,"ha":899,"o":"m 591 875 l 597 875 l 597 872 l 591 872 l 591 875 m 420 872 q 743 734 593 872 l 743 739 l 741 761 l 743 764 l 746 764 l 749 761 l 751 761 l 754 764 l 757 744 l 757 734 l 751 725 l 778 696 q 765 679 775 685 l 762 682 q 722 642 726 642 l 722 639 l 727 639 q 757 661 743 639 l 757 655 l 754 647 l 762 653 l 792 653 l 802 655 l 811 653 q 855 669 841 658 l 855 666 q 813 647 836 647 q 868 422 868 517 q 729 115 868 250 l 697 120 l 697 123 q 841 421 841 252 q 802 601 841 493 l 722 522 q 741 424 741 477 l 741 408 q 566 150 741 251 q 447 123 503 123 q 250 198 348 123 l 250 204 l 741 698 q 415 845 591 845 q 56 598 194 845 q 27 459 27 514 l 27 424 q 241 82 27 230 q 364 39 339 39 l 364 37 l 360 37 l 364 34 l 364 31 l 358 17 l 374 23 l 366 37 l 366 39 l 385 34 l 388 37 l 444 31 l 453 34 l 456 31 l 456 26 l 444 23 l 428 26 l 426 26 q 412 17 426 17 l 401 20 l 401 15 l 409 12 l 412 15 l 414 15 l 426 12 l 426 6 l 409 6 q 383 15 383 6 l 358 15 l 352 20 l 355 23 l 349 23 l 347 15 q 132 131 260 24 q 0 427 0 270 l 0 457 q 192 802 0 647 q 420 872 298 872 m 773 807 l 776 807 l 776 805 l 765 793 l 765 796 q 773 807 769 807 m 800 807 l 805 802 l 802 799 l 800 799 l 800 807 m 919 805 l 919 796 l 914 802 l 916 805 l 919 805 m 705 799 l 711 799 l 711 796 l 705 796 l 705 799 m 770 791 l 776 791 l 776 788 l 770 788 l 770 791 m 873 788 l 876 785 l 876 780 l 868 780 l 868 783 l 873 788 m 895 785 l 901 785 l 901 783 l 895 783 l 895 785 m 735 775 l 743 775 l 743 772 l 738 766 l 735 769 l 735 775 m 833 764 l 836 761 l 836 758 l 800 731 l 800 734 q 833 764 820 764 m 903 761 l 905 761 l 911 755 l 908 753 l 905 753 l 903 755 l 903 761 m 876 742 l 881 736 l 878 734 l 871 734 l 871 736 l 876 742 m 911 731 l 914 731 l 914 725 l 890 709 l 890 712 l 911 731 m 787 712 l 787 706 l 781 701 l 781 706 l 787 712 m 887 706 l 887 704 q 863 682 881 690 l 863 685 l 887 706 m 871 658 l 873 655 l 873 647 l 868 647 l 863 653 l 871 658 m 713 623 l 711 623 l 711 628 l 681 598 l 684 587 l 678 587 l 678 595 l 613 528 q 537 454 607 528 l 537 452 l 553 457 l 553 459 l 566 457 l 575 457 l 586 459 l 594 457 q 640 478 625 461 l 640 473 q 586 443 640 465 l 566 446 q 512 427 512 441 q 436 351 462 386 q 287 204 429 351 q 445 150 371 150 q 684 296 591 150 q 714 421 714 353 q 691 525 714 467 l 673 514 l 673 517 q 738 582 738 570 q 727 587 727 582 q 741 601 738 589 l 743 601 q 749 587 749 601 l 800 639 l 784 642 q 713 623 713 633 m 702 609 l 705 606 l 705 603 l 702 601 l 699 601 l 697 603 l 697 606 l 699 609 l 702 609 m 661 574 l 664 574 l 664 566 l 659 555 l 654 555 l 654 558 q 661 574 656 574 m 686 566 l 688 566 l 694 560 l 691 558 l 688 558 l 686 560 l 686 566 m 654 549 l 664 541 l 662 538 l 662 536 q 651 544 651 540 l 654 546 l 654 549 m 669 511 l 669 508 q 642 481 669 502 l 642 487 l 669 511 m 654 462 l 656 459 l 656 452 l 651 452 l 645 457 l 654 462 m 586 419 l 591 419 l 591 416 l 586 416 l 586 419 m 678 102 l 684 102 l 684 93 l 678 99 l 678 102 m 654 88 l 659 88 l 664 69 q 629 50 642 50 l 626 50 l 623 66 q 629 80 629 66 l 631 80 q 656 72 644 80 l 659 72 l 654 88 m 681 85 l 681 77 l 670 77 l 670 82 l 681 85 m 594 61 l 599 61 l 605 55 q 596 42 601 42 l 594 42 l 594 44 l 597 47 l 597 50 q 586 55 586 50 l 594 61 m 625 974 l 628 974 l 628 968 l 625 968 l 625 974 m 639 974 l 644 974 l 644 968 l 639 968 l 639 974 m 655 962 l 655 960 q 592 952 655 952 l 571 952 l 571 957 l 584 960 l 589 954 l 593 957 l 593 960 l 595 957 l 609 960 l 636 960 l 655 962 m 338 1328 l 343 1328 l 343 1323 l 338 1323 l 338 1328 m 316 1258 l 332 1258 l 338 1252 l 329 1233 q 343 1255 335 1233 l 359 1258 l 392 1258 l 395 1255 l 397 1258 l 399 1258 l 402 1255 l 405 1258 l 454 1258 l 633 948 l 630 946 l 508 946 q 468 999 501 948 l 468 1002 l 471 1005 l 471 1008 q 457 1024 457 1008 q 425 1065 434 1039 q 387 1119 391 1105 l 384 1116 l 381 1108 l 378 1108 l 384 1092 l 381 1089 l 378 1089 l 372 1094 l 369 1092 q 362 1078 362 1092 l 354 1076 l 357 1073 l 357 1068 q 335 1046 345 1068 l 332 1043 l 329 1043 q 324 1057 324 1043 l 321 1057 l 316 1029 l 316 1027 l 319 1024 l 319 1022 q 313 1013 313 1022 l 316 1005 l 311 1005 l 311 1011 l 308 1011 q 262 946 286 972 l 142 946 l 139 948 l 136 948 q 316 1258 306 1247 m 357 1247 q 345 1229 357 1229 q 316 1203 316 1229 l 183 973 l 248 973 l 321 1073 l 324 1065 l 326 1068 l 329 1068 l 324 1081 q 354 1124 354 1118 l 359 1124 l 359 1110 l 365 1110 l 365 1121 q 384 1162 365 1143 l 389 1162 q 419 1119 399 1136 l 435 1094 l 435 1092 q 425 1087 435 1087 q 432 1068 425 1077 l 430 1065 l 430 1061 q 441 1053 441 1061 l 445 1053 l 441 1062 l 441 1065 l 443 1065 l 451 1059 l 454 1062 l 457 1062 l 471 1043 l 457 1040 l 457 1034 l 465 1022 l 462 1013 l 471 1013 l 468 1027 l 468 1034 l 473 1034 l 522 973 l 587 973 l 438 1231 q 411 1236 415 1231 l 402 1231 l 362 1231 q 357 1247 362 1247 m 389 1244 l 395 1239 l 395 1244 l 389 1244 m 367 1239 l 367 1233 l 372 1239 l 367 1239 m 381 1155 l 384 1146 l 392 1146 l 384 1155 l 381 1155 m 199 1152 l 204 1152 q 196 1125 204 1125 l 194 1125 l 194 1127 l 199 1152 m 329 1152 l 332 1149 l 332 1143 l 324 1143 l 324 1146 l 329 1152 m 397 1119 q 411 1097 411 1103 l 416 1097 l 416 1105 q 397 1119 408 1119 m 164 1113 l 169 1108 l 164 1108 l 164 1113 m 443 1051 l 443 1046 l 445 1046 l 448 1049 l 451 1049 l 454 1046 l 457 1049 l 457 1053 l 443 1051 "},"″":{"x_min":0,"x_max":0,"ha":492},"„":{"x_min":0,"x_max":0,"ha":463},"ч":{"x_min":0,"x_max":0,"ha":724},"δ":{"x_min":0,"x_max":0,"ha":773},"Â":{"x_min":0,"x_max":0,"ha":926},"Į":{"x_min":0,"x_max":0,"ha":386},"ω":{"x_min":0,"x_max":0,"ha":1084},"Ţ":{"x_min":0,"x_max":0,"ha":848},"´":{"x_min":0,"x_max":0,"ha":463},"Ĉ":{"x_min":0,"x_max":0,"ha":1003},"И":{"x_min":0,"x_max":0,"ha":998},"⌡":{"x_min":0,"x_max":0,"ha":839},"○":{"x_min":0,"x_max":0,"ha":839},"Љ":{"x_min":0,"x_max":0,"ha":1468},"р":{"x_min":0,"x_max":0,"ha":772},"Ω":{"x_min":0,"x_max":0,"ha":1038},"т":{"x_min":0,"x_max":0,"ha":636},"П":{"x_min":0,"x_max":0,"ha":998},"Ö":{"x_min":0,"x_max":0,"ha":1080},"z":{"x_min":0,"x_max":589,"ha":620,"o":"m 51 828 l 561 828 q 568 801 568 828 l 567 801 l 570 798 l 570 795 l 567 792 l 570 790 l 567 776 l 567 773 l 570 763 l 567 760 l 567 757 l 570 746 l 567 744 l 567 741 l 570 725 l 567 725 l 570 716 l 567 713 l 567 710 l 570 707 q 515 610 570 673 q 499 583 515 604 q 507 566 504 583 l 504 564 l 501 564 l 499 566 l 482 564 l 488 545 q 480 556 481 545 l 477 556 l 198 152 l 583 152 l 589 146 l 589 5 l 583 0 l 5 0 l 0 5 l 0 127 l 328 607 q 336 616 328 616 l 377 675 l 377 678 l 347 678 l 344 675 l 341 678 l 51 678 l 46 683 l 46 822 l 51 828 m 73 801 l 73 705 l 423 705 l 428 699 l 228 409 q 27 111 27 122 l 27 27 l 562 27 l 562 125 l 149 125 l 149 127 l 540 691 l 540 801 l 73 801 m 298 670 l 301 667 l 301 665 l 298 662 l 295 662 l 293 665 l 293 667 l 295 670 l 298 670 m 350 667 l 355 667 l 355 665 l 350 665 l 350 667 m 247 656 l 252 656 l 252 651 l 247 656 m 250 629 l 255 629 l 255 624 l 250 624 l 250 629 m 225 602 l 231 602 l 231 597 l 225 602 m 491 543 l 493 543 l 493 537 l 491 537 l 491 543 "},"™":{"x_min":0,"x_max":0,"ha":1389},"╦":{"x_min":0,"x_max":0,"ha":984},"Θ":{"x_min":0,"x_max":0,"ha":1080},"Ř":{"x_min":0,"x_max":0,"ha":1003},"╖":{"x_min":0,"x_max":0,"ha":984},"Ň":{"x_min":0,"x_max":0,"ha":1003},"É":{"x_min":0,"x_max":0,"ha":926},"и":{"x_min":0,"x_max":0,"ha":776},"³":{"x_min":0,"x_max":0,"ha":463},"♦":{"x_min":0,"x_max":0,"ha":709},"[":{"x_min":-126.8125,"x_max":299,"ha":333,"o":"m 101 1262 l 123 1262 q 134 1238 127 1262 l 131 1235 l 114 1235 q 109 1243 109 1235 l 106 1256 l 101 1256 l 101 1262 m 274 1262 l 293 1262 l 299 1257 l 299 1127 l 293 1121 l 179 1121 q 174 1129 174 1121 q 158 1121 165 1121 l 158 1105 l 153 1083 l 158 1037 l 158 915 l 153 915 l 153 907 l 158 907 l 158 798 l 155 795 l 158 793 l 158 741 l 155 733 l 158 720 l 158 559 l 155 556 l 158 554 l 158 508 l 153 508 q 131 540 153 516 l 134 554 l 131 573 l 134 595 l 131 618 l 136 624 l 131 630 l 131 635 l 141 635 l 141 640 l 131 640 l 131 652 l 134 652 l 136 649 l 139 649 l 147 652 l 147 654 q 131 667 131 654 l 134 670 l 131 684 l 131 697 l 139 697 l 139 700 q 131 705 139 705 l 131 727 q 147 733 131 733 l 142 741 l 134 738 l 131 741 l 131 744 l 136 766 l 131 766 l 131 798 l 139 833 l 136 831 l 131 831 l 131 966 l 134 968 l 131 971 l 131 1025 l 136 1047 l 136 1053 l 131 1061 l 131 1072 l 134 1080 l 131 1094 l 131 1143 l 136 1148 l 141 1148 q 150 1108 150 1148 l 153 1108 l 153 1143 l 158 1148 l 272 1148 l 272 1167 l 277 1167 l 280 1165 l 283 1165 l 283 1167 l 272 1180 l 272 1213 l 283 1229 l 280 1232 l 283 1246 l 283 1257 l 280 1257 l 272 1251 l 269 1251 l 269 1257 l 274 1262 m 58 1259 l 63 1259 l 63 1257 l 60 1249 l 68 1249 l 68 1246 q 58 1238 68 1242 l 54 1240 l 54 1246 l 58 1259 m 71 1259 l 77 1253 l 77 1249 l 71 1253 l 71 1259 m 139 1259 l 144 1259 l 144 1257 l 139 1257 l 139 1259 m 44 1249 l 44 1243 l 38 1243 l 44 1249 m 93 1240 l 98 1240 l 98 1238 l 93 1238 l 93 1240 m 22 1197 l 25 1197 l 30 1191 l 28 1188 l 30 1186 l 28 1186 l 22 1191 l 22 1197 m 12 1194 l 17 1194 l 17 1183 l 12 1183 l 12 1194 m 280 1184 l 280 1178 l 283 1178 l 283 1184 l 280 1184 m 25 1175 l 28 1172 l 28 1169 q 12 1134 21 1167 l 9 1132 l 3 1132 l 3 1140 q 25 1175 21 1175 m 23 1143 l 25 1143 q 30 1134 30 1143 l 28 1127 l 23 1127 l 25 1134 l 23 1143 m 9 1094 l 9 1088 l 6 1086 l 6 1083 l 12 1077 l 9 1075 l 6 1075 l 3 1077 l 3 1088 l 9 1094 m 25 1075 l 28 1072 l 31 1072 q 17 1053 31 1055 l 17 1037 l 14 1037 l 6 1039 l 6 1042 q 25 1075 25 1067 m 25 1034 l 31 1028 l 31 1023 l 28 1023 l 19 1031 l 23 1034 l 25 1034 m 14 1023 l 17 1023 l 17 1018 l 14 1018 l 14 1023 m 12 1015 l 17 1015 l 17 1010 l 12 1010 l 12 1015 m 28 1015 l 30 1012 l 30 1010 l 28 1002 l 30 988 l 30 950 l 9 893 l 9 890 l 12 872 l 17 872 q 24 888 19 888 l 30 888 l 30 869 l 25 869 l 25 877 l 23 877 l 17 847 l 19 836 l 17 839 l 12 839 l 14 828 l 9 812 l 3 812 l 3 896 l 9 953 l 3 953 l 3 968 l 9 1005 l 14 1005 l 9 980 l 25 1005 l 23 1012 l 25 1015 l 28 1015 m 144 955 l 144 953 l 150 953 l 150 955 l 144 955 m 14 947 l 19 947 l 19 953 l 14 947 m 145 947 l 145 876 l 145 855 l 147 860 l 145 888 l 150 939 l 150 947 l 145 947 m 25 860 l 30 860 l 30 855 l 25 855 l 25 860 m 25 850 l 30 850 l 30 831 l 25 831 l 25 850 m 145 847 l 145 844 l 147 833 l 150 833 l 150 844 l 147 847 l 145 847 m 145 828 q 139 808 145 808 l 142 795 l 145 798 l 147 798 l 145 806 l 147 822 l 147 828 l 145 828 m 25 819 l 30 819 l 30 766 l 28 766 l 17 773 l 17 735 l 17 717 l 23 700 l 25 703 l 30 703 l 30 493 l 28 486 l 30 473 l 30 222 q 17 198 30 212 q 3 209 4 203 l 3 239 l 0 255 l 3 269 l 3 274 l -2 282 l -2 285 q 3 299 -2 299 l 0 301 l 3 320 l 3 323 l -2 331 l -2 334 l 3 334 l 3 464 l 6 464 l 9 462 l 12 462 l 12 467 q 3 473 12 473 l 3 773 l 14 793 l 9 793 l 9 798 l 17 806 l 23 806 l 23 793 l 25 793 l 25 819 m 139 790 l 136 773 l 136 771 l 139 771 l 142 787 l 142 790 l 139 790 m 147 720 l 153 720 l 153 725 l 147 720 m 136 714 l 136 711 l 145 703 l 147 703 l 147 705 l 139 714 l 136 714 m 147 649 l 147 644 l 150 644 l 150 649 l 147 649 m 145 633 l 145 627 l 147 627 l 147 633 l 145 633 m 9 600 l 9 595 l 12 595 l 12 600 l 9 600 m 145 554 l 145 548 l 153 545 l 153 554 l 145 554 m 6 540 l 6 538 l 12 538 l 12 540 l 6 540 m 131 527 l 134 527 l 153 502 l 150 499 l 150 497 q 158 486 154 497 l 147 478 l 147 475 l 155 480 l 158 478 l 158 432 l 155 432 l 147 434 l 147 426 l 158 413 l 158 372 q 131 382 131 377 l 131 410 l 136 416 l 139 416 l 142 413 l 145 413 l 145 416 l 131 437 l 131 450 l 136 450 l 136 439 l 142 439 l 131 483 l 131 527 m 142 493 l 142 491 l 147 491 l 147 493 l 142 493 m 9 489 l 9 483 l 12 483 l 12 489 l 9 489 m 19 478 l 19 469 l 25 469 l 25 478 l 19 478 m 136 478 l 136 475 l 142 475 l 142 478 l 136 478 m 163 372 l 171 372 l 166 367 l 163 367 l 163 372 m 123 361 l 131 361 l 125 356 l 123 356 l 123 361 m 155 337 l 158 334 l 158 301 l 153 301 l 150 334 l 153 337 l 155 337 m -26 329 l -18 329 l -18 323 l -26 323 l -26 329 m -4 323 l -2 320 l -10 310 l -10 312 l -13 310 l -16 310 l -21 315 l -21 318 l -4 323 m 134 323 l 139 323 l 139 318 l 134 318 l 134 323 m -67 318 l -59 318 l -59 312 l -67 312 l -67 318 m 112 318 l 120 318 l 114 312 l 112 312 l 112 318 m -56 296 l -56 288 l -59 288 l -64 293 l -62 296 l -56 296 m -97 285 l -97 277 l -100 277 l -105 282 l -102 285 l -97 285 m -37 285 l -35 285 q -18 277 -35 277 l -16 279 l -16 277 l -18 263 q -42 271 -42 266 l -42 279 l -37 285 m -78 274 l -69 274 l -69 269 l -78 269 l -78 274 m -81 255 l -78 253 l -78 249 l -81 247 l -88 247 l -88 253 l -81 255 m -26 255 l -24 253 q -35 244 -24 244 l -37 242 l -40 244 l -40 247 l -42 247 l -48 242 q -32 220 -39 242 l -35 217 l -37 217 q -51 223 -37 223 l -53 225 l -53 228 q -42 252 -53 252 l -26 255 m 9 253 l 9 234 l 12 234 l 14 253 l 9 253 m -69 249 l -64 244 l -69 244 l -69 249 m 142 244 l 147 244 l 147 242 l 142 242 l 142 244 m -108 242 l -108 234 l -111 234 l -116 239 l -113 242 l -108 242 m -62 231 l -56 231 l -56 228 l -62 228 l -62 231 m -121 223 l -118 220 l -116 220 l -118 212 l -121 212 l -126 217 l -121 223 m -64 220 l -61 220 q -48 204 -48 220 l -42 204 l -42 198 l -56 201 l -62 195 l -64 209 l -64 220 m 136 220 l 142 220 l 139 201 l 139 190 q 144 171 139 171 q 153 179 153 171 l 158 179 l 158 -10 l 163 -16 l 196 -16 q 201 -7 196 -7 l 204 -7 l 204 -10 l 201 -13 l 201 -16 l 293 -16 l 299 -21 l 299 -151 l 293 -157 l 187 -157 l 176 -159 l 169 -157 l 160 -162 l 163 -176 q 139 -157 152 -157 l 77 -157 l 66 -159 l 54 -157 l 9 -157 q 3 -138 3 -157 l 0 -138 l 3 -124 l 3 -78 l -2 -78 l -2 -73 l 3 -73 l 3 114 l 0 130 l 3 144 l 3 182 l 9 182 l 9 177 l 17 177 q 23 185 23 177 l 25 188 l 28 188 l 30 174 l 30 -130 l 272 -130 l 272 -43 l 136 -43 l 131 -37 l 131 163 l 134 174 l 131 185 l 131 198 l 134 201 l 131 204 l 131 214 l 136 220 m -21 212 l -18 212 l -18 207 l -21 207 l -21 212 m -24 201 l -24 195 l -37 177 l -37 182 q -24 201 -27 201 m -64 190 l -64 185 l -77 165 l -77 171 q -64 190 -68 190 m -59 188 l -51 185 l -51 182 l -107 81 l -107 87 l -59 188 m -45 168 l -40 168 l -40 165 l -42 158 l -45 158 l -45 168 m -86 158 l -81 158 l -81 155 l -83 147 l -86 147 l -86 158 m -45 125 l -40 125 l -40 122 l -45 122 l -45 125 m -86 117 l -81 112 l -86 112 l -86 117 m -53 106 l -51 106 l -51 101 l -53 101 l -53 106 m -75 98 l -73 95 l -73 92 l -75 90 l -77 90 l -81 92 l -81 95 l -77 98 l -75 98 m -97 95 l -92 95 l -92 90 l -97 90 l -97 95 m -97 71 l -92 71 l -92 68 l -97 68 l -97 71 m -16 71 l -16 68 l -21 62 l -21 65 l -16 71 m -102 52 l -100 49 l -100 46 l -102 44 l -105 44 l -107 46 l -107 49 l -105 52 l -102 52 m -118 30 l -111 30 l -111 27 l -116 21 l -118 24 l -118 30 m -13 -95 l -10 -95 l -10 -100 l -13 -100 l -13 -95 m 71 -171 l 74 -171 l 74 -176 l 71 -176 l 71 -171 m 58 -190 l 60 -190 l 66 -195 l 66 -198 l 63 -198 l 58 -192 l 58 -190 m 169 -206 l 169 -214 l 163 -208 l 166 -206 l 169 -206 m 128 -217 l 128 -225 l 123 -219 l 125 -217 l 128 -217 m 117 -260 l 117 -268 l 112 -262 l 114 -260 l 117 -260 m 106 -282 l 106 -290 l 101 -284 l 103 -282 l 106 -282 "},"ζ":{"x_min":0,"x_max":0,"ha":612},"∏":{"x_min":0,"x_max":0,"ha":1143},"Έ":{"x_min":0,"x_max":0,"ha":1089},"Ρ":{"x_min":0,"x_max":0,"ha":926},"ğ":{"x_min":0,"x_max":0,"ha":772},"ª":{"x_min":0,"x_max":0,"ha":514},"ї":{"x_min":0,"x_max":0,"ha":386},"T":{"x_min":0,"x_max":565,"ha":585,"o":"m 424 1083 l 424 1080 l 426 1083 l 453 1083 l 453 1077 l 559 1077 l 565 1071 l 565 928 l 559 923 l 391 923 l 388 920 l 385 923 l 382 923 l 380 920 l 377 923 l 367 923 l 380 912 l 380 909 l 396 914 l 399 912 l 402 912 l 410 914 l 418 895 l 415 893 l 391 893 l 391 890 l 399 874 l 385 887 l 382 887 l 388 879 l 388 874 l 377 882 l 367 879 l 372 871 l 372 866 q 367 874 367 866 l 363 876 l 361 876 l 361 846 q 369 830 363 830 l 372 830 l 385 838 l 388 836 l 391 836 l 399 838 l 407 820 l 404 820 l 380 817 l 380 814 l 382 805 l 374 811 l 372 811 l 372 805 l 363 811 l 361 811 l 361 805 l 358 787 l 337 787 l 331 792 l 331 944 l 337 950 l 538 950 l 538 1050 l 28 1050 l 28 950 l 225 950 l 231 944 l 231 27 l 309 27 l 315 21 l 315 0 l 209 0 l 204 5 l 204 866 l 201 882 l 204 895 l 204 914 q 193 923 193 914 l 187 923 l 190 920 l 190 917 l 184 912 l 182 912 l 182 923 l 150 923 l 141 920 l 128 923 l 22 923 l 14 928 l 9 928 l 6 925 l 3 925 l 0 928 l 0 930 l 9 939 l 9 936 l 19 939 l 18 947 l 18 996 l 17 996 l 3 993 l 0 996 l 0 1009 l 3 1009 l 6 1007 l 9 1007 l 19 1019 l 19 1058 q 9 1063 9 1058 l 9 1069 l 11 1069 l 14 1066 l 17 1066 q 22 1077 17 1077 l 369 1077 l 424 1083 m 198 923 l 204 917 l 204 923 l 198 923 m 363 914 l 363 909 l 367 909 l 367 914 l 363 914 m 163 909 l 168 909 l 168 901 l 163 901 l 163 909 m 139 882 l 144 882 l 144 874 l 139 874 l 139 882 m 150 882 l 155 882 l 155 876 l 150 876 l 150 882 m 391 871 l 393 871 l 393 866 l 391 866 l 391 871 m 117 857 l 120 855 l 120 849 l 111 852 l 117 857 m 125 855 l 131 855 l 131 849 l 125 855 m 372 805 l 377 800 l 377 797 l 372 803 l 372 805 m 334 768 q 356 749 356 762 q 332 759 332 755 l 332 762 l 334 765 l 334 768 m 334 729 q 358 708 358 720 l 356 708 l 334 727 l 334 729 m 337 673 q 344 657 344 670 l 337 657 l 332 662 l 332 667 l 337 673 m 353 529 l 358 529 l 358 518 l 353 518 l 353 529 m 353 491 l 358 491 l 358 485 l 337 442 q 332 450 337 450 l 332 453 q 353 491 341 463 m 350 428 l 350 423 l 348 420 l 348 418 l 353 412 l 350 410 l 348 410 l 344 412 l 339 391 l 337 391 l 332 396 l 332 399 l 350 428 m 353 388 l 358 388 l 358 382 l 356 380 l 358 377 l 358 372 l 356 372 l 348 374 l 348 372 l 334 358 l 331 366 q 353 388 341 366 m 344 361 l 348 361 l 348 358 l 341 353 l 339 353 l 339 355 l 344 361 m 334 350 l 339 344 l 339 339 l 334 339 l 334 350 m 353 350 l 358 350 l 358 344 l 353 344 l 353 350 m 350 339 l 356 339 l 350 314 l 353 317 l 358 317 l 358 288 l 356 285 l 358 282 l 358 252 q 350 227 350 242 l 350 225 q 358 200 350 210 l 358 178 l 353 167 l 356 165 l 356 162 l 337 108 l 332 108 l 332 148 l 334 181 l 331 184 l 337 189 l 331 195 l 334 195 l 331 197 l 331 205 l 334 208 l 331 211 l 331 244 q 339 282 331 272 l 339 290 l 337 304 q 350 339 346 304 m 331 309 l 337 309 l 337 304 l 331 309 m 339 266 l 339 263 l 344 258 l 348 258 l 348 268 l 353 288 l 350 288 q 339 266 343 288 m 356 138 l 358 138 l 358 5 l 353 0 l 334 0 l 334 2 l 337 5 l 337 8 l 325 10 l 323 8 l 320 10 l 320 21 l 323 24 l 323 27 l 325 24 l 328 24 l 335 27 l 335 72 q 356 127 339 102 l 350 127 l 350 132 l 356 138 "},"š":{"x_min":0,"x_max":0,"ha":694},"є":{"x_min":0,"x_max":0,"ha":709},"Þ":{"x_min":0,"x_max":0,"ha":926},"j":{"x_min":-183,"x_max":248,"ha":198,"o":"m 9 1087 l 153 1087 l 159 1081 l 159 881 l 153 876 l 91 876 l 69 873 l 47 876 l 36 876 l 25 873 l 14 876 l 4 876 l 4 1081 l 9 1087 m 31 1060 l 31 903 l 132 903 l 132 1060 l 31 1060 m -118 965 l -118 962 l -124 957 l -124 959 l -118 965 m -20 946 l -15 946 l -15 941 l -20 941 l -20 946 m -153 936 l -150 936 l -150 930 l -153 930 l -153 936 m -115 933 l -109 927 l -115 922 l -120 922 l -120 927 l -115 933 m -180 924 l -175 924 l -175 922 l -180 922 l -180 924 m -126 925 l -120 919 l -129 916 l -131 919 l -131 922 l -129 925 l -126 925 m -145 922 q -134 905 -134 919 l -136 903 l -134 900 l -134 895 l -142 887 q -150 919 -147 887 l -148 922 l -145 922 m -69 919 l -66 919 l -66 916 l -74 908 l -77 908 l -77 910 l -69 919 m -77 908 l -77 905 l -82 900 l -85 900 l -77 908 m -15 903 l -12 900 l -12 897 l -15 895 l -17 895 l -20 897 l -20 900 l -17 903 l -15 903 m 42 870 l 45 870 l 45 860 l 42 860 l 36 865 l 42 870 m -167 868 l -161 868 l -161 865 l -167 860 l -172 860 l -172 862 l -167 868 m -148 849 l -139 849 l -139 838 l -142 838 l -148 843 l -148 849 m 9 838 l 153 838 l 159 832 l 159 72 l 156 61 l 159 51 l 156 51 l 159 48 l 159 10 q 153 -8 159 -8 l 156 -10 l 156 -35 l 151 -41 l 153 -49 q 137 -127 153 -83 q 169 -113 154 -127 l 169 -116 q 134 -136 169 -124 l 121 -165 l 123 -168 l 80 -206 q -71 -239 40 -239 l -85 -239 l -91 -233 l -91 -209 l -93 -198 l -90 -190 l -96 -190 q -131 -206 -103 -190 l -139 -203 l -145 -209 l -153 -209 l -153 -200 q -90 -181 -151 -190 l -90 -92 l -74 -92 l -61 -89 l -58 -92 l -55 -89 l -55 -92 q 1 -43 1 -92 l 4 -10 l 4 832 l 9 838 m -66 816 l -55 816 l -55 813 l -66 811 l -66 816 m -22 816 l -17 811 l -20 808 l -22 808 l -22 816 m -124 813 l -101 811 l -85 813 l -82 811 l -80 811 l -72 813 l -72 808 q -90 800 -90 804 l -103 803 l -109 803 q -134 794 -132 800 l -136 797 l -142 797 l -161 794 l -161 800 q -139 811 -147 800 l -136 808 l -134 808 l -124 813 m 29 811 l 29 -5 q 4 -102 29 -102 q -64 -119 -18 -119 l -64 -206 l -58 -212 q 102 -144 66 -212 q 132 29 132 -76 l 137 29 l 137 34 l 132 34 l 132 811 l 29 811 m -172 797 l -167 797 l -167 791 l -172 791 l -172 797 m -183 794 l -178 794 l -178 789 l -183 789 l -183 794 m -93 91 l -88 91 l -88 89 l -93 89 l -93 91 m 148 51 l 148 45 l 151 45 l 151 51 l 148 51 m 140 40 l 140 35 l 142 35 l 142 40 l 140 40 m 234 21 l 234 12 l 229 18 l 232 21 l 234 21 m 188 4 l 191 2 l 191 -3 l 183 -3 l 183 0 l 188 4 m 210 2 l 216 2 l 216 0 l 210 0 l 210 2 m -80 -3 l -74 -3 l -74 -5 l -80 -5 l -80 -3 m 218 -22 l 220 -22 l 226 -27 l 223 -30 l 220 -30 l 218 -27 l 218 -22 m -88 -35 l -85 -35 l -85 -41 l -88 -41 l -88 -35 m 191 -41 l 196 -46 l 193 -49 l 186 -49 l 186 -46 l 191 -41 m -61 -46 l -55 -46 l -55 -52 l -58 -54 l -55 -57 l -55 -62 l -61 -62 l -61 -46 m 226 -52 l 229 -52 l 229 -57 l 205 -73 l 205 -71 l 226 -52 m -55 -71 l -53 -71 l -53 -75 l -61 -75 l -55 -71 m 243 -73 l 248 -73 l 248 -84 l 243 -84 l 243 -73 m 202 -75 l 202 -78 q 178 -100 196 -92 l 178 -97 l 202 -75 m 186 -124 l 188 -127 l 188 -136 l 183 -136 l 178 -130 l 186 -124 m -150 -141 l -142 -144 l -142 -152 l -150 -152 l -155 -146 l -150 -141 m -112 -152 l -112 -154 l -118 -160 l -120 -157 l -120 -154 l -118 -152 l -112 -152 m -129 -222 l -124 -222 l -124 -228 l -129 -228 l -129 -222 "},"Σ":{"x_min":0,"x_max":0,"ha":859},"1":{"x_min":0,"x_max":526.140625,"ha":391,"o":"m 307 1194 l 309 1194 l 309 1191 l 298 1180 l 298 1183 l 307 1194 m 334 1191 l 336 1191 l 336 1186 l 334 1186 l 334 1191 m 453 1191 l 453 1183 l 448 1188 l 450 1191 l 453 1191 m 518 1183 l 518 1177 l 512 1177 l 518 1183 m 493 1180 l 498 1175 l 490 1164 l 483 1164 l 477 1169 l 480 1172 l 483 1172 l 485 1169 l 488 1169 q 493 1180 488 1180 m 304 1177 l 309 1177 l 309 1175 l 304 1175 l 304 1177 m 407 1175 l 410 1172 l 410 1166 l 401 1166 l 401 1169 l 407 1175 m 429 1172 l 434 1172 l 434 1169 l 429 1169 l 429 1172 m 138 1166 l 144 1166 l 144 1164 l 138 1164 l 138 1166 m 269 1161 l 276 1161 l 276 1158 l 271 1153 l 269 1156 l 269 1161 m 287 1150 l 290 1123 l 290 1121 l 331 1121 l 355 1145 l 358 1145 l 358 1142 l 339 1121 q 350 1115 350 1121 l 350 1066 l 345 1061 l 328 1061 l 323 1066 l 323 1094 l 27 1094 l 27 1001 l 100 1001 q 105 987 105 1001 l 108 985 l 111 985 q 132 993 132 987 l 128 998 l 128 1001 l 130 1001 l 138 996 l 143 996 q 185 1006 164 996 l 187 1003 l 187 1001 l 179 996 l 179 998 l 149 990 q 160 985 149 985 l 160 982 l 151 974 l 138 985 q 86 963 111 980 l 78 966 l 73 961 l 70 961 l 65 966 l 65 968 l 68 971 l 68 974 l 5 974 l 0 979 l 0 1115 l 5 1121 l 86 1121 l 89 1123 l 92 1121 l 276 1121 l 276 1131 l 274 1145 l 287 1150 m 437 1148 l 439 1148 l 445 1142 l 442 1140 l 439 1140 l 437 1142 l 437 1148 m 515 1134 l 526 1134 l 520 1129 l 515 1134 m 410 1129 l 412 1129 l 412 1121 l 404 1121 l 404 1123 l 410 1129 m 445 1118 l 448 1118 l 448 1112 l 423 1096 l 423 1099 l 445 1118 m 466 1096 l 472 1091 l 472 1088 l 466 1083 l 461 1088 l 461 1091 l 466 1096 m 420 1094 l 420 1091 l 404 1075 l 401 1075 l 420 1094 m 326 1055 l 345 1053 l 350 1053 l 350 1039 q 387 1055 374 1045 l 387 1053 q 339 1028 387 1045 l 339 1025 l 342 1023 l 345 1023 q 326 993 339 997 l 323 996 l 323 1025 l 320 1028 l 323 1031 l 323 1037 l 320 1037 q 279 1023 320 1023 l 277 1023 l 277 1028 l 284 1037 l 287 1034 l 290 1034 l 295 1039 l 334 1039 q 326 1045 334 1045 l 323 1047 l 323 1050 l 326 1053 l 326 1055 m 404 1042 l 407 1042 l 407 1039 l 401 1034 l 399 1034 l 399 1037 l 404 1042 m 211 1034 l 214 1034 l 214 1028 l 206 1028 l 211 1034 m 263 1025 l 263 1020 l 233 1012 l 233 1018 l 263 1025 m 100 1018 l 103 1018 l 103 1012 l 100 1012 l 100 1018 m 483 1018 l 483 1015 l 477 1009 l 475 1009 l 475 1015 l 483 1018 m 225 1015 l 225 1009 l 214 1006 l 214 1012 l 225 1015 m 193 1001 l 206 1001 l 211 996 l 211 942 l 206 942 l 201 947 l 209 961 l 193 1001 m 345 966 l 350 961 l 345 961 l 345 966 m 187 961 l 198 958 l 198 952 l 193 939 l 187 939 l 184 952 l 184 955 l 187 958 l 187 961 m 323 933 q 342 925 342 930 l 342 919 q 323 930 323 923 l 323 933 m 184 917 l 187 917 l 193 911 l 193 908 l 187 903 l 184 903 l 184 917 m 206 903 l 211 903 l 211 895 q 201 887 211 887 l 209 857 q 201 876 202 857 l 198 878 q 190 890 196 890 l 190 892 l 195 897 l 206 895 l 206 903 m 347 890 l 350 881 l 347 873 l 336 876 l 326 873 l 323 876 l 323 878 l 345 881 l 342 884 l 342 887 l 345 890 l 347 890 m 185 887 l 190 887 l 190 876 l 185 876 l 185 887 m 190 868 l 195 868 l 195 865 l 193 857 l 201 857 l 201 855 l 190 846 l 187 849 l 187 855 l 190 868 m 185 830 l 193 830 l 193 825 l 185 825 l 185 830 m 326 825 l 333 825 l 333 822 q 325 801 333 801 l 323 801 l 323 809 l 328 817 l 326 825 m 203 809 l 209 803 l 206 794 l 212 794 l 212 773 q 203 745 212 760 q 212 740 212 745 l 212 694 q 198 662 202 681 l 203 662 l 203 656 l 195 656 l 195 651 l 201 651 l 201 646 l 193 646 l 195 643 l 195 638 l 185 635 l 185 656 l 187 667 l 185 678 l 185 681 q 198 711 198 681 l 201 719 l 198 727 l 195 725 l 193 725 l 195 722 l 195 716 l 187 716 l 187 725 q 206 775 198 736 l 201 801 l 203 809 m 347 795 l 350 795 l 350 5 l 345 0 l 339 0 q 334 11 334 0 l 328 11 l 331 8 l 331 5 l 326 0 l 235 0 q 222 16 222 10 l 217 16 q 208 0 214 0 l 190 0 l 185 5 l 185 21 l 187 33 l 185 43 l 187 43 l 185 45 l 185 48 l 190 65 l 190 70 l 185 78 l 187 86 l 185 89 l 187 92 l 190 92 l 184 141 l 184 144 l 190 144 l 190 138 l 198 138 l 203 149 q 193 157 203 157 l 193 159 l 195 170 l 190 184 l 193 184 q 206 200 206 184 l 198 206 l 195 206 l 195 200 q 190 192 190 200 l 184 192 l 184 293 l 187 295 l 184 298 l 184 317 l 187 320 l 184 323 l 184 326 l 190 333 l 190 336 l 185 336 l 185 393 l 187 396 l 185 399 l 185 401 l 187 426 l 195 421 l 198 421 l 198 456 q 185 502 198 488 l 185 507 l 187 510 l 184 513 l 184 531 q 193 537 184 537 q 203 556 197 556 l 184 608 l 184 630 l 195 632 l 195 605 l 198 608 l 201 608 l 203 605 l 206 605 l 206 610 l 203 630 l 206 630 l 212 624 l 212 597 l 209 597 l 201 602 l 198 602 l 198 599 l 203 583 l 203 575 l 209 575 l 209 564 l 209 455 l 212 450 l 212 445 l 204 445 l 204 404 l 204 399 l 201 399 l 201 415 l 193 418 l 193 415 l 195 382 l 193 371 q 203 396 198 371 l 206 396 l 212 387 l 212 336 q 203 331 212 331 l 203 323 l 206 326 l 212 326 l 212 323 l 206 315 l 198 317 l 198 295 l 210 298 l 210 287 l 210 249 l 210 192 l 210 27 l 246 27 q 276 21 266 27 l 282 27 q 307 11 307 20 l 315 11 l 315 14 l 312 21 l 320 21 l 328 16 l 328 24 l 326 33 l 331 33 l 331 35 l 326 35 l 326 40 l 331 40 l 328 54 l 328 63 l 334 63 l 334 73 l 326 68 l 323 70 l 323 92 l 328 92 l 326 103 l 328 111 l 323 116 l 326 119 l 323 122 l 323 128 l 324 128 l 324 167 l 324 770 q 334 775 324 775 l 347 795 m 195 537 l 193 518 l 195 505 l 201 505 l 203 513 l 201 526 l 201 537 l 195 537 m 198 366 l 201 353 l 203 353 l 203 366 l 198 366 m 190 350 l 190 344 l 195 338 l 195 350 l 190 350 m 195 293 l 198 282 l 190 259 l 192 259 q 206 293 199 259 l 195 293 m 195 241 l 193 208 l 198 208 l 201 241 l 195 241 m 195 197 l 201 197 l 201 192 l 195 197 m 193 14 l 193 8 l 195 8 l 195 14 l 193 14 "},"░":{"x_min":0,"x_max":0,"ha":984},"ℓ":{"x_min":0,"x_max":0,"ha":449},"ĉ":{"x_min":0,"x_max":0,"ha":694},"ī":{"x_min":0,"x_max":0,"ha":386},"О":{"x_min":0,"x_max":0,"ha":1080},"ξ":{"x_min":0,"x_max":0,"ha":622},"Ď":{"x_min":0,"x_max":0,"ha":1003},"&":{"x_min":0,"x_max":976.84375,"ha":1006,"o":"m 366 1161 l 368 1161 q 623 976 538 1161 q 640 884 640 925 q 507 648 640 747 q 496 631 496 643 l 491 631 l 491 637 l 458 616 l 461 613 l 463 613 l 469 619 l 472 619 l 472 613 l 478 613 l 478 619 l 485 619 l 480 602 l 478 602 l 485 594 l 502 611 l 505 611 l 505 608 q 488 593 505 593 l 488 591 l 507 572 l 516 572 l 516 580 l 521 580 l 521 572 l 516 564 l 526 556 l 537 564 l 540 564 l 532 554 l 532 551 l 534 548 l 534 545 l 553 559 l 553 548 q 543 540 543 548 l 551 535 l 551 537 l 548 540 l 548 543 l 553 543 q 588 496 553 524 l 591 499 l 593 499 q 613 474 593 487 l 729 782 l 732 784 l 802 784 q 811 762 811 782 l 805 757 l 748 757 l 626 429 l 621 429 l 412 624 q 518 691 474 657 q 613 881 613 778 q 461 1115 613 1030 q 363 1134 414 1134 q 119 965 193 1134 q 106 879 106 925 q 225 653 106 757 l 225 648 q 68 504 129 609 q 27 347 27 431 q 241 40 27 132 q 336 27 288 27 l 339 27 q 656 247 549 27 l 661 247 l 814 108 l 814 97 l 811 87 l 816 76 l 814 73 l 811 73 q 667 203 790 96 q 344 0 544 0 l 325 0 q 27 203 138 0 q 0 344 0 277 l 0 350 q 179 659 0 536 l 179 662 q 118 730 174 662 q 111 703 118 703 l 111 708 l 116 735 q 79 884 79 800 l 79 887 q 257 1142 79 1059 q 366 1161 305 1161 m 825 784 l 827 782 l 827 776 l 825 776 l 819 782 l 822 784 l 825 784 m 882 784 l 898 784 l 900 782 l 903 782 l 900 771 l 898 771 q 882 779 889 779 l 882 784 m 830 773 l 851 759 l 849 757 l 846 757 q 830 771 835 761 l 830 773 m 879 724 l 879 716 l 873 716 l 873 719 l 879 724 m 860 716 l 865 716 l 865 714 l 860 714 l 860 716 m 863 700 l 868 700 l 868 694 l 863 694 l 863 700 m 512 637 l 512 630 l 509 630 l 505 634 l 507 637 l 512 637 m 493 621 l 499 611 l 488 608 l 488 616 l 493 621 m 524 619 l 529 619 l 529 608 l 526 608 l 524 611 l 521 608 l 516 608 l 516 616 l 518 616 l 521 613 l 524 613 l 524 619 m 540 616 l 545 616 l 545 613 l 540 613 l 540 616 m 543 608 l 548 608 l 548 605 l 543 599 l 543 608 m 524 597 l 529 597 l 529 594 l 524 594 l 524 597 m 556 594 l 562 594 l 562 591 l 556 591 l 556 594 m 586 591 l 586 588 l 583 570 l 578 570 l 578 572 l 581 586 l 578 588 l 586 591 m 526 586 l 529 586 l 532 572 l 526 572 l 526 586 m 794 586 l 800 586 q 811 564 800 570 q 816 575 811 575 l 819 567 l 811 545 l 805 545 l 802 562 l 800 562 l 800 529 l 737 358 q 754 347 747 347 l 754 355 l 756 355 l 762 349 l 756 341 l 797 303 l 802 309 q 838 266 802 288 q 849 258 838 262 q 860 250 849 250 l 860 247 l 854 225 l 857 214 q 822 247 822 238 l 827 252 l 827 260 l 822 266 l 819 263 l 819 260 l 822 247 l 819 247 q 705 352 737 317 l 794 586 m 548 580 l 548 575 l 543 575 l 548 580 m 618 570 l 621 570 l 621 564 l 618 564 l 618 570 m 581 564 l 586 564 l 586 559 l 581 559 l 581 564 m 593 554 l 596 551 l 599 551 l 596 543 l 591 543 l 588 551 l 591 554 l 593 554 m 578 543 l 583 543 l 583 535 l 578 535 l 578 543 m 604 543 l 607 543 l 607 540 q 591 529 607 535 l 591 537 l 604 543 m 588 529 l 588 524 l 583 518 l 575 518 l 570 524 l 570 526 l 588 529 m 583 516 l 583 510 l 578 510 l 583 516 m 871 458 l 876 458 l 876 453 l 871 453 l 871 458 m 808 440 l 811 440 l 811 434 l 802 434 l 808 440 m 794 426 l 786 418 l 778 418 q 794 426 781 426 m 773 418 l 778 418 l 778 412 l 773 412 l 773 418 m 835 393 l 840 393 l 843 377 l 838 377 l 835 393 m 835 385 l 840 366 l 838 366 l 822 368 l 822 371 l 835 385 m 775 364 l 778 364 l 778 358 l 770 358 l 775 364 m 868 239 q 890 198 884 225 l 900 190 l 903 190 l 903 201 l 906 201 l 911 195 l 911 168 l 906 168 l 906 185 l 898 187 l 898 176 l 892 176 l 887 190 l 890 190 q 879 206 883 206 l 879 195 l 876 195 q 863 217 863 201 l 863 219 l 865 233 l 863 236 l 865 239 l 868 239 m 922 185 l 927 185 l 961 155 q 976 138 970 138 l 976 130 l 971 125 l 971 133 l 966 133 l 966 119 q 911 53 954 97 l 911 62 l 900 62 l 903 51 q 879 16 889 20 q 825 65 872 16 q 833 71 825 71 l 833 90 l 835 90 l 876 53 l 900 79 l 903 79 l 906 65 l 914 68 l 914 84 l 909 84 l 909 89 q 930 95 909 95 l 936 100 l 933 103 l 933 105 q 941 119 936 119 l 939 122 l 939 125 l 941 127 l 936 171 l 933 171 q 924 155 927 171 l 919 155 l 914 160 q 922 185 922 170 m 958 136 l 958 125 l 961 125 l 961 136 l 958 136 "},"G":{"x_min":-0.421875,"x_max":1109,"ha":1137,"o":"m 531 1121 l 544 1121 l 555 1107 l 550 1107 l 550 1102 l 555 1102 q 566 1118 555 1112 l 569 1118 l 564 1110 l 564 1107 q 572 1115 572 1107 l 574 1118 l 577 1118 l 580 1115 l 580 1112 l 561 1094 l 533 1094 q 235 990 377 1094 l 233 993 l 230 1001 l 208 998 l 208 1001 q 531 1121 353 1121 m 591 1115 l 596 1115 l 596 1112 q 588 1102 592 1102 l 588 1107 l 591 1115 m 629 1112 l 632 1110 l 632 1107 l 629 1104 l 634 1099 l 634 1094 l 632 1094 l 618 1096 l 618 1091 l 613 1091 l 613 1094 l 629 1112 m 637 1110 l 642 1110 l 642 1099 l 637 1099 l 637 1110 m 653 1110 l 661 1102 q 650 1083 655 1083 l 645 1083 l 637 1091 l 642 1096 l 645 1094 q 653 1110 648 1110 m 594 1104 l 599 1104 l 599 1102 l 594 1102 l 594 1104 m 585 1102 l 591 1096 l 588 1094 l 585 1094 l 585 1102 m 669 1099 q 680 1094 669 1094 l 680 1091 l 667 1077 l 664 1080 l 664 1083 l 667 1085 l 664 1088 l 664 1094 l 669 1099 m 688 1099 l 688 1094 l 691 1094 l 699 1096 l 699 1094 l 702 1096 l 705 1096 q 751 1077 749 1085 l 691 1020 l 689 1020 l 689 1022 q 712 1060 689 1032 l 721 1057 l 721 1060 l 727 1071 l 724 1080 l 721 1080 q 678 1006 678 1048 l 667 996 l 664 996 l 664 1009 l 659 1014 q 702 1068 659 1026 l 697 1074 l 710 1088 l 708 1088 l 691 1071 l 689 1074 l 691 1077 l 691 1085 l 686 1085 q 680 1074 686 1074 l 678 1077 l 678 1082 q 686 1088 678 1088 l 680 1096 l 688 1099 m 670 1028 l 670 1023 l 672 1023 l 672 1028 l 670 1028 m 653 1020 l 659 1020 l 659 1017 l 653 1017 l 653 1020 m 653 1017 l 659 1001 l 656 1001 l 659 998 l 659 987 l 656 987 q 645 1011 650 987 l 653 1017 m 629 996 l 629 990 q 607 955 612 955 l 599 955 l 594 961 l 594 963 l 599 969 l 599 961 l 602 961 l 607 974 l 607 977 l 605 980 l 605 982 q 629 996 615 982 m 525 985 l 547 985 l 564 969 l 566 969 l 569 971 l 580 963 q 558 958 564 963 l 525 958 q 233 814 355 958 l 210 828 q 525 985 335 985 m 590 982 l 596 982 l 596 980 l 582 961 l 580 961 q 590 982 586 982 m 569 980 l 572 980 l 572 974 l 569 974 l 569 980 m 599 980 l 605 980 l 605 977 l 602 969 l 599 969 l 599 980 m 550 971 l 550 966 l 553 966 l 553 971 l 550 971 m 192 971 l 194 971 l 200 966 l 200 963 l 197 963 l 192 969 l 192 971 m 935 950 l 938 950 q 1109 550 1109 768 q 832 73 1109 257 q 563 0 708 0 q 401 21 496 0 l 401 18 l 398 10 l 393 10 l 396 24 l 396 27 l 330 49 l 320 49 l 292 32 l 284 35 l 279 30 l 276 30 l 271 35 l 271 38 q 320 54 290 54 l 320 56 q 154 176 261 77 l 127 206 l 108 236 l 111 239 q 94 252 99 239 l 100 258 l 102 255 l 105 269 q 97 276 105 276 l 97 279 l 102 285 l 105 285 q 235 141 115 247 q 563 27 384 27 q 1011 290 837 27 q 1082 548 1082 415 q 938 912 1082 738 l 935 912 q 715 697 720 697 l 712 700 l 715 708 l 708 708 l 708 695 q 683 662 708 680 l 683 658 l 678 658 l 678 692 l 721 735 l 724 735 l 721 732 l 721 722 l 727 722 l 727 724 l 724 732 l 732 727 l 735 727 l 735 730 l 727 741 l 732 746 l 735 746 l 735 741 q 740 752 740 741 l 748 752 l 748 754 l 745 757 q 935 950 745 764 m 140 917 l 154 917 l 154 914 l 148 909 l 127 909 l 127 914 l 140 917 m 97 882 l 100 882 l 100 876 l 97 876 l 97 882 m 102 874 l 111 874 l 111 868 l 102 868 l 102 874 m 86 863 l 92 828 l 78 801 l 73 801 l 67 830 q 84 844 73 830 l 78 860 l 81 863 l 86 863 m 94 849 l 103 849 l 103 844 l 94 844 l 94 849 m 230 828 l 230 822 l 233 822 l 233 828 l 230 828 m 205 819 q 230 806 230 814 q 151 575 151 708 q 377 209 151 345 q 517 162 422 179 l 520 166 l 523 166 l 544 161 l 579 161 l 626 161 q 650 187 626 171 l 653 187 l 653 181 l 650 179 q 632 166 632 170 l 634 166 q 748 200 657 166 l 748 195 l 759 195 q 765 203 765 195 q 778 212 778 206 l 770 212 l 770 214 q 786 220 770 220 q 794 233 786 233 l 797 233 l 797 227 l 792 227 l 792 224 l 813 224 l 813 220 l 792 217 l 792 214 l 797 214 l 797 211 q 789 206 797 206 l 792 203 l 792 200 l 789 198 l 786 198 l 778 203 l 772 203 l 770 195 l 783 195 q 577 133 693 133 l 558 133 q 181 358 337 133 q 124 577 124 461 q 205 819 124 715 m 43 787 l 43 776 l 24 735 l 21 735 q 43 787 36 787 m 67 787 l 67 779 l 62 779 l 62 781 l 67 787 m 53 776 l 59 776 l 57 773 l 57 770 l 62 764 l 59 762 l 53 762 l 53 776 m 43 762 q 54 754 54 758 l 40 749 l 37 752 l 43 762 m 913 762 q 979 550 979 666 l 979 539 q 832 231 979 352 l 829 233 l 826 231 l 824 231 l 816 239 l 816 241 q 837 249 816 247 l 846 266 l 837 266 l 837 271 l 840 271 l 843 269 l 846 269 q 859 290 846 284 l 865 290 l 865 285 l 870 285 l 862 295 q 952 540 952 404 l 952 548 q 911 719 952 629 q 770 583 774 583 l 767 575 l 751 575 q 732 548 751 551 l 715 567 l 718 570 l 721 570 l 724 567 l 727 567 l 727 573 q 743 564 743 573 l 746 564 l 746 567 l 743 570 l 743 573 l 746 581 l 740 581 l 743 594 l 746 594 l 754 589 l 754 591 l 751 602 l 913 762 m 746 744 q 751 735 751 744 l 754 735 l 754 741 l 751 749 l 746 744 m 51 749 l 51 744 l 48 730 l 43 730 l 37 744 l 51 749 m 32 719 q 40 714 32 714 l 40 705 l 32 695 l 34 692 l 37 692 l 34 676 l 29 676 l 26 702 l 26 714 l 32 719 m 18 714 l 21 714 l 15 697 l 21 697 l 21 692 l 13 692 l 13 686 l 19 686 l 19 681 l 10 681 l 13 678 l 13 673 l 5 673 q 18 714 11 714 m 686 695 l 683 676 l 689 670 l 691 673 l 686 684 l 689 686 l 689 695 l 686 695 m 691 689 l 691 681 l 694 681 l 694 689 l 691 689 m 669 684 l 672 684 l 672 659 l 667 659 l 667 667 l 661 667 l 664 665 l 664 643 l 656 635 l 656 659 q 645 621 650 659 l 484 461 l 550 399 q 577 423 558 412 q 626 474 577 431 l 629 467 l 645 467 l 645 480 l 642 493 q 686 529 669 521 l 691 543 l 697 543 l 697 540 l 694 537 l 694 534 l 702 534 l 699 548 l 710 558 l 727 545 l 724 543 l 727 540 l 727 537 l 718 529 l 710 534 l 708 531 l 708 529 l 712 529 l 712 523 l 710 523 l 702 529 l 702 523 l 697 523 l 697 529 l 691 529 l 691 523 q 702 510 702 523 l 550 360 l 450 461 l 450 464 q 613 624 606 624 q 669 684 613 631 m 10 667 l 13 667 l 13 651 l 24 600 l 19 600 l 5 638 l 0 638 q 10 667 2 667 m 21 665 l 24 665 l 29 659 l 29 649 l 24 649 l 21 662 l 21 665 m 21 640 l 26 640 l 26 635 l 21 635 l 21 640 m 602 613 l 602 610 l 607 610 l 607 613 l 602 613 m 758 591 l 758 586 l 765 586 l 758 591 m 582 589 l 582 583 l 588 578 l 588 583 l 582 589 m 19 589 l 24 578 l 24 556 l 19 556 l 19 573 l 13 573 q 8 556 13 556 l 5 558 l 5 567 l 15 589 l 19 589 m 754 586 l 754 581 l 756 581 l 756 586 l 754 586 m 8 551 l 13 551 l 13 540 l 19 540 l 19 545 l 24 540 l 24 493 l 29 485 l 29 480 l 22 480 l 22 440 l 22 434 l 19 434 l 19 450 l 8 453 l 8 456 l 15 456 l 15 491 q 8 529 15 518 l 10 540 l 8 551 m 680 515 l 689 515 l 689 521 l 686 521 l 680 515 m 683 513 l 683 507 l 686 507 l 686 513 l 683 513 m 629 461 l 629 458 l 640 456 l 642 458 l 642 461 l 629 461 m 32 440 l 37 440 l 40 426 q 29 410 34 426 l 34 388 l 32 386 l 28 386 q 19 420 19 386 l 19 426 l 21 429 l 21 431 l 24 429 l 32 429 l 32 440 m 48 399 l 51 396 q 39 380 45 380 l 37 380 l 37 386 l 48 399 m 48 383 l 57 383 l 65 358 l 56 358 l 56 356 q 73 336 66 356 q 61 304 69 304 l 59 304 l 54 317 l 57 320 l 62 320 l 62 315 l 65 315 l 65 317 l 62 320 l 62 322 l 65 331 l 62 331 q 40 353 40 336 l 43 350 l 45 350 l 45 356 l 40 356 l 40 360 l 46 366 l 48 366 l 46 368 l 46 371 l 48 383 m 56 341 l 56 336 l 62 341 l 56 341 m 73 301 l 76 298 l 76 290 l 70 290 l 67 298 l 70 301 l 73 301 m 512 263 l 515 263 l 515 261 l 504 249 l 504 252 q 512 263 508 263 m 539 261 l 542 261 l 542 255 l 539 255 l 539 261 m 659 261 l 659 252 l 653 258 l 656 261 l 659 261 m 724 252 l 724 247 l 718 247 l 724 252 m 699 249 l 705 244 l 697 233 l 689 233 l 683 239 l 686 241 l 689 241 l 691 239 l 694 239 q 699 249 694 249 m 510 247 l 515 247 l 515 244 l 510 244 l 510 247 m 613 244 l 615 241 l 615 236 l 607 236 l 607 239 l 613 244 m 634 241 l 640 241 l 640 239 l 634 239 l 634 241 m 344 236 l 350 236 l 350 233 l 344 233 l 344 236 m 474 231 l 482 231 l 482 227 l 476 222 l 474 224 l 474 231 m 493 220 l 496 192 l 496 189 l 487 181 q 479 214 482 181 l 493 220 m 642 217 l 645 217 l 650 212 l 647 209 l 645 209 l 642 212 l 642 217 m 561 214 l 564 214 l 564 212 l 539 187 l 539 189 l 561 214 m 781 212 l 781 209 l 786 209 l 786 212 l 781 212 m 721 204 l 732 204 l 727 198 l 721 204 m 615 198 l 618 198 l 618 189 l 610 189 l 610 192 l 615 198 "},"ΰ":{"x_min":0,"x_max":0,"ha":760},"`":{"x_min":0,"x_max":0,"ha":463},"╔":{"x_min":0,"x_max":0,"ha":984},"ŏ":{"x_min":0,"x_max":0,"ha":772},"ý":{"x_min":0,"x_max":0,"ha":694},"º":{"x_min":0,"x_max":0,"ha":507},"╝":{"x_min":0,"x_max":0,"ha":984},"∞":{"x_min":0,"x_max":0,"ha":990},"ź":{"x_min":0,"x_max":0,"ha":694},"я":{"x_min":0,"x_max":0,"ha":752},"Ё":{"x_min":0,"x_max":0,"ha":927},"█":{"x_min":0,"x_max":0,"ha":984},"ń":{"x_min":0,"x_max":0,"ha":772},"Г":{"x_min":0,"x_max":0,"ha":752},"Ь":{"x_min":0,"x_max":0,"ha":911},"¤":{"x_min":0,"x_max":0,"ha":772},"Ĝ":{"x_min":0,"x_max":0,"ha":1080},"p":{"x_min":-106.21875,"x_max":978,"ha":878,"o":"m 382 827 l 401 827 q 412 816 401 816 q 425 827 413 822 q 433 821 425 821 l 436 824 l 439 824 l 446 822 l 452 827 l 452 824 q 439 819 452 819 l 439 816 l 452 811 l 452 808 l 414 803 l 414 808 l 409 808 l 409 803 l 406 803 l 351 797 l 332 800 q 324 792 324 800 l 319 792 l 319 797 l 314 797 l 317 794 l 317 792 l 251 765 q 134 663 174 726 l 129 663 l 129 786 l 32 786 l 32 281 l 29 278 l 32 276 l 32 178 l 29 156 l 32 126 l 32 -236 l 129 -236 l 129 -173 l 132 -171 l 129 -168 l 129 -97 l 134 -97 l 134 -92 l 129 -92 l 129 -54 l 134 -49 l 129 -32 l 129 -24 q 140 -19 129 -19 l 140 -14 l 134 -14 q 126 0 132 0 q 148 21 128 21 l 151 21 l 159 16 l 165 16 l 167 18 l 170 18 l 173 16 l 173 13 l 156 7 l 159 -16 l 156 -27 l 170 -22 l 170 -27 q 156 -41 156 -27 l 151 -41 l 151 -35 l 148 -35 l 146 -38 l 143 -38 q 151 -46 143 -46 l 154 -49 l 154 -52 l 148 -57 l 148 -62 l 156 -62 l 156 -257 l 151 -263 l 10 -263 l 5 -257 l 5 -13 q 15 -8 5 -8 l 13 -5 l 13 -3 l 10 -5 l 5 -5 l 5 75 l 2 89 l 5 105 l 5 216 l 2 224 l 5 238 l 5 365 l 7 373 l 5 387 l 5 808 l 10 813 l 151 813 l 156 808 l 156 735 q 348 824 249 807 l 357 822 q 346 813 357 813 l 346 810 q 373 805 373 810 l 387 808 l 387 811 q 371 822 371 811 l 373 822 l 382 827 m 463 827 l 466 827 l 471 822 l 484 824 q 544 805 544 816 l 542 803 l 551 797 l 551 792 l 547 792 l 544 794 l 542 794 l 539 786 q 496 800 496 793 l 498 803 l 496 805 l 493 805 q 487 797 493 797 l 474 797 l 474 799 q 487 816 474 813 l 487 819 l 484 822 l 463 816 l 457 822 l 463 827 m 417 819 l 417 816 l 422 816 l 422 819 l 417 819 m 401 813 l 401 808 l 403 808 l 403 813 l 401 813 m 525 803 l 525 800 l 539 800 l 539 805 l 525 803 m 566 803 l 569 800 l 569 797 l 572 800 l 574 800 l 577 797 l 580 797 l 582 800 l 585 792 l 587 792 l 590 794 l 593 794 l 596 792 l 596 786 l 585 786 l 582 789 l 580 786 l 574 786 l 574 794 l 553 784 l 553 786 l 566 803 m 289 792 l 289 789 l 303 789 l 303 792 l 289 792 m 264 784 l 264 778 l 268 778 l 268 784 l 264 784 m 596 784 l 601 778 l 598 775 l 601 775 l 604 778 l 607 778 l 612 772 l 612 775 l 609 778 l 609 781 l 612 784 l 615 784 q 712 716 663 764 l 742 686 l 736 680 l 733 683 q 722 678 733 678 l 722 672 l 751 678 l 758 661 l 736 650 q 620 751 674 724 q 601 765 601 760 l 604 767 l 601 767 l 598 765 l 596 765 q 580 775 580 770 l 580 781 q 585 772 585 781 q 596 784 596 777 m 652 754 l 652 748 l 658 754 l 652 754 m 766 648 l 769 648 q 780 629 777 648 l 777 626 l 775 626 q 766 637 775 637 l 761 637 l 761 642 l 766 648 m 975 645 l 978 642 l 978 639 l 975 637 l 973 637 l 970 639 l 970 642 l 973 645 l 975 645 m 756 632 l 758 632 l 758 626 l 756 626 l 756 632 m 791 613 q 802 596 802 607 l 799 588 l 805 588 l 805 582 l 799 582 l 799 571 l 813 574 l 829 531 q 821 523 829 523 q 843 458 843 512 q 848 392 848 458 q 751 113 848 237 l 725 121 l 772 194 q 821 398 821 286 q 805 520 821 449 l 807 528 q 797 542 797 528 l 799 545 q 788 563 795 545 l 794 571 l 788 588 l 791 591 q 766 610 773 591 l 769 613 l 791 613 m 973 591 l 978 591 l 978 583 l 973 583 l 973 591 m 816 518 l 816 515 l 821 515 l 821 518 l 816 518 m 18 343 l 18 338 l 23 343 l 18 343 m -61 167 l -55 167 l -55 165 l -61 165 l -61 167 m 132 129 l 140 121 l 134 116 l 151 113 l 151 102 l 137 94 q 129 110 131 94 l 132 119 l 126 124 l 132 129 m 83 126 l 89 121 l 89 119 l 83 113 l 78 119 l 78 121 l 83 126 m 745 124 l 745 121 l 751 121 l 751 124 l 745 124 m 113 124 l 115 124 l 115 119 l 113 119 l 113 124 m 725 116 l 728 116 l 734 110 l 734 108 l 717 108 l 725 116 m 165 102 q 173 91 169 102 l 170 89 l 165 89 l 165 102 m 722 102 l 725 99 l 728 102 l 734 102 l 734 99 l 706 72 l 701 78 l 714 91 l 712 94 l 722 102 m 696 94 l 701 89 l 693 78 l 685 80 l 683 78 l 680 80 l 680 83 l 683 86 l 685 86 l 688 83 l 691 83 q 696 94 691 94 m 145 89 l 148 89 l 148 75 q 154 84 154 75 l 159 84 l 162 81 l 165 81 l 165 83 q 173 70 173 83 l 183 70 l 176 59 l 181 54 l 186 54 l 183 56 l 183 67 l 197 70 l 200 67 l 203 67 q 238 86 238 73 l 243 86 l 240 83 l 240 78 l 243 80 l 246 80 q 281 62 257 80 l 279 59 l 281 59 l 283 62 l 286 62 q 303 48 297 48 l 305 51 l 308 51 q 327 43 327 47 l 317 37 l 305 40 q 300 32 305 32 l 298 32 l 298 34 l 300 37 l 300 40 q 276 32 276 36 l 268 34 l 227 26 l 227 24 l 248 24 q 238 18 248 18 l 238 16 l 248 16 l 259 24 l 264 24 l 273 18 l 276 21 l 278 21 q 311 13 278 13 l 314 10 l 314 4 l 303 4 l 303 2 l 311 2 l 314 5 l 317 5 q 430 -11 369 -5 l 441 -8 l 441 -11 l 463 -5 l 479 -5 l 479 -11 l 482 -11 l 482 -3 l 493 -3 q 517 5 512 -3 l 520 2 l 550 10 l 566 5 l 577 16 l 577 10 l 580 10 l 587 16 l 590 13 l 593 13 l 601 16 l 601 10 q 590 2 590 10 l 596 2 l 596 -3 q 444 -35 498 -35 l 441 -32 l 441 -30 l 422 -32 q 281 0 281 -32 l 283 2 l 281 2 l 276 -3 l 279 -11 l 276 -11 l 262 -3 l 241 -8 l 241 -3 q 249 2 249 -3 l 224 13 l 219 7 l 216 7 l 216 13 l 222 13 l 222 16 l 208 21 l 208 24 l 211 26 l 211 29 l 183 34 l 181 32 l 181 29 l 183 27 l 178 27 l 178 32 l 126 18 l 124 21 l 124 24 l 129 40 l 126 43 l 132 64 q 121 70 121 64 q 145 89 145 74 m 132 86 l 137 86 l 137 83 l 132 83 l 132 86 m 607 86 l 612 86 l 612 80 l 607 80 l 607 86 m 631 86 l 637 86 l 637 83 l 631 83 l 631 86 m 213 83 l 205 75 l 202 75 l 202 80 l 213 83 m 81 75 l 86 75 l 86 72 l 81 72 l 81 75 m 143 72 l 143 70 l 151 67 l 151 72 l 143 72 m 216 62 l 213 64 l 208 64 l 205 62 l 203 62 l 205 53 l 210 53 q 216 62 216 53 l 219 59 l 232 59 l 238 64 l 238 67 l 235 67 q 216 62 216 67 m 154 62 l 154 59 l 159 59 l 159 62 l 154 62 m 56 62 l 58 62 l 58 56 l 56 56 l 56 62 m 192 59 l 192 54 l 200 56 l 200 59 l 192 59 m 558 59 l 561 59 l 561 56 l 553 48 l 550 48 l 550 51 l 558 59 m 683 59 l 685 59 l 685 54 l 683 54 l 683 59 m 143 54 l 143 51 l 148 51 l 148 54 l 143 54 m 156 48 l 156 43 l 170 45 l 170 51 l 156 48 m 213 51 l 213 48 l 224 48 l 224 51 l 213 51 m 208 37 l 208 34 l 222 29 q 270 51 270 40 l 268 51 q 208 37 208 42 m 273 51 l 273 45 l 279 51 l 273 51 m 192 48 l 192 43 l 194 43 l 194 48 l 192 48 m 205 48 l 205 45 l 211 45 l 211 48 l 205 48 m 550 48 l 550 45 l 544 40 l 544 43 l 550 48 m 173 43 l 173 37 l 176 37 l 189 40 l 189 43 l 186 43 l 176 40 l 173 43 m 484 43 l 490 37 l 490 32 l 484 26 l 479 32 l 479 37 l 484 43 m 612 43 l 615 40 l 615 37 l 612 35 l 609 35 l 607 37 l 607 40 l 609 43 l 612 43 m 194 37 l 194 34 l 200 34 l 200 37 l 194 37 m 227 40 l 232 40 l 232 34 l 227 34 l 227 40 m 118 37 l 124 37 l 124 32 l 118 37 m 428 37 l 433 37 l 433 34 l 428 34 l 428 37 m 648 37 l 655 37 l 655 32 q 648 24 648 32 l 645 21 l 637 21 l 642 29 l 639 32 l 648 37 m 395 34 l 395 29 l 389 29 l 395 34 m 80 32 l 80 27 q 56 18 68 27 l 53 21 l 53 24 l 59 29 l 59 26 l 80 32 m 137 29 l 137 27 l 143 27 l 143 29 l 137 29 m 607 32 l 612 26 l 607 26 l 607 32 m -28 26 l -14 26 l -11 24 l -9 24 l -6 26 l -6 21 l -28 21 l -28 26 m 108 26 l 113 21 l 108 21 l 108 26 m 382 26 l 387 26 l 387 24 l 382 24 l 382 26 m 197 24 l 200 24 l 200 18 l 197 18 l 197 24 m 628 21 l 637 21 l 631 16 l 628 16 l 628 21 m 178 18 l 181 18 l 181 13 l 178 13 l 178 18 m 329 18 l 332 16 l 335 16 l 338 18 l 340 18 l 348 16 l 338 5 q 322 13 338 13 q 329 18 322 18 m 406 18 l 412 18 l 412 13 l 406 18 m 251 10 l 254 2 l 262 10 l 262 13 l 256 13 l 254 10 l 251 10 m 135 10 l 135 7 l 143 7 l 143 10 l 135 10 m 668 10 l 671 10 l 671 0 l 668 0 l 663 5 l 668 10 m 183 7 l 203 5 l 197 0 l 178 0 l 178 2 l 183 7 m 542 5 l 542 2 l 553 0 l 553 5 l 542 5 m 566 0 l 572 0 l 572 5 l 566 0 m -22 5 l -14 5 l -14 0 l -16 0 l -19 2 l -22 0 l -28 0 l -22 5 m 530 -8 l 533 -11 l 539 -11 l 542 0 l 539 0 l 530 -8 m 515 -3 l 515 -5 l 520 -5 l 520 -3 l 515 -3 m 558 -8 l 569 -8 l 563 -3 l 558 -8 m -50 -5 l -50 -11 l -62 -14 l -62 -8 l -50 -5 m 230 -5 l 230 -11 l 219 -14 l 219 -8 l 230 -5 m -69 -11 l -69 -16 q -103 -30 -86 -18 l -106 -30 l -106 -21 q -69 -11 -106 -16 m 143 -16 l 143 -22 l 148 -16 l 143 -16 m 200 -14 l 202 -14 l 202 -19 l 200 -19 l 200 -14 m 425 -16 l 430 -22 l 433 -19 l 433 -16 l 425 -16 m 490 -16 l 487 -19 l 487 -22 l 490 -22 l 498 -19 l 498 -16 l 490 -16 m 183 -16 l 192 -16 l 192 -22 l 178 -24 l 178 -22 l 183 -16 m 471 -19 l 471 -24 l 476 -19 l 471 -19 m 148 -22 l 148 -27 l 151 -27 l 151 -22 l 148 -22 m 222 -24 l 227 -24 l 227 -27 l 222 -27 l 222 -24 m 181 -30 l 181 -40 l 176 -40 l 176 -35 l 181 -30 m -4 -41 l -4 -49 l -9 -49 l -9 -46 l -4 -41 m 561 -43 l 572 -43 l 572 -46 l 561 -49 l 561 -43 m 604 -43 l 609 -49 l 607 -52 l 604 -52 l 604 -43 m 80 -46 l 83 -46 l 83 -54 l 80 -54 l 80 -46 m 503 -46 l 525 -49 l 544 -46 l 544 -49 l 547 -46 l 555 -46 l 555 -52 q 536 -60 536 -55 l 522 -57 l 517 -57 l 466 -65 l 466 -60 q 487 -49 479 -60 l 490 -52 l 493 -52 l 503 -46 m 414 -52 l 417 -52 l 417 -57 l 414 -57 l 414 -52 m 273 -60 l 279 -65 l 279 -68 l 270 -68 l 264 -62 l 268 -60 l 273 -60 m 373 -59 l 387 -59 l 389 -62 l 392 -62 l 395 -60 l 395 -65 l 373 -65 l 373 -59 m 203 -62 l 203 -71 l 197 -71 l 197 -67 l 203 -62 m 455 -62 l 460 -62 l 460 -67 l 455 -67 l 455 -62 m 444 -65 l 449 -65 l 449 -70 l 444 -70 l 444 -65 m 135 -76 l 135 -81 l 137 -81 l 137 -76 l 135 -76 m 379 -81 l 387 -81 l 387 -87 l 384 -87 l 382 -83 l 379 -86 l 373 -86 l 379 -81 m 338 -95 l 343 -95 l 343 -100 l 338 -100 l 338 -95 m 332 -97 l 332 -103 q 295 -119 311 -105 l 281 -116 l 270 -124 l 268 -121 l 268 -116 q 332 -97 282 -105 m 397 -127 l 397 -135 l 392 -135 l 392 -132 l 397 -127 m 135 -165 l 135 -168 l 140 -168 l 140 -165 l 135 -165 m 146 -171 l 146 -173 l 151 -173 l 151 -171 l 146 -171 "},"│":{"x_min":0,"x_max":0,"ha":868},"Ю":{"x_min":0,"x_max":0,"ha":1403},"ο":{"x_min":0,"x_max":0,"ha":772},"S":{"x_min":-66,"x_max":637,"ha":663,"o":"m 251 1155 l 256 1150 q 240 1142 254 1142 l 235 1142 l 251 1155 m 330 1155 l 330 1153 l 324 1147 l 319 1153 l 321 1155 l 330 1155 m 335 1118 q 482 1077 423 1118 l 493 1044 l 493 1042 l 490 1042 q 327 1091 423 1091 q 69 906 140 1091 q 56 811 56 851 q 284 553 56 621 q 465 453 389 526 q 498 388 498 410 l 495 388 l 495 379 l 493 369 l 498 358 l 493 352 l 493 330 l 506 312 q 384 144 506 198 q 313 134 356 134 q 134 277 183 134 l 126 342 l 34 342 l 31 339 l 29 339 q 188 54 29 147 q 313 27 254 27 q 545 136 453 27 q 585 193 573 189 l 591 198 l 591 201 l 585 211 l 596 252 l 601 252 q 612 228 601 240 l 612 225 l 604 217 l 607 203 l 607 198 q 566 136 585 136 q 430 18 566 86 q 313 0 359 0 q 18 228 96 0 q 2 366 2 285 l 4 369 l 148 369 q 153 360 153 369 q 249 174 153 220 q 316 161 277 161 q 468 263 427 161 q 482 339 476 276 q 219 548 482 475 q 29 814 29 625 q 204 1096 29 1007 q 335 1118 267 1118 m 512 1056 q 539 1031 519 1056 l 536 1031 l 512 1053 l 512 1056 m 555 1004 l 558 1004 l 566 996 l 566 993 l 561 993 l 555 998 l 555 1004 m 542 998 l 547 998 l 547 996 l 542 996 l 542 998 m 316 993 l 343 993 q 482 879 443 993 l 493 825 l 487 825 l 484 844 l 482 844 l 482 797 l 476 792 l 473 792 q 454 879 470 792 q 343 966 417 966 l 322 966 q 219 917 258 966 l 219 914 l 235 920 l 242 906 q 256 920 250 908 l 264 917 l 264 911 q 227 898 237 898 l 227 904 l 215 904 l 215 892 l 213 895 l 210 895 q 192 863 192 883 q 227 805 204 849 l 235 797 l 261 808 l 267 803 l 267 797 l 261 792 l 242 792 l 242 784 l 237 789 l 224 787 l 219 787 q 227 792 219 792 l 230 795 l 230 797 l 202 836 l 204 838 l 194 846 l 191 844 l 188 846 l 186 838 l 188 819 l 186 817 l 186 814 l 188 803 l 186 795 q 196 781 196 793 l 204 781 l 202 778 l 202 773 q 215 745 215 755 l 221 745 l 230 752 l 235 752 l 242 744 l 242 741 q 230 736 242 736 l 230 733 l 233 730 l 233 727 l 259 738 l 265 730 l 265 727 l 259 721 l 240 721 l 240 713 q 438 640 293 686 q 496 605 484 620 l 509 605 l 509 599 l 496 599 l 496 594 l 501 594 l 501 586 l 496 581 l 493 581 l 490 594 l 476 592 q 265 670 428 616 q 159 808 159 718 l 159 832 q 276 987 159 939 l 316 993 m 545 982 l 550 982 l 550 977 l 545 977 l 545 982 m 569 982 l 579 963 l 577 955 l 572 955 l 569 982 m 582 949 l 593 942 l 591 939 l 588 939 l 596 909 q 588 928 590 909 l 585 931 q 577 942 583 942 l 577 944 l 582 949 m 566 939 l 577 939 l 577 936 l 574 923 l 569 923 l 566 936 l 566 939 m 271 920 l 276 920 l 276 914 l 271 914 l 271 920 m 577 920 l 582 920 l 582 917 l 579 909 l 588 909 l 588 906 l 582 901 l 579 901 l 574 906 l 577 920 m 281 906 l 284 904 l 284 901 l 278 895 l 273 901 l 281 906 m 292 906 l 297 906 l 297 901 l 292 901 l 292 906 m 601 890 l 607 890 l 610 879 l 604 849 l 609 849 l 609 844 q 591 798 603 839 l 599 798 l 610 836 l 614 836 l 614 814 q 607 792 614 794 l 591 792 l 585 797 l 593 827 l 588 852 l 591 860 l 596 854 l 593 846 l 599 852 l 599 860 l 596 863 l 596 865 l 601 865 l 601 890 m -60 879 l -60 876 l -66 876 l -66 879 l -60 879 m 13 854 l 18 854 l 18 852 l 13 852 l 13 854 m 237 822 l 242 817 l 235 811 l 230 811 l 230 814 l 237 822 m 249 822 l 256 822 l 251 817 l 249 817 l 249 822 m 536 819 l 539 817 q 526 792 532 792 l 523 795 l 520 795 l 536 819 m 542 803 l 545 803 l 550 797 l 550 792 l 542 800 l 542 803 m -12 797 l -6 797 l -6 795 l -12 795 l -12 797 m -36 787 l -31 787 l -31 784 l -36 784 l -36 787 m 10 784 l 16 784 l 16 781 l 10 781 l 10 784 m 194 773 l 194 767 q 210 744 201 749 l 213 744 q 194 773 198 773 m -36 770 l -31 770 l -31 765 l -36 765 l -36 770 m -33 700 l -28 700 l -28 697 l -33 697 l -33 700 m 512 600 q 517 586 517 600 l 520 583 l 526 583 q 531 592 526 592 l 536 583 l 536 578 q 523 559 526 559 l 506 575 l 506 583 l 512 600 m 552 570 q 564 559 564 567 l 561 551 l 564 551 l 572 553 l 572 548 l 566 540 l 566 526 l 561 526 l 542 545 q 550 570 546 545 l 552 570 m 582 535 l 585 535 q 593 517 593 532 l 593 507 l 596 507 l 604 509 l 604 507 q 637 366 637 447 l 637 350 l 628 258 l 623 258 q 612 269 623 269 l 610 260 q 623 247 613 247 l 623 238 l 618 233 q 604 271 604 259 l 604 277 l 610 277 l 610 374 l 618 382 l 615 385 l 615 388 l 623 404 l 620 404 l 610 396 l 607 398 l 607 401 l 620 420 l 620 434 l 618 453 l 615 453 q 607 437 610 453 l 601 437 l 599 445 q 607 483 604 454 l 593 497 l 591 497 l 591 488 l 593 475 l 588 475 l 582 535 m 503 352 l 509 344 l 509 342 l 501 333 l 498 336 l 498 347 l 503 352 m 615 320 l 615 312 l 620 312 l 620 314 l 615 320 m 615 299 l 615 290 l 623 285 l 626 285 l 626 290 q 618 299 618 290 l 615 299 m 572 166 l 569 146 l 569 144 l 577 144 l 574 166 l 572 166 "},"/":{"x_min":0,"x_max":0,"ha":386},"►":{"x_min":0,"x_max":0,"ha":1375},"Ŧ":{"x_min":0,"x_max":0,"ha":848},"ђ":{"x_min":0,"x_max":0,"ha":772},"y":{"x_min":-13,"x_max":809,"ha":839,"o":"m 178 828 q 247 660 187 828 l 345 410 q 353 402 345 402 q 358 410 353 410 l 361 410 l 361 407 l 358 405 l 358 402 l 361 402 l 374 407 l 374 413 l 369 413 l 369 419 l 396 429 l 396 435 l 402 435 l 402 432 l 396 424 l 399 421 l 377 413 l 377 410 l 385 407 l 415 427 l 418 427 l 412 418 q 421 412 421 418 l 421 410 q 402 400 402 410 l 399 400 l 399 405 l 388 405 l 388 391 l 402 394 l 407 388 l 409 391 l 409 386 l 407 378 l 404 381 l 402 381 l 393 372 l 390 375 l 377 375 l 377 367 l 371 372 l 371 377 q 385 385 371 385 l 385 400 q 353 386 353 390 q 380 343 366 343 l 385 332 l 388 332 l 396 348 l 393 358 l 390 356 l 385 356 l 385 361 l 388 364 l 388 367 l 385 370 l 388 372 l 390 370 l 407 370 l 407 361 l 421 364 l 423 361 l 423 358 l 421 356 l 426 351 l 423 348 l 426 345 l 429 345 l 432 348 l 436 343 l 439 351 l 441 348 l 444 348 l 450 367 l 432 361 l 429 364 l 432 375 l 434 375 l 434 370 l 436 370 l 441 375 q 434 391 434 378 l 436 400 l 434 402 l 450 415 l 453 413 l 458 413 q 475 427 475 413 l 472 427 l 450 419 l 447 421 l 447 427 q 456 432 456 427 l 450 432 l 434 427 l 432 427 l 432 432 q 450 443 437 432 q 461 435 461 439 l 463 438 l 466 438 l 477 432 l 486 451 l 480 451 l 480 456 q 505 499 493 456 l 507 508 l 513 508 l 486 427 l 486 421 l 488 421 q 499 451 494 421 l 507 461 l 505 464 l 505 467 q 524 486 505 486 l 524 488 l 521 491 l 521 494 l 526 499 l 524 513 l 521 511 l 518 511 l 513 516 l 513 519 l 518 519 l 521 516 l 524 516 l 526 529 l 524 532 q 556 606 530 579 l 567 625 l 570 625 l 564 652 l 570 652 l 570 644 l 575 644 l 575 657 l 572 668 l 602 739 q 613 750 602 750 l 611 752 l 611 758 q 640 828 630 821 q 649 784 649 828 q 602 703 632 728 q 589 663 589 689 l 594 663 l 597 665 l 600 665 l 600 660 l 572 590 l 567 590 l 567 606 l 562 606 l 559 590 l 562 573 l 562 568 l 559 565 l 559 562 l 556 565 l 553 565 q 540 529 546 565 l 542 521 q 488 388 493 391 l 475 386 l 480 378 l 477 375 l 480 372 l 480 370 l 407 177 l 402 177 l 165 801 l 51 801 l 350 27 l 247 -222 l 350 -222 q 502 144 355 -219 l 507 144 l 505 147 l 505 150 l 559 277 q 570 313 565 277 l 575 313 l 575 310 l 580 267 q 561 226 568 226 l 559 226 l 559 229 l 562 242 q 556 253 556 242 l 554 250 l 551 242 l 548 242 l 554 226 l 554 223 l 551 220 l 556 207 q 369 -249 379 -234 l 211 -249 l 208 -246 l 206 -246 q 231 -200 224 -200 l 228 -197 l 228 -194 l 320 27 l 260 182 l 252 207 l 250 207 l 250 201 l 244 207 l 250 212 q 244 229 244 212 l 241 229 l 241 218 l 236 218 l 236 223 l 239 226 l 239 229 l 231 229 l 231 231 l 236 239 l 233 242 l 231 242 l 233 245 l 233 253 l 228 253 q 223 245 228 245 l 220 247 l 220 250 q 228 269 228 260 l 203 329 l 198 329 l 198 340 l 13 825 l 16 828 l 178 828 m 656 828 l 773 828 l 776 825 l 778 828 l 803 828 q 809 820 809 828 l 643 419 q 618 402 618 419 l 618 400 l 621 400 q 640 410 621 410 l 640 407 l 597 310 l 594 310 l 597 301 l 589 280 l 583 280 l 583 294 l 589 294 l 589 323 l 583 323 l 583 313 l 577 313 l 575 323 l 577 332 l 583 332 l 583 326 l 589 326 l 586 353 l 594 356 l 592 358 l 592 364 q 622 424 613 424 l 622 432 q 640 476 634 476 l 643 473 l 646 476 l 643 486 l 768 798 l 768 801 l 678 801 l 670 806 q 651 798 670 801 l 651 823 l 656 828 m -8 825 l -8 823 l -13 823 l -13 825 l -8 825 m 627 763 l 627 758 l 632 758 l 632 763 l 627 763 m 611 695 l 611 692 l 605 674 l 597 674 l 597 682 q 605 692 603 682 l 608 695 l 611 695 m 545 581 l 540 570 l 540 568 l 545 568 l 551 578 l 551 581 l 545 581 m 312 545 l 312 543 l 306 537 l 301 543 l 303 545 l 312 545 m 366 470 l 369 467 l 371 467 l 388 470 l 388 464 l 361 459 l 361 461 l 366 470 m 637 467 l 635 451 l 635 448 l 637 448 l 640 464 l 640 467 l 637 467 m 469 456 l 472 454 l 472 451 l 466 446 l 461 446 l 461 448 l 469 456 m 393 454 l 396 454 l 402 448 q 374 438 402 442 l 374 443 q 393 454 381 443 m 632 443 l 632 438 l 635 438 l 635 443 l 632 443 m 339 443 l 342 443 l 342 438 l 339 438 l 339 443 m 521 440 l 526 440 l 521 435 l 521 440 m 627 432 l 627 421 l 629 421 l 632 432 l 627 432 m 361 424 l 366 424 l 366 419 l 361 419 l 361 424 m 436 421 l 439 419 l 439 415 l 436 413 l 432 413 l 432 415 l 436 421 m 486 415 l 477 397 l 486 397 l 491 402 l 491 410 l 486 415 m 444 397 l 447 397 l 453 402 l 450 402 l 444 397 m 415 400 l 426 400 l 426 397 l 415 391 l 410 391 l 410 394 l 415 400 m 439 385 l 439 383 q 447 378 447 383 l 461 386 l 461 394 q 439 385 439 391 m 355 386 l 358 386 l 363 381 l 361 381 l 355 386 m 426 386 l 432 386 l 426 381 l 426 386 m 383 356 l 385 356 l 385 351 l 383 351 l 383 356 m 98 348 l 103 348 l 103 345 l 98 345 l 98 348 m 594 337 l 594 329 l 600 329 l 600 332 l 594 337 m 196 320 l 201 320 l 201 318 l 196 318 l 196 320 m 193 310 l 198 310 l 198 304 l 193 304 l 193 310 m 174 307 l 179 307 l 179 301 l 174 307 m 182 291 l 187 291 l 187 285 l 182 285 l 182 291 m 179 288 l 179 285 l 176 269 l 171 274 l 174 277 l 165 285 l 179 288 m 190 277 l 196 277 l 196 272 l 198 272 l 206 274 l 206 267 l 198 258 l 196 258 l 190 277 m 564 274 l 562 272 l 562 269 l 567 264 l 567 261 l 559 267 l 556 267 l 556 258 l 562 253 l 570 253 l 572 269 l 564 274 m 217 272 l 217 267 l 211 267 l 217 272 m 158 264 l 163 264 l 163 258 l 158 264 m 149 261 l 155 261 l 155 255 l 149 261 m 179 250 l 190 233 l 190 231 l 185 231 q 174 242 185 242 l 174 245 l 179 250 m 228 229 l 231 229 l 231 220 l 223 220 l 223 223 l 228 229 m 228 204 l 231 204 l 236 199 l 233 199 l 228 204 m 201 199 l 206 199 l 206 193 l 201 199 m 228 193 l 233 193 l 233 188 l 228 188 l 228 193 m 518 152 l 524 147 l 524 152 l 518 152 m 152 152 l 158 152 l 158 150 l 152 150 l 152 152 m 217 93 l 223 93 l 223 90 l 217 90 l 217 93 "},"Π":{"x_min":0,"x_max":0,"ha":1003},"‗":{"x_min":0,"x_max":0,"ha":767},"–":{"x_min":0,"x_max":0,"ha":772},"ë":{"x_min":0,"x_max":919,"ha":899,"o":"m 591 875 l 597 875 l 597 872 l 591 872 l 591 875 m 420 873 q 743 734 593 873 l 743 739 l 741 761 l 743 764 l 746 764 l 749 761 l 751 761 l 754 764 l 757 744 l 757 734 l 751 726 l 778 696 q 765 680 775 685 l 762 682 q 722 642 726 642 l 722 639 l 727 639 q 757 661 743 639 l 757 655 l 754 647 l 762 653 l 792 653 l 802 655 l 810 653 q 855 669 841 658 l 855 666 q 813 647 836 647 q 868 422 868 517 q 729 115 868 250 l 697 121 l 697 124 q 841 422 841 253 q 802 601 841 494 l 722 522 q 741 424 741 477 l 741 408 q 566 151 741 251 q 447 124 503 124 q 250 199 348 124 l 250 205 l 741 699 q 415 846 591 846 q 56 598 194 846 q 27 459 27 514 l 27 424 q 241 82 27 230 q 364 39 339 39 l 364 37 l 361 37 l 364 34 l 364 31 l 358 18 l 374 23 l 366 37 l 366 39 l 385 34 l 388 37 l 445 31 l 453 34 l 456 31 l 456 26 l 445 23 l 428 26 l 426 26 q 412 18 426 18 l 401 20 l 401 15 l 409 12 l 412 15 l 414 15 l 426 12 l 426 7 l 409 7 q 383 15 383 7 l 358 15 l 352 20 l 355 23 l 350 23 l 347 15 q 132 132 260 24 q 0 427 0 271 l 0 457 q 192 802 0 647 q 420 873 298 873 m 773 807 l 776 807 l 776 805 l 765 794 l 765 797 q 773 807 769 807 m 800 807 l 805 802 l 802 799 l 800 799 l 800 807 m 919 805 l 919 797 l 914 802 l 916 805 l 919 805 m 705 799 l 711 799 l 711 797 l 705 797 l 705 799 m 770 791 l 776 791 l 776 788 l 770 788 l 770 791 m 873 788 l 876 785 l 876 780 l 868 780 l 868 783 l 873 788 m 895 785 l 901 785 l 901 783 l 895 783 l 895 785 m 735 775 l 743 775 l 743 772 l 738 766 l 735 769 l 735 775 m 833 764 l 836 761 l 836 758 l 800 732 l 800 734 q 833 764 820 764 m 903 761 l 905 761 l 911 755 l 908 753 l 905 753 l 903 755 l 903 761 m 876 742 l 881 736 l 878 734 l 871 734 l 871 736 l 876 742 m 911 732 l 914 732 l 914 726 l 890 710 l 890 712 l 911 732 m 787 712 l 787 707 l 781 702 l 781 707 l 787 712 m 887 707 l 887 704 q 863 682 881 691 l 863 685 l 887 707 m 871 658 l 873 655 l 873 647 l 868 647 l 863 653 l 871 658 m 713 623 l 711 623 l 711 628 l 681 598 l 684 587 l 678 587 l 678 595 l 613 528 q 537 454 607 528 l 537 451 l 553 457 l 553 459 l 566 457 l 575 457 l 586 459 l 594 457 q 640 478 625 461 l 640 473 q 586 443 640 465 l 566 446 q 512 427 512 441 q 436 352 462 387 q 287 205 429 352 q 444 151 370 151 q 684 297 590 151 q 714 422 714 354 q 691 525 714 467 l 673 514 l 673 517 q 738 582 738 570 q 727 587 727 582 q 741 601 738 590 l 743 601 q 749 587 749 601 l 800 639 l 784 642 q 713 623 713 633 m 702 609 l 705 606 l 705 603 l 702 601 l 699 601 l 697 603 l 697 606 l 699 609 l 702 609 m 661 574 l 664 574 l 664 566 l 659 554 l 654 554 l 654 558 q 661 574 656 574 m 686 566 l 689 566 l 694 560 l 691 558 l 689 558 l 686 560 l 686 566 m 654 549 l 664 541 l 662 538 l 662 536 q 651 544 651 540 l 654 546 l 654 549 m 669 511 l 669 508 q 642 481 669 502 l 642 487 l 669 511 m 654 462 l 656 459 l 656 451 l 651 451 l 645 457 l 654 462 m 586 419 l 591 419 l 591 417 l 586 417 l 586 419 m 678 102 l 684 102 l 684 93 l 678 99 l 678 102 m 654 88 l 659 88 l 664 69 q 629 50 642 50 l 626 50 l 623 67 q 629 80 629 67 l 631 80 q 656 72 644 80 l 659 72 l 654 88 m 681 85 l 681 77 l 670 77 l 670 82 l 681 85 m 594 61 l 599 61 l 605 55 q 596 42 601 42 l 594 42 l 594 44 l 597 47 l 597 50 q 586 55 586 50 l 594 61 m 488 29 l 491 29 l 491 23 l 488 23 l 488 29 m 502 29 l 507 29 l 507 23 l 502 23 l 502 29 m 518 18 l 518 15 q 455 7 518 7 l 434 7 l 434 12 l 447 15 l 453 9 l 456 12 l 456 15 l 458 12 l 472 15 l 499 15 l 518 18 m 107 1034 l 109 1034 l 113 1029 l 111 1029 l 107 1034 m 115 1179 l 119 1183 l 124 1179 l 124 1175 l 119 1175 l 115 1179 m 122 1110 l 122 1114 l 126 1114 l 126 1110 l 122 1110 m 122 1129 l 122 1133 l 124 1133 l 124 1129 l 122 1129 m 122 1169 l 122 1173 l 126 1173 l 126 1169 l 122 1169 m 130 1006 l 130 1008 l 134 1008 l 134 1006 l 130 1006 m 140 1013 q 158 1023 140 1019 l 158 1027 q 145 1031 145 1027 l 145 1040 q 164 1048 145 1044 l 166 1046 l 166 1013 l 164 1010 l 166 1008 l 166 1004 l 149 1004 l 140 1013 m 142 1074 l 144 1074 q 151 1065 151 1074 l 160 1065 l 166 1069 l 168 1067 l 168 1065 l 166 1063 l 168 1063 l 187 1067 l 191 1067 l 191 1072 l 198 1076 l 212 1074 l 223 1074 l 223 1082 l 225 1082 q 246 1067 226 1067 q 259 1059 246 1063 l 271 1061 l 275 1061 l 277 1074 l 334 1074 l 339 1069 l 339 1013 l 336 1010 l 339 1008 l 339 1004 q 330 998 339 1001 l 328 996 l 328 992 l 339 994 l 339 989 q 328 985 339 985 l 328 983 l 339 973 l 339 956 l 334 951 l 320 959 l 313 958 l 311 959 l 311 962 l 313 964 l 309 964 l 299 956 l 297 962 l 295 959 l 280 964 l 280 968 l 292 973 l 292 970 l 295 973 l 317 973 l 317 985 q 326 989 317 989 l 324 992 l 324 994 l 326 996 l 326 998 q 318 1002 318 998 l 318 1008 l 322 1013 l 324 1013 l 334 1010 l 334 1017 l 330 1021 l 326 1021 l 326 1017 l 320 1017 l 318 1027 l 318 1053 l 221 1053 l 221 1059 l 210 1059 q 196 1053 203 1059 l 191 1057 l 178 1057 l 162 1053 l 162 1055 l 164 1061 l 160 1061 l 160 1057 l 157 1057 q 153 1063 153 1057 l 149 1063 l 149 1059 l 145 1059 l 142 1074 m 145 979 l 147 981 l 151 985 l 151 987 l 155 987 l 155 983 l 151 979 l 153 977 l 153 973 l 151 973 l 145 979 m 155 1008 l 162 1008 l 162 1010 l 155 1010 l 155 1008 m 155 1114 l 158 1116 l 160 1116 l 162 1114 l 162 1112 l 160 1110 l 158 1110 l 155 1112 l 155 1114 m 158 968 l 158 973 l 174 973 q 181 966 174 966 l 181 964 l 174 958 l 170 958 q 158 968 170 968 m 166 1141 l 168 1141 l 172 1137 l 170 1137 l 166 1141 m 181 1157 l 181 1160 l 189 1160 l 189 1157 l 185 1153 l 181 1157 m 187 954 l 187 958 l 191 962 q 204 956 193 956 l 204 951 l 196 951 l 189 956 l 187 954 m 196 966 l 204 966 l 204 962 l 198 959 l 196 962 l 196 966 m 212 958 l 212 959 l 219 966 q 227 962 219 962 l 225 959 l 225 958 l 219 959 l 212 958 m 223 1107 l 227 1112 l 229 1110 l 229 1107 l 223 1107 m 227 964 l 229 964 l 233 959 l 233 958 l 227 964 m 227 1029 l 227 1036 l 229 1036 l 233 1031 l 233 1029 l 227 1029 m 236 850 l 240 854 l 242 852 l 242 848 l 238 844 l 236 846 l 236 850 m 236 928 l 236 941 l 240 941 l 240 928 l 236 928 m 238 951 l 238 956 l 240 956 l 240 951 l 238 951 m 246 962 l 246 968 l 250 968 l 255 964 l 252 962 l 246 962 m 252 935 l 252 939 l 255 939 l 255 935 l 252 935 m 257 970 l 257 973 l 269 973 l 271 966 l 269 964 q 282 954 282 962 l 277 954 q 257 970 258 965 m 259 1074 l 261 1074 l 265 1069 l 263 1067 l 261 1067 l 259 1069 l 259 1074 m 263 901 l 263 905 l 267 905 l 267 901 l 263 901 m 265 897 l 269 897 q 282 866 271 879 l 280 856 l 286 848 l 284 846 l 280 846 q 265 897 271 856 m 282 951 l 286 956 l 288 956 l 288 951 l 282 951 m 288 947 l 295 947 l 295 943 l 292 943 l 288 947 m 324 962 l 326 962 l 326 964 l 322 968 l 320 968 l 320 966 l 324 962 m 619 956 l 619 983 l 623 987 l 634 987 l 634 992 q 619 998 619 992 q 638 1004 619 1004 l 640 1002 l 640 998 l 636 992 l 640 979 l 640 973 l 792 973 l 792 1002 l 808 1002 l 813 998 l 813 973 l 808 966 l 813 959 l 813 956 l 808 951 l 646 951 l 644 954 l 642 951 l 623 951 l 619 956 m 619 1017 l 619 1069 l 623 1074 l 667 1074 q 689 1065 673 1067 q 693 1072 689 1072 l 701 1072 q 708 1061 706 1072 q 688 1053 695 1053 l 676 1053 l 676 1059 l 670 1059 q 655 1053 670 1053 l 646 1053 l 644 1055 l 642 1055 l 638 1029 l 640 1023 q 628 1013 628 1021 l 629 1010 l 634 1010 l 636 1013 l 638 1013 l 638 1008 l 628 1006 l 621 1006 l 619 1017 m 623 1029 l 628 1029 l 632 1038 l 632 1040 l 629 1040 q 623 1029 625 1040 m 634 1040 l 638 1040 l 634 1044 l 634 1040 m 706 1053 l 706 1055 l 710 1059 l 712 1057 l 714 1057 q 724 1063 714 1061 l 724 1061 l 727 1053 l 724 1053 l 716 1055 l 710 1053 l 708 1055 l 706 1053 m 716 964 l 724 962 l 724 966 l 716 966 l 716 964 m 729 956 l 735 956 l 735 959 l 729 959 l 729 956 m 727 1061 l 727 1065 l 735 1074 l 772 1074 q 777 1067 777 1074 l 781 1067 l 781 1074 l 808 1074 l 813 1069 l 813 1067 l 802 1040 l 802 1031 q 813 1027 813 1031 l 813 1010 l 808 1006 l 800 1006 l 798 1008 l 796 1008 l 798 1010 l 798 1017 q 792 1021 792 1017 l 792 1053 l 781 1053 l 779 1055 l 777 1053 l 771 1053 l 771 1055 l 777 1063 l 777 1065 q 769 1069 769 1065 q 762 1055 765 1069 l 748 1053 l 731 1053 l 727 1061 "},"б":{"x_min":0,"x_max":0,"ha":796},"ƒ":{"x_min":0,"x_max":0,"ha":772},"у":{"x_min":0,"x_max":0,"ha":694},"J":{"x_min":0,"x_max":631.84375,"ha":620,"o":"m 436 1110 l 580 1110 l 586 1104 l 586 1061 l 580 1055 l 564 1055 l 559 1061 l 559 1083 l 458 1083 l 458 1061 l 453 1055 l 436 1055 l 431 1061 l 431 1104 l 436 1110 m 458 1033 l 458 1026 l 456 1026 l 450 1031 l 453 1033 l 458 1033 m 434 1020 l 445 1017 l 453 1020 l 458 1012 l 458 1009 l 434 1015 l 434 1020 m 580 993 l 586 993 l 586 966 q 564 925 571 925 l 567 914 l 564 906 l 559 906 l 559 947 q 575 977 571 947 l 580 993 m 431 980 l 442 980 l 442 972 l 436 972 l 431 977 l 431 980 m 453 947 l 458 947 l 458 939 l 453 939 l 453 947 m 439 941 l 445 941 l 445 939 l 439 939 l 439 941 m 442 925 l 447 925 l 447 920 l 442 920 l 442 925 m 580 911 l 586 911 l 586 908 q 562 866 581 884 l 559 866 l 559 868 q 580 911 572 883 m 450 879 l 456 879 l 456 876 l 450 876 l 450 879 m 448 871 l 453 871 l 453 863 l 448 863 l 448 871 m 562 843 l 567 838 l 567 835 l 562 841 l 562 843 m 569 833 l 578 833 l 578 827 l 569 827 l 569 833 m 453 817 l 458 817 l 458 795 q 450 787 450 795 l 448 787 l 439 795 l 439 800 q 453 817 453 800 m 572 817 l 578 817 l 580 803 l 578 806 l 575 806 l 575 803 l 586 768 l 586 730 q 570 686 586 714 l 572 670 l 572 665 q 586 659 586 665 l 586 396 l 583 393 l 586 390 l 586 366 q 580 320 586 320 l 583 317 l 583 314 q 537 149 583 221 l 534 149 l 531 152 l 528 152 l 528 147 l 534 147 l 534 144 l 499 92 l 501 89 q 471 73 490 89 l 466 79 q 342 16 466 49 l 279 10 l 212 19 l 201 10 q 162 32 201 24 q 0 301 0 116 l 0 331 l 5 336 l 149 336 l 154 331 l 154 320 q 254 171 154 205 l 257 174 l 260 174 l 276 168 l 290 168 l 292 171 l 295 168 l 298 168 q 336 184 330 168 l 336 179 l 334 176 l 334 174 l 336 174 q 409 233 367 174 q 430 410 430 311 q 445 425 441 410 l 442 447 l 445 456 l 442 459 l 442 461 l 445 464 l 445 466 l 442 480 l 439 480 l 436 459 l 431 459 l 431 466 q 445 491 434 491 l 445 502 l 448 515 l 453 515 l 458 510 l 458 502 l 456 499 l 458 496 l 458 412 l 456 388 l 458 385 l 456 369 q 296 141 456 141 l 279 141 q 133 268 172 141 l 128 307 l 128 309 l 27 309 l 27 306 q 209 46 27 107 l 282 38 q 423 73 348 38 l 426 70 l 426 73 l 423 76 q 501 141 448 80 l 504 141 l 507 130 l 510 130 q 534 192 510 168 l 542 184 l 548 190 l 548 192 q 534 198 534 192 l 534 206 l 542 209 l 539 220 q 556 307 550 250 l 564 307 q 556 325 556 316 l 556 336 l 564 336 l 559 344 l 559 396 l 564 401 l 562 410 l 564 431 l 559 431 l 559 445 l 564 445 l 564 437 l 567 437 l 567 447 l 559 450 l 559 456 l 564 464 l 562 491 l 567 542 l 567 551 l 564 551 l 564 534 l 559 534 l 559 754 l 565 754 l 565 711 l 570 711 l 570 749 q 559 763 570 763 l 559 771 l 567 771 l 567 797 l 562 806 l 562 808 q 572 817 572 808 m 442 779 l 445 776 l 445 773 q 437 757 437 771 l 432 757 l 432 765 l 442 779 m 439 746 l 442 746 q 448 738 448 746 l 445 730 l 439 730 l 442 738 l 439 746 m 456 689 l 458 689 l 458 678 l 453 673 l 450 676 l 448 676 q 434 656 448 658 l 434 662 l 456 689 m 453 659 l 458 629 l 453 624 l 458 619 l 458 575 l 436 524 l 431 524 l 431 545 l 436 553 l 436 556 l 431 556 l 431 581 q 442 608 431 596 l 439 616 l 442 619 l 445 619 l 448 616 l 448 621 l 436 635 l 445 637 l 442 640 q 453 659 446 659 m 445 602 l 445 600 l 448 600 l 453 605 l 453 608 l 450 608 l 445 602 m 562 559 l 562 556 l 567 556 l 567 559 l 562 559 m 450 528 l 456 528 l 456 524 l 450 528 m 570 518 l 570 510 l 572 510 l 572 518 l 570 518 m 434 445 l 436 445 l 436 440 l 434 440 l 434 445 m 439 407 l 439 396 l 442 396 l 442 407 l 439 407 m 171 399 l 176 399 l 176 396 l 171 396 l 171 399 m 434 372 l 434 369 l 437 366 l 437 364 l 434 364 l 437 361 l 437 336 l 434 317 q 439 307 439 317 q 446 339 446 307 l 450 339 l 442 372 l 434 372 m 572 337 l 572 331 l 578 331 l 578 337 l 572 337 m 352 331 l 355 331 l 355 328 l 345 317 l 345 320 l 352 331 m 379 331 l 385 326 l 385 323 l 379 323 l 379 331 m 496 326 l 499 326 l 499 320 l 496 320 l 496 326 m 285 323 l 290 323 l 290 320 l 285 320 l 285 323 m 350 314 l 355 314 l 355 312 l 350 312 l 350 314 m 184 304 l 190 304 l 190 301 l 184 301 l 184 304 m 320 301 l 323 298 l 323 295 l 317 290 l 315 293 l 315 295 l 320 301 m 326 288 l 328 285 l 331 285 l 334 288 l 336 268 l 336 258 l 328 250 l 326 250 l 323 252 l 320 252 l 323 266 l 320 285 l 323 288 l 326 288 m 412 288 l 415 285 l 415 282 l 380 255 l 380 258 q 412 288 400 288 m 483 285 l 488 285 l 488 279 l 483 279 l 483 285 m 176 271 l 179 271 l 179 266 l 176 266 l 176 271 m 204 263 l 209 263 l 209 244 l 204 244 l 204 263 m 553 258 l 559 252 l 559 258 l 553 258 m 553 244 l 553 239 l 556 239 l 556 244 l 553 244 m 369 244 l 371 244 l 371 239 l 369 239 l 369 244 m 204 236 l 212 236 l 212 230 l 204 230 l 204 236 m 366 236 l 366 230 l 360 225 l 360 230 l 366 236 m 626 230 l 631 225 l 626 220 l 621 220 l 621 225 l 626 230 m 326 225 l 331 225 l 331 222 l 326 222 l 326 225 m 252 222 l 257 222 l 257 217 l 252 217 l 252 222 m 613 222 l 618 222 l 618 217 l 613 217 l 613 222 m 225 217 l 231 217 l 231 214 l 225 214 l 225 217 m 257 217 l 263 211 l 263 209 l 257 209 l 257 217 m 326 211 l 331 211 l 331 209 l 326 209 l 326 211 m 526 176 l 537 165 l 537 171 l 531 176 l 526 176 m 578 165 l 578 162 l 572 157 l 572 160 l 578 165 m 599 147 l 602 147 l 602 136 l 599 136 l 594 141 l 599 147 m 521 106 l 521 100 l 515 100 l 521 106 m 466 95 l 471 90 l 474 90 l 471 100 l 466 95 m 534 92 l 539 86 l 537 84 l 534 84 l 534 92 m 439 79 l 439 73 l 442 73 l 442 79 l 439 79 m 328 8 l 328 0 l 323 0 l 323 2 l 328 8 "},"ŷ":{"x_min":0,"x_max":0,"ha":694},"ŕ":{"x_min":0,"x_max":0,"ha":463},"☻":{"x_min":0,"x_max":0,"ha":1461},"ώ":{"x_min":0,"x_max":0,"ha":1084},"˘":{"x_min":0,"x_max":0,"ha":463},"┤":{"x_min":0,"x_max":0,"ha":984},"↑":{"x_min":0,"x_max":0,"ha":694},"D":{"x_min":0,"x_max":876,"ha":912,"o":"m 325 1128 l 334 1126 l 334 1123 q 312 1115 332 1115 l 309 1115 l 325 1128 m 404 1128 l 404 1126 l 398 1120 l 393 1126 l 395 1128 l 404 1128 m 451 1090 l 456 1090 l 456 1085 l 451 1085 l 451 1090 m 363 1088 l 377 1075 q 474 1066 431 1075 l 485 1069 q 558 1044 485 1062 q 810 811 720 978 q 876 539 876 688 q 607 56 876 216 q 417 2 541 21 l 414 0 l 412 2 l 404 0 l 390 1 l 295 1 l 5 1 l 0 5 l 0 102 q 16 130 0 115 l 0 132 l 0 330 l 2 341 l 0 352 l 0 463 l 10 479 q 0 488 10 488 l 0 490 l 2 498 l 0 515 q 13 531 13 515 l 5 539 l 8 572 l 0 572 l 0 588 q 13 623 8 598 l 0 623 l 0 647 l 2 674 l 0 697 l 11 727 l 13 724 l 16 724 q 22 735 22 724 l 27 735 l 27 724 q 19 707 27 710 l 24 688 l 22 674 l 24 666 l 11 661 l 11 653 l 13 656 l 25 656 l 25 647 l 25 575 l 19 575 l 19 583 l 16 583 l 16 572 l 27 501 l 27 496 l 24 496 l 27 482 l 27 376 l 24 366 l 27 355 l 19 322 l 19 298 l 16 295 l 16 293 q 27 287 27 293 l 27 252 l 19 252 l 24 222 l 22 213 l 27 208 l 27 178 l 22 156 l 27 148 l 27 27 l 233 27 q 604 89 532 27 q 821 360 749 159 q 849 542 849 446 q 648 962 849 798 q 347 1050 533 1050 l 122 1050 l 116 1055 l 119 1055 l 111 1066 q 103 1050 107 1050 l 95 1050 l 92 1052 l 89 1050 l 65 1050 q 60 1058 60 1050 l 54 1058 q 48 1050 54 1050 l 35 1050 l 30 1055 l 35 1060 l 41 1055 q 62 1080 41 1080 l 65 1077 l 68 1077 l 70 1080 l 73 1080 l 92 1072 l 97 1077 l 114 1077 l 133 1080 l 133 1077 l 135 1080 l 165 1080 l 168 1077 l 171 1080 l 176 1080 l 179 1077 l 181 1080 l 195 1080 l 206 1077 l 225 1080 l 352 1080 l 363 1088 m 442 1088 l 442 1085 l 436 1080 l 431 1085 l 433 1088 l 442 1088 m 11 1077 l 27 1077 l 33 1072 l 33 1069 q 19 1031 23 1058 l 22 1023 q 8 1001 14 1023 l 11 985 l 11 982 l 5 976 l 0 982 l 0 1012 l 8 1050 l 5 1047 l 0 1047 l 0 1050 l 2 1052 l 0 1055 l 0 1057 q 11 1077 0 1072 m 57 1072 l 57 1066 l 60 1066 l 60 1072 l 57 1072 m 46 1069 l 46 1066 l 52 1066 l 52 1069 l 46 1069 m 22 1014 l 27 1009 l 27 998 l 24 995 l 27 993 l 27 974 l 22 968 l 16 990 l 16 1009 l 22 1014 m 22 966 l 27 966 l 27 822 l 22 822 q 15 838 22 838 l 15 786 l 19 786 l 22 797 l 19 808 l 24 814 l 27 814 l 27 765 l 24 765 q 19 773 19 765 l 16 776 l 12 776 l 12 735 l 12 730 l 8 730 l 8 745 l 2 745 l 5 759 l 5 786 l 0 838 l 2 838 l 5 835 l 8 835 l 8 867 l 5 865 l 0 865 q 8 889 1 880 l 8 897 q 0 930 0 907 l 0 941 l 8 941 l 11 939 l 13 939 l 11 957 l 11 962 l 16 962 l 16 957 q 22 966 22 957 m 8 930 q 16 906 10 906 l 16 922 l 8 930 m 5 697 l 8 683 l 11 683 l 11 697 l 5 697 m 5 647 l 5 626 l 8 626 l 16 628 l 16 645 l 5 647 m 0 618 l 5 618 l 5 610 l 0 610 l 0 618 m 2 528 l 8 528 l 8 523 l 2 528 m 19 146 l 19 141 l 22 141 l 22 146 l 19 146 "},"┼":{"x_min":0,"x_max":0,"ha":984},"ł":{"x_min":0,"x_max":0,"ha":309},"ĺ":{"x_min":0,"x_max":0,"ha":309},"ц":{"x_min":0,"x_max":0,"ha":796},"Л":{"x_min":0,"x_max":0,"ha":911},"├":{"x_min":0,"x_max":0,"ha":984},"$":{"x_min":-59.8125,"x_max":681,"ha":717,"o":"m 268 1258 l 415 1258 l 421 1252 l 421 1098 l 496 1076 l 496 1070 l 423 1070 q 394 1079 394 1070 l 394 1231 l 290 1231 l 290 1079 q 244 1065 290 1072 q 86 932 132 1025 q 54 799 54 864 q 260 547 54 610 q 274 531 274 542 l 285 522 l 285 534 l 290 534 l 288 531 l 288 528 l 290 520 l 285 520 l 285 515 q 298 531 298 520 l 301 531 l 320 525 l 320 499 l 318 499 q 158 563 210 531 q 27 796 27 637 q 206 1081 27 987 l 263 1098 l 263 1252 l 268 1258 m 488 1068 l 499 1063 l 508 1065 q 548 1041 524 1065 l 545 1039 l 543 1039 l 535 1044 l 527 1041 q 483 1060 527 1051 l 480 1063 l 480 1065 l 488 1068 m 502 1047 l 508 1047 l 521 1033 l 521 1030 q 502 1044 502 1040 l 502 1047 m 559 1035 l 559 1033 l 553 1027 l 551 1030 l 551 1033 l 553 1035 l 559 1035 m 597 994 q 660 783 660 910 l 657 781 l 502 781 l 502 786 q 527 808 518 786 l 535 808 l 594 783 l 594 786 q 556 802 583 802 l 561 808 l 632 808 l 630 810 l 630 816 q 594 954 630 870 l 594 976 l 578 976 l 573 981 l 573 986 l 578 992 l 583 986 q 597 994 583 993 m 385 984 l 387 984 q 423 968 405 984 l 415 949 q 383 962 383 956 l 387 970 l 385 984 m 271 976 l 274 973 l 274 946 q 187 807 187 908 l 187 802 q 279 686 187 734 l 274 658 q 170 751 206 685 q 160 797 160 776 l 160 810 q 271 976 160 929 m 358 973 l 368 965 l 368 959 l 350 959 l 350 962 l 358 973 m -21 968 l -16 968 q -24 944 -19 944 l -24 949 l -21 968 m 440 968 l 441 965 l 441 959 l 440 957 l 440 954 q 426 962 426 958 l 440 968 m 451 957 l 453 957 l 463 951 l 463 941 l 458 941 l 461 927 l 453 922 l 451 924 l 451 927 l 453 944 l 447 944 l 451 957 m 478 932 l 483 932 q 472 908 478 908 l 470 908 l 470 910 l 478 932 m -43 922 l -37 922 q -46 898 -40 898 l -46 903 l -43 922 m 502 892 l 505 892 l 510 886 l 510 884 l 488 884 l 488 889 l 502 892 m -57 876 l -51 876 q -59 851 -54 851 l -59 856 l -57 876 m 212 873 l 217 873 l 217 870 l 212 870 l 212 873 m 502 835 l 513 835 l 513 832 l 505 805 l 499 805 l 499 816 l 508 827 l 508 830 l 497 830 l 502 835 m -32 822 l -27 822 l -30 808 l -30 797 l -35 797 l -35 803 l -32 822 m 591 803 l 591 797 l 594 797 l 594 803 l 591 803 m 539 797 l 539 792 l 543 792 l 543 797 l 539 797 m 531 792 l 531 786 l 535 786 l 535 792 l 531 792 m 298 672 l 301 664 l 298 655 l 293 655 l 293 661 q 288 653 288 661 l 285 651 l 282 651 l 282 655 l 285 658 l 285 661 l 282 670 l 285 670 l 298 672 m 320 661 l 323 661 l 323 658 l 304 642 l 301 642 l 301 653 l 320 661 m 336 653 q 368 639 354 653 l 371 642 l 375 639 l 375 615 l 337 626 l 337 634 l 339 632 l 342 632 l 342 637 l 331 651 l 334 653 l 336 653 m 318 644 l 318 642 l 312 637 l 310 639 l 310 642 l 312 644 l 318 644 m 326 642 l 328 642 l 328 637 l 326 637 l 326 642 m 383 637 q 404 628 404 634 l 404 612 l 396 604 l 375 612 l 380 617 l 383 615 l 385 615 l 385 617 l 383 637 m 421 626 q 681 346 681 540 l 681 303 q 515 26 681 126 q 426 0 461 0 l 423 -3 l 421 -3 l 421 -38 q 399 -57 405 -57 l 402 -71 l 399 -71 l 394 -65 l 394 -32 l 402 -16 l 396 0 l 396 4 l 399 7 l 399 10 l 402 7 l 410 7 q 421 24 410 24 q 478 40 472 34 l 489 40 l 489 34 l 475 34 l 475 29 q 486 21 486 29 l 494 21 l 494 24 l 491 32 l 499 32 l 508 26 l 508 35 q 497 47 497 35 q 613 156 561 75 q 654 305 654 232 l 654 338 q 407 601 654 526 q 415 610 407 610 l 415 615 l 410 615 l 410 623 l 421 626 m 344 518 q 364 509 352 509 l 364 506 l 352 485 q 334 496 342 485 l 331 496 l 331 501 l 342 518 l 344 518 m 368 504 l 371 504 l 387 499 q 380 471 385 471 l 368 504 m 396 493 q 548 306 548 428 q 488 162 548 215 l 480 167 l 478 165 l 475 165 l 478 162 l 478 156 q 458 140 478 151 l 440 159 q 451 165 440 165 l 453 167 l 453 170 l 455 167 l 463 167 l 461 170 l 461 172 q 513 245 498 208 l 510 248 l 510 254 l 515 254 l 515 284 l 521 284 l 521 289 l 518 287 l 515 287 l 513 289 l 513 292 q 521 298 513 298 l 521 311 l 518 314 l 521 316 l 521 319 l 513 347 l 515 347 q 447 436 502 391 l 447 441 l 444 439 l 441 439 l 390 471 l 390 487 l 396 493 m 486 395 l 478 387 l 471 387 l 471 392 l 486 395 m 347 392 l 352 392 q 344 368 349 368 l 344 373 l 347 392 m 8 360 l 152 360 l 158 354 l 158 324 q 326 140 158 140 l 350 140 q 418 151 383 140 l 418 143 l 423 143 l 421 145 l 421 154 l 434 156 l 451 140 q 412 121 451 131 l 404 124 l 404 121 q 368 113 404 117 l 366 124 l 364 124 q 358 113 364 113 l 325 113 q 132 275 160 113 l 132 322 l 132 333 l 30 333 l 30 313 q 184 50 30 144 q 290 18 226 29 l 290 -160 l 337 -160 l 339 -163 l 342 -163 l 328 -181 l 314 -176 l 314 -179 q 309 -187 314 -187 l 268 -187 l 263 -181 l 263 -3 q 106 72 200 -3 q 3 316 3 176 l 3 354 l 8 360 m 513 308 l 505 301 l 499 301 l 499 306 l 513 308 m 375 306 l 380 306 q 371 281 377 281 l 371 287 l 375 306 m 387 295 l 394 295 q 385 270 391 270 l 383 272 l 383 275 l 387 295 m 339 268 l 345 268 l 345 265 l 339 265 l 339 268 m 368 197 l 375 197 q 366 172 372 172 l 366 178 l 368 197 m 410 135 l 410 130 l 412 130 l 412 135 l 410 135 m 421 135 l 421 130 l 423 130 l 423 135 l 421 135 m 505 45 l 505 43 l 510 43 l 510 45 l 505 45 m 410 -38 l 410 -41 l 415 -41 l 415 -38 l 410 -38 m 418 -92 l 421 -92 l 421 -181 l 415 -187 l 380 -187 l 377 -184 l 375 -187 l 345 -187 q 358 -160 345 -168 l 388 -160 q 394 -168 394 -160 l 396 -171 l 402 -171 l 402 -168 l 399 -160 l 404 -154 q 394 -149 404 -149 l 394 -114 q 410 -103 394 -108 l 418 -92 m 276 -100 l 276 -106 l 279 -106 l 279 -100 l 276 -100 m 410 -128 l 410 -130 l 415 -130 l 415 -128 l 410 -128 m 304 -171 l 304 -173 l 310 -173 l 310 -165 l 304 -171 m 391 -173 l 391 -179 l 396 -179 l 396 -173 l 391 -173 "},"w":{"x_min":0.015625,"x_max":1082.390625,"ha":1107,"o":"m 100 828 l 105 822 l 97 814 l 100 803 l 97 801 l 38 801 l 38 798 l 103 594 l 103 586 q 117 559 113 586 l 111 559 l 111 556 l 108 531 l 111 529 l 111 526 l 108 513 l 103 513 l 0 825 l 2 828 l 100 828 m 147 828 l 149 825 l 144 808 l 144 806 l 147 806 l 152 825 l 154 825 q 171 784 165 825 q 154 757 158 757 l 152 757 l 149 773 l 155 779 l 155 784 l 152 782 l 147 782 l 149 784 l 149 790 q 139 806 139 790 q 147 828 141 828 m 594 828 q 651 645 600 828 l 678 562 l 680 562 l 686 567 l 689 567 l 689 561 q 680 556 689 556 q 708 474 695 494 l 705 472 l 705 469 l 751 314 q 811 494 756 314 l 919 825 l 922 828 l 1076 828 l 1082 822 l 802 0 l 703 0 q 643 187 692 14 l 553 477 q 518 448 518 474 l 412 100 l 410 98 l 407 98 l 410 95 l 410 92 q 388 27 393 27 l 377 38 l 374 35 l 371 35 l 366 40 l 366 43 l 374 51 l 377 49 l 380 49 q 388 54 380 54 l 393 71 q 385 76 385 71 l 388 76 l 391 73 l 393 73 l 393 81 q 385 89 385 81 l 388 92 l 388 95 l 385 102 q 410 163 399 163 l 407 171 l 537 610 l 542 610 l 719 27 l 781 27 q 1006 689 787 27 q 1044 801 1011 689 l 944 801 q 857 540 937 801 l 754 225 l 751 225 l 577 801 l 504 801 l 366 347 l 363 347 l 344 363 l 363 429 l 360 429 l 331 412 l 328 412 l 320 415 l 315 410 l 309 410 l 304 415 q 366 437 305 430 l 399 551 l 399 575 l 404 575 l 412 540 l 418 540 l 415 548 l 418 564 l 418 573 l 415 570 l 407 570 l 485 828 l 594 828 m 119 814 q 128 801 125 814 l 125 801 l 119 806 l 119 814 m 155 795 l 155 787 l 157 787 l 157 795 l 155 795 m 171 754 l 179 746 l 176 746 l 171 751 l 171 754 m 179 746 l 181 746 q 190 735 185 746 q 182 727 182 735 l 179 725 l 174 725 l 174 730 l 171 730 l 171 724 q 176 716 176 724 q 184 727 180 716 l 187 730 l 190 730 l 195 716 l 192 716 q 182 694 182 716 l 179 692 l 174 692 l 162 735 l 165 737 l 168 735 l 171 735 l 182 737 l 182 740 l 179 743 l 179 746 m 640 727 l 646 727 l 646 724 l 640 724 l 640 727 m 366 713 l 371 713 l 371 708 l 366 708 l 366 713 m 201 689 l 206 689 l 211 667 l 208 662 l 208 624 l 208 618 l 203 618 l 203 635 q 195 640 195 635 l 201 640 l 201 689 m 363 687 l 366 687 l 366 681 l 363 681 l 363 687 m 703 656 l 708 656 l 708 654 l 703 654 l 703 656 m 399 645 l 404 645 l 404 643 l 399 643 l 399 645 m 695 640 l 697 637 l 697 635 l 695 632 l 692 632 l 689 635 l 689 637 l 692 640 l 695 640 m 759 635 l 762 635 l 762 629 l 756 624 l 754 624 l 754 629 l 759 635 m 372 632 l 377 632 l 377 627 l 372 627 l 372 632 m 735 632 l 740 627 l 740 621 l 732 613 l 724 613 l 719 618 q 732 632 730 621 l 735 632 m 220 629 l 225 629 l 225 627 l 223 624 l 225 621 l 225 618 q 214 594 225 608 l 214 586 l 220 578 l 220 573 l 217 573 q 203 607 211 573 q 220 629 220 613 m 662 629 l 667 629 l 667 627 l 662 627 l 662 629 m 670 624 l 675 624 l 675 618 l 670 618 l 670 624 m 380 616 l 385 616 l 385 610 l 380 610 l 380 616 m 727 607 l 727 605 l 722 599 l 722 602 l 727 607 m 763 602 l 768 602 l 768 597 l 763 597 l 763 602 m 722 599 l 724 591 l 722 589 l 714 591 l 722 599 m 678 597 l 680 597 l 686 591 l 686 589 l 683 589 l 678 594 l 678 597 m 740 594 l 743 591 l 743 589 l 740 586 l 738 586 l 735 589 l 735 591 l 738 594 l 740 594 m 396 589 l 402 583 l 402 581 l 396 581 l 396 589 m 233 586 l 239 586 l 260 513 l 255 513 l 255 494 l 252 491 l 255 483 l 258 486 l 260 486 l 258 488 l 258 494 l 263 499 l 260 502 l 260 507 l 266 507 l 269 494 l 266 494 l 274 474 l 274 469 l 269 469 l 269 464 q 298 393 285 464 l 301 390 q 293 355 298 363 l 293 350 l 296 350 l 296 358 l 298 358 l 304 352 l 304 345 l 296 336 l 290 336 l 279 374 l 290 374 l 290 369 l 293 369 l 293 371 l 290 374 l 290 376 l 293 385 l 290 385 q 271 404 271 388 l 266 415 l 269 415 l 266 418 l 266 420 l 271 429 q 225 545 254 429 l 233 551 l 231 553 l 231 556 l 239 573 l 239 575 l 223 562 l 220 562 l 233 586 m 754 586 l 756 583 l 759 586 l 765 586 l 770 581 l 765 575 l 762 575 l 754 583 l 754 586 m 372 583 l 377 583 l 377 578 l 372 578 l 372 583 m 714 556 l 719 556 l 719 553 l 714 553 l 714 556 m 729 551 l 738 551 l 738 545 l 729 545 l 729 551 m 689 548 l 695 548 l 695 545 l 689 545 l 689 548 m 708 548 l 714 542 l 714 537 l 708 531 l 700 540 l 708 548 m 130 521 l 133 518 l 133 515 q 117 502 128 506 l 114 505 l 114 510 q 130 521 119 521 m 539 510 l 529 486 l 531 486 q 548 494 548 490 q 539 510 545 510 m 133 510 l 136 507 l 136 505 l 133 502 l 130 502 l 128 505 l 128 507 l 130 510 l 133 510 m 136 502 l 139 499 l 139 493 q 130 488 139 488 l 128 486 l 128 483 l 130 480 l 133 480 l 141 488 l 155 445 l 152 437 l 155 440 l 157 440 l 160 437 l 160 434 l 157 426 l 160 426 q 187 345 168 426 q 225 239 191 345 l 225 236 l 223 239 l 220 239 l 214 211 l 214 198 l 209 198 l 187 268 l 192 274 l 192 290 l 187 299 l 190 306 l 182 306 l 182 296 l 176 296 l 168 323 l 171 334 q 147 393 160 334 q 125 456 142 393 q 136 469 130 457 q 117 474 117 469 l 117 483 q 136 502 129 502 m 714 494 l 719 494 l 719 488 l 714 488 l 714 494 m 309 477 l 312 477 l 318 472 l 318 467 l 304 467 l 304 472 l 309 477 m 779 477 l 784 477 l 784 472 l 779 472 l 779 477 m 347 469 l 350 467 l 350 461 l 339 459 l 339 467 l 347 469 m 727 469 l 729 469 l 719 459 l 716 459 l 716 464 l 727 469 m 263 453 l 263 451 l 274 451 l 271 453 l 271 456 l 263 453 m 144 431 l 141 423 l 147 423 l 147 431 l 144 431 m 149 418 l 149 415 l 155 415 l 155 418 l 149 418 m 285 412 l 285 410 l 290 410 l 290 412 l 285 412 m 301 407 l 307 407 l 307 404 l 301 404 l 301 407 m 285 396 l 285 390 l 290 396 l 285 396 m 513 399 l 518 399 l 518 396 l 513 396 l 513 399 m 331 396 l 336 396 l 336 390 l 323 387 l 331 396 m 347 361 l 366 342 q 334 260 345 263 l 331 280 q 339 293 335 280 l 336 293 l 328 287 l 328 290 l 315 282 l 309 282 l 309 284 l 320 299 l 320 301 l 318 301 l 315 299 l 312 299 l 307 306 l 307 309 l 309 309 l 318 303 q 331 309 318 309 q 344 345 331 345 l 341 358 l 344 361 l 347 361 m 171 347 l 171 342 l 174 342 l 174 347 l 171 347 m 187 336 l 184 312 l 190 312 l 195 317 q 190 336 190 317 l 187 336 m 318 326 l 323 317 l 318 317 l 312 323 l 315 326 l 318 326 m 318 280 l 320 280 q 328 268 328 280 l 326 260 l 328 260 q 336 255 336 260 l 323 255 l 318 260 l 320 263 l 318 266 l 323 271 l 318 277 l 318 280 m 339 255 l 339 249 l 336 241 l 331 241 l 331 252 l 339 255 m 323 239 l 328 239 l 331 227 l 326 227 l 323 239 m 223 219 q 236 211 236 216 l 236 209 l 233 206 l 233 204 q 246 171 242 204 l 241 165 l 239 173 l 228 157 l 225 157 l 217 179 l 228 193 q 220 204 224 193 l 223 206 l 223 209 l 220 217 l 223 219 m 244 163 l 249 163 l 244 157 l 244 163 m 255 133 l 258 133 l 263 127 l 263 119 l 255 105 l 266 83 l 263 81 l 260 81 l 258 92 l 249 86 l 239 116 l 255 133 m 399 100 l 399 95 l 402 95 l 402 100 l 399 100 m 252 79 l 258 79 l 263 59 l 263 54 l 258 54 l 252 79 m 271 49 l 274 46 l 276 46 l 274 32 l 274 24 l 269 24 l 266 43 l 271 49 m 385 43 l 385 38 l 391 38 l 391 43 l 385 43 m 347 26 l 347 21 l 339 21 l 344 14 l 336 11 l 341 2 l 339 0 l 326 7 l 320 7 q 314 0 320 0 l 312 0 l 312 5 q 323 11 312 11 l 326 14 l 326 16 l 312 16 q 347 26 312 26 m 307 18 l 312 14 l 307 14 l 307 18 m 328 16 l 328 14 l 334 14 l 334 16 l 328 16 m 301 14 q 290 0 295 1 l 287 0 l 287 5 q 301 14 287 11 m 358 14 l 360 14 l 360 8 l 358 8 l 358 14 "},"о":{"x_min":0,"x_max":0,"ha":772},"Д":{"x_min":0,"x_max":0,"ha":941},"Ç":{"x_min":0,"x_max":0,"ha":1003},"Ŝ":{"x_min":0,"x_max":0,"ha":926},"C":{"x_min":-81,"x_max":1118,"ha":1148,"o":"m 548 1115 q 765 1071 651 1115 l 765 1068 l 659 965 l 591 965 l 588 952 l 574 955 l 536 955 q 195 732 321 955 l 171 651 q 184 643 184 649 q 166 607 166 643 l 166 567 l 173 572 q 184 564 184 568 l 166 559 l 166 550 l 168 539 l 166 537 l 166 534 l 184 507 l 209 520 l 217 512 l 217 507 l 211 502 l 192 502 l 192 491 l 190 491 q 184 499 190 499 l 184 497 q 201 483 191 483 l 198 480 l 198 478 l 201 475 l 228 485 l 233 478 l 233 475 q 209 466 233 469 l 209 463 l 211 461 q 198 436 209 436 l 190 439 l 187 436 l 187 434 l 201 399 l 228 407 l 233 399 l 233 396 l 228 391 l 209 391 q 217 374 211 374 l 220 374 l 230 382 l 238 374 l 220 368 l 220 365 q 586 157 358 157 q 683 171 628 157 l 689 166 q 710 178 699 178 l 713 176 l 713 152 l 708 152 l 708 157 l 705 157 q 615 134 705 134 l 580 134 q 211 328 360 134 q 136 572 136 439 q 368 944 136 813 q 536 982 443 982 l 550 982 q 632 973 599 982 l 716 1060 q 547 1088 616 1088 q 108 838 284 1088 q 32 567 32 714 q 341 79 32 251 q 566 27 448 27 l 607 27 l 621 30 l 621 27 l 713 46 l 719 41 l 721 41 q 745 54 721 54 l 765 38 q 743 27 765 31 l 737 46 l 735 46 l 735 43 l 737 27 l 735 24 l 730 24 l 730 30 l 727 30 q 686 10 727 16 l 683 19 l 681 19 q 645 5 681 5 l 642 3 l 640 3 l 640 5 q 591 0 627 0 l 564 0 q 86 274 276 0 q 5 572 5 407 l 5 575 l 2 586 q 48 786 15 708 q 171 957 87 872 q 548 1115 338 1115 m 1077 746 l 1082 746 q 1118 545 1118 633 l 1118 529 q 876 95 1118 275 q 808 57 822 57 l 805 57 q 800 65 800 57 l 797 65 q 792 48 792 65 q 773 41 781 41 l 754 57 q 770 65 756 65 l 781 59 q 800 79 781 79 l 803 76 q 876 127 803 83 q 1091 531 1091 299 l 1091 547 q 1066 697 1091 622 l 1063 697 l 982 613 q 989 534 989 600 q 781 181 989 321 l 721 154 l 719 157 l 719 185 l 748 195 l 754 190 q 792 220 754 203 q 963 537 963 352 l 954 626 l 1077 746 m 236 683 l 236 681 l 230 675 l 225 681 l 228 683 l 236 683 m 192 659 l 195 656 l 195 654 l 190 649 l 184 649 l 184 651 l 192 659 m 204 659 l 209 659 l 209 654 l 204 654 l 204 659 m 249 654 l 252 651 l 252 649 l 246 643 l 241 649 l 249 654 m 217 651 l 220 649 l 220 646 l 214 640 l 209 646 l 217 651 m 228 651 l 233 651 l 233 646 l 228 646 l 228 651 m 225 624 l 228 621 l 228 618 l 222 613 l 217 613 l 217 616 l 225 624 m 236 624 l 244 624 l 244 618 l 236 618 l 236 624 m 190 621 l 193 618 l 193 616 l 187 611 l 182 611 l 182 613 l 190 621 m 201 621 l 206 621 l 206 616 l 201 616 l 201 621 m 249 575 l 252 572 l 252 569 l 246 564 l 241 569 l 249 575 m -38 564 l -33 564 l -33 559 l -38 559 l -38 564 m -79 537 l -73 537 l -73 534 l -79 534 l -79 537 m -22 532 l -16 532 l -16 529 l -22 529 l -22 532 m -54 529 l -49 529 l -49 526 l -54 526 l -54 529 m 171 507 l 171 502 l 173 502 l 173 507 l 171 507 m -46 505 l -43 505 l -38 499 l -40 497 l -43 497 l -46 499 l -46 505 m -73 502 l -73 499 l -79 494 l -81 497 l -81 499 l -79 502 l -73 502 m 171 494 l 176 478 l 179 478 l 187 485 l 179 497 l 171 494 m 263 472 l 263 469 l 257 463 l 252 469 l 254 472 l 263 472 m 198 466 q 179 458 198 460 l 182 450 l 206 455 l 206 463 l 198 466 m -22 453 l -16 453 l -16 450 l -22 450 l -22 453 m 309 382 l 309 379 l 303 374 l 298 379 l 300 382 l 309 382 m 748 185 l 745 171 l 751 171 l 751 185 l 748 185 m 724 173 l 724 166 l 730 166 l 730 168 l 724 173 m 612 152 l 615 144 l 618 144 l 627 152 l 627 154 l 618 154 l 615 152 l 612 152 "},"Ĵ":{"x_min":0,"x_max":0,"ha":694},"È":{"x_min":0,"x_max":0,"ha":926},"ﬁ":{"x_min":0,"x_max":0,"ha":694},"X":{"x_min":0,"x_max":914,"ha":955,"o":"m 8 1077 l 192 1077 q 461 676 207 1065 l 463 676 q 496 718 476 702 q 513 738 498 733 l 513 727 l 507 721 l 505 724 l 496 700 l 502 694 l 502 692 l 466 630 l 458 630 q 179 1050 198 1027 l 56 1050 q 401 540 401 546 l 401 537 l 48 27 l 173 27 l 458 459 l 461 459 l 502 404 l 507 404 l 502 396 l 502 390 l 505 377 q 499 361 499 377 l 494 361 q 474 390 494 367 l 466 385 l 452 388 l 444 388 q 184 0 200 15 l 0 0 l 0 5 l 220 325 l 217 328 l 214 328 l 200 320 l 198 322 l 198 328 q 222 339 198 331 l 233 342 l 247 364 l 247 366 l 233 369 l 222 361 l 220 364 l 220 369 q 262 385 220 374 l 309 456 l 307 459 q 368 542 316 459 l 307 632 l 304 630 l 304 632 l 307 635 l 307 638 l 8 1071 l 8 1077 m 870 1077 l 876 1071 l 876 1055 l 881 1055 l 881 1050 l 876 1050 l 876 1023 q 808 919 876 1008 l 808 939 l 806 939 l 798 933 l 794 933 l 800 949 l 803 947 l 808 947 l 806 949 q 865 1050 806 964 l 800 1050 l 800 1055 q 808 1074 808 1055 l 811 1077 l 870 1077 m 895 1061 l 903 1061 l 903 1055 l 887 1033 l 887 1039 q 895 1061 889 1061 m 789 1056 l 792 1056 l 792 1050 l 789 1050 l 789 1056 m 705 1023 l 705 1020 q 667 942 689 957 l 665 942 l 665 947 q 702 1023 674 947 l 705 1023 m 670 985 l 670 982 l 665 955 l 659 955 q 670 985 661 985 m 648 952 l 651 952 l 654 933 q 637 925 646 933 l 632 930 q 648 952 642 950 m 654 928 l 656 928 l 656 919 q 637 895 641 896 l 637 914 l 654 928 m 608 895 l 613 895 l 610 871 l 616 871 l 616 865 l 610 860 l 608 860 l 605 882 l 608 895 m 632 895 l 637 895 l 637 892 q 623 874 627 874 l 618 874 q 632 895 623 888 m 786 895 l 792 895 l 792 892 l 786 882 l 784 882 l 778 887 l 786 895 m 768 890 l 770 890 l 770 887 l 765 879 l 773 879 l 768 874 l 765 874 l 762 876 l 760 876 l 760 870 q 768 865 760 865 l 768 857 q 699 763 710 769 l 694 763 l 694 765 q 705 797 694 779 l 702 808 l 746 876 l 749 876 l 751 874 l 754 874 q 768 890 758 885 m 602 879 l 602 876 l 599 874 l 602 860 l 602 852 l 596 852 l 594 876 l 596 879 l 602 879 m 773 871 l 773 865 l 768 865 l 773 871 m 754 860 l 754 855 l 757 855 l 757 860 l 754 860 m 746 855 l 746 849 l 749 849 l 749 855 l 746 855 m 678 771 l 680 744 l 689 744 l 689 741 q 648 708 670 708 l 645 697 l 654 703 l 662 703 l 613 635 l 610 638 q 602 616 610 616 l 605 613 l 605 608 l 602 611 l 599 608 l 596 608 l 594 611 l 591 611 q 556 548 589 587 l 553 548 l 550 551 l 548 551 l 543 526 l 543 524 l 545 524 l 553 532 l 550 535 l 550 540 l 553 540 q 559 532 559 540 l 562 535 l 564 535 l 578 502 l 580 505 l 586 505 l 583 502 l 583 499 l 586 491 l 583 491 q 589 453 589 482 l 594 459 l 594 478 l 599 478 q 608 467 599 467 l 610 464 l 610 461 l 608 439 l 610 423 l 608 421 l 605 421 l 580 456 l 583 459 l 580 469 l 578 467 l 570 467 l 567 478 l 578 488 l 572 488 l 572 491 l 575 499 l 572 502 l 567 502 l 567 496 l 570 485 l 567 478 q 550 502 560 478 l 553 505 l 553 507 l 550 518 l 542 513 l 540 513 l 540 516 l 542 518 l 542 521 q 521 545 527 521 l 529 556 l 531 559 l 537 559 l 537 554 l 542 554 q 553 569 542 567 l 553 580 q 559 594 553 594 l 567 591 l 570 594 l 570 597 q 562 602 562 597 l 564 605 l 567 605 l 575 602 l 589 618 l 586 621 l 596 635 l 591 640 q 602 646 591 646 l 602 662 q 613 681 613 674 l 618 681 l 616 667 l 624 667 l 627 678 l 621 684 q 632 700 627 684 q 651 718 639 700 l 659 716 l 659 718 l 662 729 l 662 738 l 656 738 l 656 741 l 662 746 l 665 744 q 678 771 665 763 m 692 763 l 694 763 l 694 757 l 692 757 l 692 763 m 521 751 l 521 749 l 513 738 l 513 741 l 521 751 m 656 648 l 662 643 l 656 638 l 651 638 l 651 643 l 656 648 m 567 640 l 572 640 l 572 635 l 567 635 l 567 640 m 643 640 l 648 640 l 648 635 l 643 635 l 643 640 m 515 611 l 518 611 l 518 608 l 513 602 l 510 602 l 510 605 l 515 611 m 510 602 l 510 597 l 505 597 l 510 602 m 572 586 l 572 580 l 578 586 l 572 586 m 608 588 l 610 586 l 610 583 l 602 575 l 596 575 l 608 588 m 567 578 l 567 573 l 572 578 l 567 578 m 648 580 l 654 575 l 648 569 l 643 569 l 643 575 l 648 580 m 586 575 l 594 573 l 594 570 l 583 570 l 586 573 l 586 575 m 637 573 l 640 573 l 640 569 l 634 564 l 632 564 l 632 567 l 637 573 m 293 567 l 298 567 l 298 561 l 293 561 l 293 567 m 629 564 l 632 564 l 632 551 l 629 551 l 624 556 l 624 559 l 629 564 m 583 548 l 586 548 l 586 542 l 583 542 l 583 548 m 648 542 l 654 542 l 654 540 l 648 540 l 648 542 m 627 540 l 632 535 l 627 529 l 621 529 l 621 535 l 627 540 m 618 532 l 618 529 l 613 524 l 610 526 l 610 529 l 613 532 l 618 532 m 271 526 l 277 526 l 277 524 l 271 524 l 271 526 m 596 516 l 602 516 l 602 513 l 596 507 l 591 507 l 591 510 l 596 516 m 507 505 l 507 499 l 502 499 l 507 505 m 621 496 l 627 491 l 627 485 l 621 485 l 616 491 l 621 496 m 233 494 l 238 488 l 236 486 l 230 486 l 225 491 l 227 494 l 233 494 m 293 459 l 304 459 l 304 453 l 296 450 l 296 453 q 257 434 271 446 l 247 434 l 244 437 l 241 437 l 230 428 l 227 431 l 227 437 q 277 450 245 450 l 290 456 l 293 459 m 618 437 l 629 437 l 629 431 l 610 412 l 608 415 l 608 418 q 613 426 613 418 q 618 437 618 426 m 225 426 l 230 421 l 227 418 l 222 418 l 217 423 l 220 426 l 225 426 m 627 421 l 632 415 l 632 412 l 627 418 l 627 421 m 257 418 l 260 415 l 260 412 l 257 410 l 254 410 l 252 412 l 252 415 l 254 418 l 257 418 m 461 410 l 452 396 l 455 396 l 469 398 q 461 410 465 410 m 629 393 q 662 379 662 393 q 689 344 670 375 l 689 342 q 651 364 651 350 l 651 366 l 648 364 l 645 364 l 624 390 l 627 393 l 629 393 m 203 385 l 209 379 l 206 377 l 200 377 l 195 382 l 198 385 l 203 385 m 510 374 l 513 372 l 515 372 l 518 374 l 564 304 l 562 296 l 564 296 l 567 299 l 570 299 q 583 271 583 281 l 580 260 l 583 258 q 578 246 578 258 l 575 244 l 572 244 l 510 339 l 521 355 l 513 358 l 505 355 l 505 369 l 510 374 m 521 342 l 521 336 l 529 339 l 529 342 l 521 342 m 692 331 l 692 325 l 694 328 l 697 328 l 707 314 l 705 312 l 702 312 l 694 314 l 694 312 l 697 290 l 692 290 l 683 304 l 686 320 l 683 328 l 686 331 l 692 331 m 583 258 l 594 258 q 613 225 613 237 l 613 209 l 618 209 l 618 217 l 621 217 l 643 187 l 637 179 l 643 162 l 640 155 l 643 155 q 662 122 662 152 l 667 122 q 654 159 659 154 l 654 165 l 659 165 q 686 119 659 158 l 686 114 l 673 116 l 673 109 l 683 98 l 686 98 l 686 109 l 692 109 l 699 100 l 689 98 l 689 92 q 722 65 722 80 q 746 27 742 42 l 770 27 l 784 16 l 786 16 l 784 18 l 784 27 l 873 27 l 798 143 l 808 146 l 808 149 q 798 155 798 149 l 800 165 l 794 165 l 794 157 l 789 157 q 762 195 762 184 l 765 195 l 784 209 q 816 162 787 187 q 914 10 914 18 l 914 5 l 908 0 l 887 0 l 878 5 l 873 0 l 743 0 l 740 2 l 738 0 l 735 0 q 662 114 682 71 q 624 165 652 120 l 627 179 l 624 179 l 616 176 l 616 179 l 613 193 l 618 198 l 613 203 l 605 198 q 591 220 591 210 l 594 220 l 596 222 q 586 231 596 231 l 586 233 l 589 244 l 583 258 m 746 254 l 748 254 q 754 246 754 254 l 751 233 q 762 225 762 233 l 765 227 l 770 227 l 770 225 l 768 217 l 770 214 l 768 211 l 757 217 l 757 214 l 760 211 l 760 209 l 757 206 l 754 206 l 746 214 l 746 220 l 749 231 l 746 233 l 746 235 l 749 238 l 749 241 l 746 254 m 624 198 l 624 193 l 627 193 l 627 198 l 624 198 m 618 190 l 618 185 l 624 185 l 624 190 l 618 190 m 776 187 l 776 181 l 781 181 l 781 187 l 776 187 m 792 174 l 792 171 l 803 171 l 803 174 l 792 174 "},"ô":{"x_min":0,"x_max":0,"ha":772},"Ė":{"x_min":0,"x_max":0,"ha":926},"г":{"x_min":0,"x_max":0,"ha":507},"Ŀ":{"x_min":0,"x_max":0,"ha":772},"х":{"x_min":0,"x_max":0,"ha":694},"╚":{"x_min":0,"x_max":0,"ha":984},"ŋ":{"x_min":0,"x_max":0,"ha":772},"Ч":{"x_min":0,"x_max":0,"ha":926},"∟":{"x_min":0,"x_max":0,"ha":1360},"ü":{"x_min":0,"x_max":0,"ha":772},"ь":{"x_min":0,"x_max":0,"ha":724},"Ÿ":{"x_min":0,"x_max":0,"ha":926},"€":{"x_min":0,"x_max":0,"ha":772},"в":{"x_min":0,"x_max":0,"ha":738},"Η":{"x_min":0,"x_max":0,"ha":1003},"С":{"x_min":0,"x_max":0,"ha":1003},"ß":{"x_min":0,"x_max":0,"ha":848},"└":{"x_min":0,"x_max":0,"ha":984},"њ":{"x_min":0,"x_max":0,"ha":1128},"Ű":{"x_min":0,"x_max":0,"ha":1003},"♣":{"x_min":0,"x_max":0,"ha":911},"c":{"x_min":0,"x_max":863,"ha":894,"o":"m 398 863 l 407 860 l 418 863 l 423 863 l 423 857 l 415 857 l 418 854 l 418 849 l 412 849 q 393 860 398 849 l 377 854 l 374 857 l 374 852 q 388 844 388 852 l 396 849 l 404 841 l 412 844 l 415 841 l 428 863 l 442 863 q 447 852 442 852 l 447 839 l 439 844 l 437 844 l 437 839 l 431 839 l 434 841 l 434 844 l 431 852 l 428 852 l 418 836 l 398 836 q 86 653 221 836 q 27 436 27 555 q 271 62 27 198 q 442 27 359 27 q 797 249 664 27 q 836 418 836 335 q 795 589 836 489 l 792 589 l 716 512 q 735 409 735 456 l 735 407 q 542 138 735 231 q 449 125 488 125 q 138 350 246 125 q 122 456 122 413 q 197 640 122 568 q 284 710 231 680 q 401 736 352 736 q 513 721 442 736 l 586 797 q 463 836 522 820 l 461 839 l 461 841 l 463 844 l 466 844 l 472 839 l 477 839 q 491 854 491 843 l 496 854 l 496 846 l 499 849 l 510 849 l 510 846 l 507 844 l 507 841 l 510 841 l 518 846 l 525 846 l 525 841 l 536 844 q 631 802 621 816 l 562 737 q 515 689 562 730 q 401 708 467 708 q 168 556 263 708 l 168 562 l 165 562 l 165 559 l 168 556 l 168 553 q 149 453 149 495 q 342 173 149 276 q 453 152 398 152 q 691 320 607 152 q 708 412 708 367 q 683 520 708 455 l 800 634 q 863 409 863 525 q 672 70 863 211 q 442 0 567 0 q 119 140 254 0 q 0 441 0 267 q 227 818 0 681 l 306 849 l 309 836 l 312 839 q 331 854 331 849 l 342 854 l 339 852 l 339 849 l 347 844 l 350 844 l 350 846 q 342 857 343 846 l 350 857 l 350 852 l 356 852 l 356 860 l 361 860 q 366 852 361 852 q 398 863 373 863 m 450 860 l 458 860 l 458 857 l 452 852 l 450 852 l 450 860 m 483 857 l 485 857 l 485 852 l 477 852 l 483 857 m 356 844 l 356 841 l 371 839 l 374 841 l 374 846 l 356 844 m 494 844 l 494 841 l 505 841 l 505 844 l 494 844 m 296 841 l 296 836 l 301 836 l 296 841 m 336 841 l 336 839 l 342 833 l 342 836 l 336 841 m 323 839 l 323 836 l 328 836 l 328 839 l 323 839 m 458 841 l 458 833 l 452 833 l 447 839 l 458 841 m 290 833 l 290 829 l 296 829 l 296 833 l 290 833 m 315 833 l 315 826 l 320 833 l 315 833 m 195 623 l 192 621 l 192 615 l 206 618 l 206 621 l 195 623 m 37 605 l 43 605 l 43 610 l 37 605 m 144 532 l 144 529 l 152 529 l 152 532 l 144 532 m 518 268 l 518 266 l 513 260 l 513 263 l 518 268 m 616 249 l 621 249 l 621 244 l 616 244 l 616 249 m 640 249 l 646 249 l 646 247 l 640 247 l 640 249 m 483 239 l 485 239 l 485 233 l 483 233 l 483 239 m 491 225 q 502 214 499 222 q 493 190 499 190 q 485 223 487 190 l 488 225 l 491 225 m 567 223 l 570 223 l 570 220 l 562 212 l 559 212 l 559 214 l 567 223 m 559 212 l 559 209 l 553 203 l 553 206 l 559 212 m 157 117 l 157 111 l 162 117 l 157 117 "},"¶":{"x_min":0,"x_max":0,"ha":746},"Ή":{"x_min":0,"x_max":0,"ha":1164},"γ":{"x_min":0,"x_max":0,"ha":694},"­":{"x_min":0,"x_max":399,"ha":432,"o":"m 315 819 l 320 819 l 320 813 l 315 813 l 315 819 m 5 811 l 148 811 l 151 808 l 154 808 l 157 811 q 166 800 161 800 q 171 811 166 811 l 189 811 l 194 805 q 184 784 188 784 l 163 784 l 154 787 l 140 784 l 27 784 l 27 686 l 160 686 l 157 672 l 157 670 l 163 664 q 173 680 163 680 l 184 686 l 244 686 q 249 677 249 686 l 252 675 l 255 675 l 266 686 l 372 686 l 372 778 l 366 784 l 331 784 q 326 792 331 792 l 326 784 l 269 784 l 269 794 q 276 811 270 811 l 284 811 l 301 808 l 312 811 l 315 808 l 312 805 l 312 797 l 317 797 q 323 811 317 811 l 326 811 l 328 808 l 331 811 l 393 811 l 399 805 l 399 664 l 393 659 l 312 659 l 315 656 l 315 651 l 312 651 l 293 659 l 255 659 l 255 670 l 250 670 l 250 659 l 217 659 l 214 656 l 211 659 l 206 659 l 176 660 l 132 660 l 5 660 l 0 664 l 0 805 l 5 811 m 214 811 l 220 811 q 228 782 225 811 q 192 789 192 782 q 209 797 201 797 l 209 800 l 206 803 l 206 805 l 214 811 m 234 811 l 246 803 l 250 803 q 255 811 250 811 l 258 808 l 258 787 l 252 787 l 252 792 l 244 792 q 238 784 244 784 l 228 784 l 234 792 l 234 803 l 231 805 l 231 808 l 234 811 m 323 794 l 328 794 l 328 800 l 323 794 m 309 789 l 312 787 l 315 787 l 315 794 l 309 789 m 273 757 l 276 757 l 276 751 l 269 751 l 273 757 m 276 743 l 276 735 l 271 735 l 271 737 l 276 743 m 263 711 l 266 711 l 266 708 l 260 702 l 258 702 l 258 705 l 263 711 "},":":{"x_min":-135.5625,"x_max":301.859375,"ha":209,"o":"m 109 909 l 109 906 l 103 900 l 103 903 l 109 909 m 296 898 l 301 892 l 296 887 l 291 887 l 291 892 l 296 898 m 207 890 l 212 890 l 212 884 l 207 884 l 207 890 m 231 890 l 236 890 l 236 887 l 231 887 l 231 890 m 283 890 l 288 890 l 288 884 l 283 884 l 283 890 m 73 879 l 76 879 l 76 874 l 73 874 l 73 879 m 82 865 q 95 843 90 865 l 101 843 q 106 860 101 860 l 117 860 q 127 836 123 860 l 125 833 l 82 833 l 79 836 l 76 833 l 71 833 l 71 855 l 82 865 m 161 862 l 161 860 q 149 852 161 852 l 152 839 l 149 839 l 152 836 l 152 830 l 149 833 l 147 833 l 147 830 q 162 792 154 797 l 160 773 l 160 760 l 171 760 l 171 757 q 152 730 152 755 l 141 716 l 143 703 l 143 692 l 160 689 l 160 616 l 155 611 l 82 611 l 79 613 l 76 611 l 71 611 l 62 621 l 60 624 l 55 624 l 57 611 l 51 611 q 46 624 46 611 l 43 624 l 30 611 l 9 611 l 3 616 l 13 635 l 11 643 l 13 646 l 17 646 l 19 643 l 19 648 l 9 662 l 17 665 l 13 668 q 25 689 19 689 l 27 686 l 25 684 l 25 678 l 30 670 l 27 670 l 30 668 l 30 638 l 46 638 q 52 627 52 638 l 55 630 l 57 630 l 60 627 l 62 627 q 67 638 62 638 l 76 638 l 82 632 l 82 630 l 79 616 l 86 616 l 92 621 l 92 627 l 86 627 l 86 635 l 101 638 l 133 638 l 133 762 l 141 762 l 141 770 q 133 795 141 784 l 139 800 l 139 816 l 133 839 l 136 839 l 144 836 l 144 841 l 139 841 l 139 843 q 147 849 139 849 l 147 855 l 141 855 l 141 860 l 161 862 m 38 860 l 40 857 l 46 852 l 49 852 l 49 847 l 43 847 l 30 852 l 38 860 m 76 847 l 76 839 l 79 839 l 79 847 l 76 847 m 212 847 l 215 844 l 215 841 l 212 839 l 209 839 l 207 841 l 207 844 l 209 847 l 212 847 m 25 844 l 30 844 l 30 822 q 22 814 22 822 l 19 814 l 11 822 l 11 827 q 25 844 25 827 m 247 833 l 247 830 l 242 824 l 242 827 l 247 833 m 269 814 l 272 814 l 272 803 l 269 803 l 263 808 l 269 814 m 13 805 l 17 803 l 17 800 q 8 784 8 797 l 3 784 l 3 795 l 13 805 m 22 795 l 22 784 l 17 784 l 13 792 l 17 795 l 22 795 m 11 773 l 13 773 l 22 765 q 16 754 16 765 l 13 757 l 11 757 l 13 765 l 11 773 m 204 760 l 209 754 l 207 752 l 204 752 l 204 760 m 19 754 l 19 752 l 13 746 l 11 746 l 19 754 m 103 754 l 112 754 l 112 752 l 106 746 l 103 746 l 103 754 m -127 743 l -121 738 l -124 735 l -130 735 l -135 740 l -132 743 l -127 743 m -27 743 l -11 743 l -11 738 l -27 738 l -27 743 m 3 740 l 9 740 l 9 738 l 3 738 l 3 740 m 16 730 l 25 730 l 25 724 l 19 719 l 16 721 l 16 730 m -19 721 l -13 721 l -13 719 l -19 719 l -19 721 m 27 716 l 30 716 l 30 700 l 22 697 l 19 700 q 5 684 17 684 l 5 689 q 27 716 21 713 m 155 713 l 160 713 l 160 711 l 155 705 l 155 713 m -62 708 l -57 708 l -57 703 l -62 703 l -62 708 m -67 705 l -67 700 q -105 684 -88 697 l -119 686 l -130 678 l -132 681 l -132 686 q -67 705 -118 697 m 3 684 l 9 678 l 9 675 l 3 675 l 3 684 m -2 675 l -2 668 l -8 668 l -8 670 l -2 675 m 17 630 l 17 627 l 19 627 l 25 632 l 25 635 l 22 635 l 17 630 m 9 250 l 43 250 l 49 244 l 49 230 l 55 230 q 63 250 55 250 q 71 225 69 250 l 67 223 l 62 223 l 55 227 l 38 223 l 30 223 l 30 27 l 67 27 l 67 5 l 62 0 l 30 0 l 22 5 l 13 0 l 9 0 l 3 5 l 3 214 l 5 217 l 3 220 l 3 244 l 9 250 m 86 250 l 155 250 l 160 244 l 160 187 q 149 160 152 179 q 158 154 158 160 l 158 143 q 143 135 158 137 q 134 159 134 151 l 134 176 l 141 176 l 141 185 q 134 204 134 185 l 134 214 l 136 217 l 136 220 l 103 225 l 95 223 q 82 239 92 239 l 79 236 l 79 231 l 82 227 l 82 225 l 76 225 l 74 239 l 74 247 l 86 250 m 104 244 l 104 239 l 114 233 l 117 233 l 117 235 q 104 244 117 242 m 117 231 l 117 225 l 122 231 l 117 231 m 133 138 l 136 138 l 141 133 l 139 130 l 139 128 q 147 114 144 128 l 143 114 l 133 111 l 133 114 l 136 125 l 133 133 l 136 135 l 133 138 m 19 125 l 17 114 l 22 114 l 22 125 l 19 125 m 9 109 l 9 100 l 13 100 l 13 109 l 9 109 m 143 111 l 149 111 l 160 100 l 160 51 q 152 46 160 46 l 152 41 l 160 41 l 160 5 l 155 0 l 152 0 l 117 13 l 106 13 q 100 0 106 0 l 79 0 l 74 5 l 74 16 l 76 18 l 76 21 l 79 18 l 86 18 q 92 27 86 27 l 133 27 l 133 41 l 136 43 l 133 46 l 133 54 l 136 54 l 147 46 l 149 46 q 155 57 149 57 q 136 65 155 62 l 133 83 l 133 106 l 143 111 "},"╓":{"x_min":0,"x_max":0,"ha":984},"ś":{"x_min":0,"x_max":0,"ha":694}," ":{"x_min":0,"x_max":0,"ha":386},"У":{"x_min":0,"x_max":0,"ha":882},"¾":{"x_min":0,"x_max":0,"ha":1158},"Ί":{"x_min":0,"x_max":0,"ha":533},"ŉ":{"x_min":0,"x_max":0,"ha":839},"┴":{"x_min":0,"x_max":0,"ha":984},"Ģ":{"x_min":0,"x_max":0,"ha":1080},"m":{"x_min":0,"x_max":1236,"ha":1273,"o":"m 798 901 l 803 901 l 803 898 l 798 898 l 798 901 m 352 868 l 358 863 l 352 863 l 352 868 m 396 851 l 401 851 l 401 849 l 396 841 l 403 841 l 403 835 q 393 827 403 827 l 393 822 l 407 822 q 425 841 407 829 l 425 833 l 428 833 l 441 836 l 463 830 l 470 836 q 513 817 489 820 q 524 828 524 820 l 526 828 l 534 803 l 537 803 l 550 806 q 608 757 550 795 q 626 773 608 762 l 629 773 l 629 770 q 610 757 629 766 l 610 754 q 635 725 635 730 l 648 738 l 643 746 l 648 751 q 654 743 654 751 q 678 773 663 746 l 680 771 l 683 771 l 700 781 l 700 789 l 703 787 l 705 787 q 908 844 802 844 q 1163 730 1085 844 q 1171 721 1163 721 q 1221 586 1216 640 q 1212 578 1221 578 l 1212 572 l 1221 578 q 1231 523 1226 578 l 1221 520 l 1221 518 q 1236 483 1236 518 l 1236 409 l 1236 24 l 1228 13 l 1234 8 l 1234 2 l 1231 5 l 1228 5 l 1221 0 l 1093 0 l 1088 5 l 1088 439 q 992 678 1088 638 q 897 695 962 689 q 708 556 756 695 l 703 526 l 708 526 q 697 414 697 526 l 697 5 l 691 0 l 556 0 l 550 5 l 550 409 l 550 510 l 545 513 l 543 513 l 545 520 q 524 594 535 594 l 526 597 l 526 602 l 524 599 l 521 602 l 518 602 q 491 586 501 597 l 477 589 l 472 583 l 466 583 l 461 589 q 521 610 481 610 l 505 634 l 496 632 l 496 637 l 499 640 l 499 643 q 452 676 468 669 l 450 676 l 412 667 l 412 673 l 439 678 l 439 681 l 428 684 l 426 681 q 399 689 426 689 l 393 684 l 391 684 l 391 686 l 393 689 l 393 692 l 344 692 q 182 602 240 692 q 152 398 152 564 l 152 5 l 146 0 l 5 0 l 0 5 l 0 646 l 2 648 l 0 651 l 0 676 l 2 678 l 0 681 l 0 822 l 5 828 l 92 828 l 95 830 l 97 828 l 117 828 l 117 822 l 127 822 l 136 828 q 141 820 141 828 l 144 820 l 144 825 l 141 828 l 146 828 l 152 822 l 152 776 q 195 809 195 803 l 198 809 l 200 806 l 203 806 q 216 814 203 812 l 214 817 l 214 820 l 216 820 l 219 817 l 244 825 l 260 822 l 269 822 l 269 825 l 263 825 l 263 830 l 268 830 q 274 822 274 830 l 306 822 l 309 825 l 311 822 l 314 822 l 325 825 l 336 822 l 349 825 l 347 827 l 347 833 l 352 833 l 352 828 l 361 828 l 376 844 l 379 844 l 382 841 q 396 851 396 843 m 342 846 l 347 841 l 342 841 l 342 846 m 331 841 l 336 841 l 336 835 l 331 835 l 331 841 m 290 836 l 293 836 l 293 830 l 290 830 l 290 836 m 675 836 l 680 830 l 678 822 l 675 822 l 670 827 l 670 830 l 675 836 m 502 830 l 504 830 l 504 825 l 502 825 l 502 830 m 664 828 l 670 822 l 667 820 l 664 820 l 659 825 l 661 828 l 664 828 m 193 820 l 193 811 l 184 814 l 184 817 l 193 820 m 144 746 l 144 752 l 136 752 l 136 743 l 146 740 l 146 735 l 127 716 l 125 716 l 125 732 l 122 740 l 125 754 l 125 801 l 27 801 l 27 27 l 125 27 l 125 401 q 173 637 125 598 q 357 720 239 720 q 393 716 393 720 l 396 719 q 529 651 461 719 q 578 403 578 594 l 578 27 l 670 27 l 670 417 q 740 662 670 616 q 898 722 802 722 q 1096 597 1052 722 q 1115 431 1115 525 l 1115 27 l 1210 27 l 1210 407 q 1158 695 1210 588 q 1063 781 1102 771 q 908 817 999 817 q 638 684 743 817 l 635 684 q 366 817 533 817 q 157 746 248 817 l 144 746 m 556 820 l 562 820 l 562 817 l 556 811 l 556 820 m 705 817 l 708 817 l 708 814 l 697 803 l 697 806 l 705 817 m 735 817 l 738 814 l 738 811 l 735 808 l 732 808 l 730 811 l 730 814 l 732 817 l 735 817 m 638 808 l 643 808 l 643 803 l 638 803 l 638 808 m 703 803 l 708 803 l 708 798 l 703 798 l 703 803 m 621 801 l 624 801 l 624 795 l 621 795 l 621 801 m 594 784 l 594 781 l 588 776 l 586 778 l 586 781 l 588 784 l 594 784 m 667 784 l 675 784 l 675 776 l 672 776 l 667 781 l 667 784 m 1145 725 l 1145 722 l 1150 722 l 1150 725 l 1145 725 m 361 684 l 374 681 l 374 676 l 352 676 l 352 678 q 361 684 352 684 m 282 673 l 287 667 q 277 656 277 665 l 271 656 l 271 659 l 282 673 m 803 667 l 806 665 l 806 657 l 800 657 l 795 662 l 803 667 m 385 665 l 385 659 l 375 656 l 375 662 l 385 665 m 366 662 l 369 659 l 369 656 l 366 654 l 363 654 l 361 656 l 358 654 l 353 654 q 366 662 353 658 m 827 662 l 832 656 l 824 648 l 822 651 l 822 656 l 827 662 m 816 654 l 822 648 l 819 646 l 816 646 l 811 651 l 814 654 l 816 654 m 336 651 l 336 646 l 317 640 l 317 646 l 336 651 m 466 651 l 477 648 l 477 646 l 472 640 l 466 640 l 461 646 l 466 651 m 311 643 l 311 637 q 274 621 298 637 l 249 616 l 246 618 l 246 623 q 287 640 246 628 l 290 638 l 293 638 l 311 643 m 884 643 l 884 640 l 875 632 l 873 632 l 873 637 l 884 643 m 178 638 l 178 632 l 182 632 l 182 638 l 178 638 m 773 627 l 775 627 l 775 621 l 773 621 l 773 627 m 376 613 l 376 605 l 372 605 l 372 607 l 376 613 m 743 611 l 746 607 l 746 605 l 743 602 l 740 602 l 738 605 l 738 607 l 740 611 l 743 611 m 775 597 l 779 597 l 779 594 l 773 589 l 767 589 l 775 597 m 800 578 l 803 578 l 803 567 l 800 567 l 795 572 l 800 578 m 494 572 l 494 564 l 485 564 l 485 569 l 494 572 m 749 569 l 754 569 l 754 567 l 749 567 l 749 569 m 735 523 l 740 518 l 738 516 l 735 516 l 735 523 m 403 507 l 409 502 l 407 499 l 401 499 l 396 504 l 399 507 l 403 507 m 505 507 l 521 507 l 521 502 l 505 502 l 505 507 m 513 485 l 518 485 l 518 483 l 513 483 l 513 485 m 470 472 l 475 472 l 475 466 l 470 466 l 470 472 m 463 469 l 463 463 q 425 447 441 461 l 412 450 q 401 441 412 446 l 399 444 l 399 450 q 463 469 413 461 m 529 439 l 529 431 l 524 431 l 524 433 l 529 439 m 1187 16 l 1193 11 l 1196 13 l 1196 16 l 1187 16 m 1163 11 l 1163 5 l 1169 5 l 1163 11 m 1218 11 l 1218 5 l 1221 5 l 1221 11 l 1218 11 "},"Е":{"x_min":0,"x_max":0,"ha":926},"ž":{"x_min":0,"x_max":0,"ha":694},"╞":{"x_min":0,"x_max":0,"ha":984},"á":{"x_min":0,"x_max":871,"ha":884,"o":"m 844 898 l 851 898 l 851 895 l 846 889 l 844 892 l 844 898 m 768 892 l 768 887 l 762 887 l 768 892 m 567 871 l 578 871 l 578 865 l 567 857 l 561 865 l 567 871 m 694 871 l 700 871 l 700 857 l 697 857 l 689 865 l 694 871 m 729 871 l 735 865 l 732 849 l 729 849 q 719 854 729 854 q 727 860 719 860 l 724 862 l 724 865 l 729 871 m 770 871 l 779 871 l 779 868 l 768 857 l 762 857 l 762 860 l 770 871 m 794 871 l 800 871 l 800 865 l 789 862 l 789 865 l 794 871 m 673 862 l 675 862 l 675 857 l 673 857 l 673 862 m 741 862 l 750 862 l 746 857 l 741 857 l 741 862 m 787 860 l 787 855 l 781 855 l 787 860 m 711 857 l 711 851 l 700 849 l 700 855 l 711 857 m 840 857 l 840 854 q 819 846 840 849 l 819 843 l 822 841 l 822 838 l 824 841 l 835 841 l 835 835 l 830 835 l 830 833 l 846 830 l 844 827 l 844 10 l 837 5 l 697 5 l 692 10 l 692 80 l 642 40 l 640 42 q 447 -14 536 -14 l 439 -14 l 442 -16 l 442 -19 l 363 -11 l 358 -27 l 353 -27 l 353 -24 l 355 -11 l 276 7 l 260 -3 l 252 -5 l 244 -3 l 238 -8 l 233 -8 l 228 -3 q 257 13 228 5 q 176 61 199 44 q 0 420 0 192 q 24 526 0 526 l 27 523 l 29 523 l 41 526 q 27 398 27 470 l 29 377 l 27 377 q 100 175 49 238 q 409 13 225 13 l 434 13 q 702 132 593 13 l 713 148 l 719 148 l 719 32 l 817 32 l 817 806 l 759 806 l 743 817 l 746 827 l 741 827 l 741 819 l 735 819 l 722 836 l 722 837 l 727 837 l 727 833 l 741 833 l 753 836 l 743 849 l 743 851 l 745 851 q 750 843 750 851 l 753 841 l 765 841 q 776 852 776 845 l 779 852 l 794 841 l 789 836 l 787 836 l 784 838 l 781 838 l 781 833 l 802 833 l 805 836 l 808 836 l 811 833 q 819 855 811 855 l 840 857 m 762 851 l 762 846 l 756 846 l 762 851 m 854 851 l 857 849 l 857 846 l 851 841 l 846 841 l 846 843 l 854 851 m 866 852 l 871 852 l 871 846 l 866 846 l 866 852 m 415 849 l 415 846 l 417 849 l 464 849 l 464 841 l 469 841 q 475 849 469 849 l 488 841 l 496 843 l 488 833 l 475 838 l 475 836 q 466 822 475 822 l 464 825 l 450 822 l 436 822 q 81 629 207 822 l 68 629 l 73 634 l 76 631 l 81 642 l 71 648 l 71 659 q 415 849 207 849 m 518 849 l 523 849 q 537 838 523 838 l 539 841 l 550 833 l 559 836 l 559 833 l 561 822 l 564 825 l 567 825 q 578 803 573 825 l 578 800 l 575 797 l 575 795 q 537 811 537 806 l 553 822 l 553 825 l 534 830 l 534 827 q 523 811 534 817 l 499 817 q 518 846 499 832 l 518 849 m 738 846 l 746 843 l 746 841 l 741 836 l 729 836 l 729 843 l 738 846 m 773 836 l 773 833 l 779 833 l 779 836 l 773 836 m 672 833 l 675 830 l 678 830 l 675 827 l 675 825 l 678 822 l 678 819 l 672 814 l 678 808 l 678 795 l 683 795 l 716 808 l 719 806 l 719 800 l 713 792 l 713 789 l 719 780 l 719 776 l 716 773 l 719 770 l 719 762 l 713 757 q 683 779 697 779 l 667 803 l 672 808 q 665 813 665 808 l 665 819 l 667 817 l 670 817 l 672 833 m 851 833 l 860 833 l 860 827 l 851 827 l 851 833 m 651 827 l 659 827 l 659 822 l 651 822 l 651 827 m 607 811 l 610 811 l 610 806 l 607 806 l 607 811 m 640 803 l 640 795 l 642 795 l 651 800 l 654 800 l 654 797 l 642 787 l 629 787 l 629 792 l 632 792 l 634 789 l 637 789 l 637 792 l 632 800 l 634 803 l 640 803 m 670 789 l 672 789 l 672 784 l 670 784 l 670 789 m 700 787 l 700 780 l 705 780 l 705 787 l 700 787 m 659 780 l 659 779 l 656 776 l 656 773 l 675 773 l 675 767 q 656 754 656 767 l 651 754 l 632 767 l 634 770 l 637 770 l 648 767 l 648 773 l 629 776 l 629 779 l 659 780 m 673 757 l 675 757 l 675 751 l 673 751 l 673 757 m 692 745 l 694 743 l 697 743 l 708 745 l 719 737 l 719 689 l 716 689 l 667 740 l 667 743 l 689 743 l 692 745 m 79 648 l 84 648 l 90 654 l 84 654 l 79 648 m 41 610 l 71 610 l 71 607 l 68 604 l 68 601 l 57 604 l 43 601 l 41 604 l 41 610 m 43 599 l 54 588 l 57 591 l 62 591 q 54 575 60 575 l 49 580 l 46 578 l 43 578 l 32 588 l 43 599 m 41 588 l 41 585 l 46 591 l 46 593 l 41 588 m 29 569 q 41 561 41 565 l 32 553 l 22 553 l 22 561 l 29 569 m 49 564 l 52 561 l 52 558 l 46 548 l 38 548 l 38 556 l 46 556 l 43 558 l 43 561 l 46 564 l 49 564 m 19 540 l 27 534 l 32 540 l 41 540 l 41 534 l 38 537 l 24 529 l 19 529 l 19 540 m 8 456 l 8 450 l 10 450 l 10 456 l 8 456 m 255 -22 l 260 -22 l 260 -27 l 255 -27 l 255 -22 m 460 1261 l 631 1261 l 634 1259 l 636 1259 q 397 950 429 985 l 281 950 l 276 955 l 276 958 l 379 1128 l 382 1126 l 384 1126 q 392 1155 390 1126 l 460 1261 m 390 1242 l 395 1242 l 395 1237 l 390 1237 l 390 1242 m 319 977 l 385 977 l 583 1231 l 583 1234 l 477 1234 q 319 977 469 1229 m 328 1224 l 330 1224 l 330 1218 l 322 1218 l 328 1224 m 314 1209 l 314 1204 l 300 1201 l 300 1207 l 314 1209 m 175 1207 l 181 1207 q 173 1183 178 1183 l 173 1188 l 175 1207 m 385 1185 l 390 1185 l 390 1180 l 385 1180 l 385 1185 m 325 1169 l 328 1166 l 328 1163 l 314 1158 q 325 1169 315 1166 m 355 1169 l 360 1150 l 357 1150 q 341 1158 341 1152 q 349 1166 349 1158 l 352 1169 l 355 1169 m 308 1152 l 300 1145 l 295 1145 l 295 1150 l 308 1152 m 170 1150 l 175 1150 q 168 1126 173 1126 l 168 1131 l 170 1150 m 256 1115 l 262 1115 q 254 1091 259 1091 l 254 1095 l 256 1115 m 349 1112 l 355 1093 l 352 1093 q 336 1101 336 1095 q 344 1109 344 1101 l 346 1112 l 349 1112 "},"×":{"x_min":0,"x_max":0,"ha":811},"п":{"x_min":0,"x_max":0,"ha":752},"Ǻ":{"x_min":0,"x_max":0,"ha":926},"K":{"x_min":-66,"x_max":775.265625,"ha":800,"o":"m 10 1077 l 154 1077 l 160 1071 l 160 754 q 189 714 160 741 l 192 716 l 192 714 l 189 711 l 189 708 q 200 695 200 703 l 213 697 l 213 692 l 216 692 l 225 695 l 225 692 l 227 695 l 229 695 l 232 692 q 246 708 244 692 q 268 718 256 708 q 279 711 279 714 q 263 703 263 707 l 268 697 l 235 683 l 225 689 l 219 683 l 222 680 l 222 678 l 219 676 l 219 673 l 222 670 l 225 670 l 227 673 l 227 670 l 229 673 l 232 673 l 235 670 l 238 670 l 244 678 l 257 670 q 262 678 257 678 l 268 678 l 271 676 l 274 676 q 328 746 282 692 l 377 814 l 382 814 l 382 800 l 387 800 l 393 836 l 400 836 l 400 798 l 393 792 l 387 798 l 385 798 l 385 792 q 377 779 377 792 l 379 776 l 374 776 q 328 703 374 757 l 246 599 l 133 735 l 133 1050 l 32 1050 l 32 32 l 37 27 l 133 27 l 133 592 l 135 592 l 607 27 l 724 27 l 409 406 l 412 409 l 412 412 l 409 420 l 414 426 l 412 429 l 409 429 q 404 418 404 429 l 401 418 q 360 475 360 459 l 358 472 l 355 472 q 314 523 314 516 l 349 569 l 352 569 l 355 567 l 358 567 l 358 569 l 355 580 l 436 680 q 452 662 450 670 q 439 646 449 650 q 431 657 432 646 l 426 657 q 406 629 426 632 q 417 624 406 624 l 420 621 l 420 618 l 385 569 q 352 529 362 548 q 374 491 352 517 l 401 502 l 406 494 l 406 491 l 401 486 l 382 486 l 382 483 q 426 437 398 458 q 447 401 426 429 q 455 396 447 396 q 472 372 462 372 q 775 5 775 15 l 775 2 l 772 0 l 596 0 q 227 439 580 12 q 198 464 208 464 l 198 461 l 195 464 l 192 464 l 176 459 l 176 461 l 179 464 l 179 466 l 173 472 l 165 469 q 192 426 178 440 l 211 437 l 222 437 l 225 423 l 222 421 l 200 421 l 200 415 l 198 415 l 195 418 l 181 415 l 176 415 q 184 420 176 420 l 187 423 l 187 426 q 165 459 179 426 l 160 459 l 162 456 l 160 442 l 160 5 l 154 0 l 10 0 l 5 5 l 5 551 l 2 561 l 5 572 l 5 1071 l 10 1077 m 583 1077 l 770 1077 l 770 1074 l 756 1060 q 512 741 756 1049 l 509 744 l 507 744 l 507 741 l 509 733 l 504 733 q 493 749 504 741 l 490 757 l 716 1047 l 716 1050 l 596 1050 l 447 860 l 444 860 l 444 871 l 442 871 l 439 860 l 442 849 l 426 833 l 420 833 l 420 839 l 417 839 l 417 836 l 420 824 q 409 811 414 812 l 406 811 l 406 816 l 412 816 l 412 857 l 458 914 q 466 904 459 904 l 469 904 l 469 906 q 458 914 469 913 l 458 917 l 485 954 l 583 1077 m 477 933 l 477 928 l 482 928 l 482 933 l 477 933 m 469 920 l 474 920 l 474 925 l 469 920 m 455 906 l 455 898 l 461 898 l 461 901 l 455 906 m 444 885 l 444 876 l 447 876 l 447 885 l 444 885 m 417 860 l 417 852 l 423 852 l 423 854 l 417 860 m 401 844 l 406 844 l 406 836 l 401 836 l 401 844 m 385 790 l 390 790 l 390 784 l 385 790 m 192 779 l 200 776 l 200 773 q 176 762 200 767 l 176 765 l 192 779 m 271 779 l 271 776 l 265 770 l 260 776 l 263 779 l 271 779 m 281 765 l 284 762 l 284 760 l 279 754 l 274 754 l 274 757 l 281 765 m 293 765 l 298 765 l 298 760 l 293 760 l 293 765 m 205 762 l 214 760 l 214 757 q 187 746 214 751 l 187 751 l 205 762 m 479 744 l 485 744 l 485 735 l 482 733 l 482 730 l 488 730 l 493 721 q 477 706 489 706 l 469 718 l 479 744 m 244 727 q 255 718 255 723 l 227 711 l 225 711 l 225 716 q 244 727 231 716 m 461 714 l 463 714 l 474 703 l 472 700 l 472 697 l 474 695 l 477 695 l 458 670 q 447 689 451 670 l 452 695 l 447 695 l 447 697 l 461 714 m 219 711 l 219 708 l 214 703 l 211 703 l 219 711 m 463 695 l 463 692 l 469 692 l 469 695 l 463 695 m 238 657 l 241 649 l 244 649 q 252 657 244 657 l 255 665 l 252 665 q 238 657 238 661 m -3 659 l 2 659 l 2 657 l -3 657 l -3 659 m 246 649 l 246 643 l 249 643 l 249 649 l 246 649 m 439 611 l 444 611 l 444 608 l 439 602 l 434 602 l 434 605 l 439 611 m -66 569 l -60 569 l -60 567 l -66 567 l -66 569 m -6 556 l -1 556 l -1 551 l -6 551 l -6 556 m -14 534 l -9 534 l -9 529 l -14 529 l -14 534 m -30 529 l -25 529 l -25 523 l -30 529 m -9 529 l -6 529 l 0 523 l 0 521 l -3 521 l -9 526 l -9 529 m -30 483 l -25 483 l -25 480 l -30 480 l -30 483 m 162 480 l 162 478 l 168 478 l 168 480 l 162 480 m 184 478 l 184 472 l 192 472 l 192 480 l 184 478 m 331 450 l 336 450 l 336 448 l 331 448 l 331 450 m 436 388 l 436 383 l 442 383 l 442 388 l 436 388 "},"7":{"x_min":0,"x_max":776.03125,"ha":676,"o":"m 255 1283 l 260 1283 l 260 1281 l 255 1281 l 255 1283 m 375 1221 l 380 1221 l 380 1215 l 375 1215 l 375 1221 m 288 1218 l 293 1218 l 293 1216 l 288 1216 l 288 1218 m 437 1216 l 439 1216 l 439 1213 l 429 1202 l 429 1207 l 437 1216 m 467 1216 l 469 1213 l 469 1210 l 467 1207 l 464 1207 l 461 1210 l 461 1213 l 464 1216 l 467 1216 m 583 1213 l 586 1210 l 586 1207 l 583 1205 l 580 1205 l 578 1207 l 578 1210 l 580 1213 l 583 1213 m 369 1207 l 374 1207 l 374 1202 l 369 1202 l 369 1207 m 618 1205 l 624 1205 l 629 1199 l 629 1193 l 621 1185 l 613 1185 l 608 1191 q 618 1205 618 1191 m 648 1205 l 651 1205 l 651 1202 l 645 1196 l 643 1196 l 643 1199 l 648 1205 m 434 1199 l 439 1199 l 439 1193 l 434 1199 m 537 1196 l 540 1193 l 540 1189 l 532 1189 l 532 1191 l 537 1196 m 559 1196 l 564 1196 l 564 1191 l 559 1191 l 559 1196 m 269 1189 l 274 1189 l 269 1182 l 269 1189 m 399 1182 l 407 1182 l 407 1175 l 404 1175 l 399 1180 l 399 1182 m 415 1175 l 420 1175 l 420 1172 l 418 1169 l 420 1156 l 420 1142 l 412 1134 l 409 1134 l 404 1140 l 407 1153 l 404 1169 l 407 1172 l 409 1172 l 412 1169 l 415 1169 l 415 1175 m 496 1172 l 499 1169 l 499 1167 q 477 1148 488 1163 l 461 1137 l 456 1145 l 459 1148 l 461 1148 l 464 1145 l 467 1145 q 496 1172 483 1172 m 512 1172 l 515 1172 l 515 1169 l 505 1159 l 505 1161 l 512 1172 m 651 1172 l 656 1172 l 656 1169 l 651 1169 l 651 1172 m 567 1170 l 569 1170 l 575 1164 l 575 1156 l 571 1156 l 567 1167 l 567 1170 m 608 1169 l 613 1164 l 613 1161 l 610 1161 l 602 1164 l 608 1169 m 629 1167 l 632 1164 l 632 1161 l 629 1159 l 626 1159 l 624 1161 l 624 1164 l 626 1167 l 629 1167 m 654 1167 l 659 1167 l 659 1161 l 654 1167 m 459 1161 l 461 1161 l 461 1159 l 453 1150 l 453 1156 l 459 1161 m 540 1161 l 548 1161 l 548 1159 l 543 1150 l 543 1148 l 548 1142 l 551 1142 q 556 1150 551 1150 l 559 1150 l 559 1148 l 545 1134 q 535 1142 545 1142 l 535 1148 l 540 1161 m 654 1159 l 659 1153 l 651 1148 l 643 1156 l 645 1159 l 654 1159 m 702 1159 l 705 1156 l 702 1140 q 694 1153 696 1140 l 692 1153 l 692 1142 l 689 1142 l 686 1145 l 684 1145 q 702 1159 688 1159 m 261 1156 l 266 1156 l 266 1150 l 261 1150 l 261 1156 m 510 1156 l 515 1156 l 515 1153 l 510 1153 l 510 1156 m 599 1156 l 605 1156 l 605 1150 l 599 1156 m 613 1153 l 616 1150 l 616 1145 l 608 1145 l 608 1148 l 613 1153 m 285 1150 l 287 1150 q 296 1132 292 1150 l 293 1129 l 288 1129 l 288 1137 l 285 1150 m 583 1150 l 586 1148 l 588 1148 l 586 1137 l 580 1137 l 583 1150 m 635 1150 l 640 1150 l 640 1148 l 635 1148 l 635 1150 m 640 1148 l 645 1148 l 651 1142 q 643 1132 647 1132 l 635 1132 l 629 1137 l 632 1139 l 635 1139 l 637 1137 l 640 1137 l 640 1148 m 668 1148 l 670 1148 l 673 1137 l 668 1137 l 668 1148 m 732 1148 l 738 1142 l 730 1134 l 727 1137 l 727 1142 l 732 1148 m 345 1145 l 350 1145 l 350 1142 l 345 1142 l 345 1145 m 488 1142 l 493 1142 l 493 1137 l 488 1137 l 488 1142 m 331 1139 l 336 1139 l 336 1137 l 331 1137 l 331 1139 m 475 1140 l 483 1140 l 483 1137 l 477 1132 l 475 1134 l 475 1140 m 554 1140 l 562 1140 l 562 1137 l 559 1129 l 575 1140 l 578 1140 l 578 1134 l 571 1126 l 571 1121 l 602 1121 l 626 1123 l 643 1121 l 643 1094 l 645 1096 l 648 1096 l 653 1091 q 643 1086 653 1086 l 643 1069 l 645 1066 l 643 1064 l 643 1028 l 694 1075 l 697 1075 l 697 1069 q 678 1058 697 1065 q 643 1020 675 1048 l 643 1017 l 645 1007 q 480 621 640 984 l 477 613 l 475 613 q 453 627 459 613 l 453 629 q 616 1007 596 952 l 616 1088 l 610 1094 l 450 1094 l 450 1096 q 496 1132 453 1110 l 496 1129 l 493 1121 l 510 1121 l 507 1123 l 507 1129 l 515 1129 l 515 1121 l 523 1121 l 526 1123 l 529 1121 l 537 1121 l 540 1123 l 543 1121 l 548 1121 l 554 1126 l 554 1140 m 722 1140 l 727 1134 l 719 1132 l 716 1134 l 716 1137 l 719 1140 l 722 1140 m 767 1140 l 767 1134 l 762 1134 l 767 1140 m 458 1137 l 461 1137 l 461 1131 l 458 1131 l 458 1137 m 743 1137 l 748 1132 l 740 1121 l 732 1121 l 727 1126 l 727 1129 l 732 1129 l 735 1126 l 738 1126 q 743 1137 738 1137 m 377 1134 l 382 1134 l 382 1131 l 377 1131 l 377 1134 m 656 1132 l 659 1129 l 659 1124 l 651 1124 l 651 1126 l 656 1132 m 420 1129 l 429 1129 l 429 1126 l 426 1123 l 426 1121 l 429 1121 l 432 1123 l 434 1121 l 437 1121 l 439 1123 l 442 1121 l 450 1121 q 456 1128 450 1128 l 456 1126 l 453 1123 l 453 1121 l 458 1121 l 458 1118 q 437 1080 445 1104 l 434 1080 q 418 1098 434 1087 l 423 1104 l 415 1107 l 415 1102 l 412 1102 l 415 1098 l 415 1096 l 412 1094 l 412 1091 l 409 1094 l 364 1094 l 358 1113 l 350 1107 l 347 1107 l 347 1113 l 345 1113 l 345 1104 l 347 1102 l 350 1102 l 350 1104 l 358 1102 l 358 1094 l 350 1091 l 331 1096 l 331 1091 l 328 1091 l 320 1094 l 320 1098 l 326 1098 l 326 1104 l 320 1115 q 312 1094 315 1115 l 293 1091 l 290 1094 l 27 1094 l 27 988 l 132 988 q 138 971 138 988 l 143 971 l 143 966 l 132 961 l 5 961 l 0 966 l 0 1115 l 5 1121 l 285 1121 l 288 1123 l 290 1123 l 293 1121 l 296 1123 l 301 1110 l 315 1120 l 328 1120 l 328 1110 l 350 1121 l 358 1115 l 375 1120 q 380 1113 380 1120 l 382 1113 q 390 1123 383 1123 l 409 1118 l 423 1121 l 420 1123 l 420 1129 m 602 1128 l 608 1128 l 608 1126 l 602 1126 l 602 1128 m 678 1129 l 684 1129 l 684 1126 l 678 1121 l 678 1129 m 640 1126 l 643 1126 l 651 1123 l 651 1118 l 648 1118 l 640 1126 m 415 1115 l 415 1110 l 418 1110 l 418 1115 l 415 1115 m 401 1110 l 404 1096 l 410 1102 l 410 1113 l 401 1110 m 678 1112 l 681 1112 l 681 1107 l 678 1107 l 678 1112 m 730 1112 l 735 1112 l 735 1107 l 730 1107 l 730 1112 m 686 1104 l 689 1104 l 694 1098 l 692 1096 l 689 1096 l 686 1098 l 686 1104 m 765 1091 l 776 1091 l 770 1086 l 765 1086 l 765 1091 m 659 1086 l 661 1086 l 661 1077 l 654 1077 l 654 1080 l 659 1086 m 684 1086 l 686 1086 l 686 1083 q 675 1075 686 1075 l 678 1072 l 678 1064 l 670 1064 l 665 1069 l 684 1086 m 364 1074 l 372 1074 l 372 1072 l 364 1072 l 364 1074 m 705 1064 l 710 1058 l 710 1053 l 705 1053 l 699 1058 l 705 1064 m 409 1061 l 418 1061 l 418 1058 l 415 1049 l 417 1049 q 426 1058 426 1049 l 429 1061 l 453 1061 q 459 1053 459 1061 l 456 1050 l 456 1047 l 459 1037 l 456 1037 q 450 1047 450 1037 l 442 1050 q 420 1042 420 1046 l 418 1045 l 412 1045 l 409 1042 l 407 1042 l 407 1045 l 380 1039 q 409 1056 380 1045 l 409 1061 m 339 1056 l 345 1056 l 345 1053 q 328 1037 338 1039 l 328 1042 l 326 1042 l 323 1039 l 320 1042 l 317 1042 l 315 1039 q 296 1047 296 1042 l 298 1050 l 301 1050 l 331 1047 l 339 1056 m 711 1053 l 716 1053 l 722 1047 l 722 1045 l 716 1039 l 711 1045 l 711 1053 m 197 1050 l 206 1047 l 206 1039 l 197 1039 l 192 1045 l 197 1050 m 432 1042 l 437 1042 l 437 1034 l 432 1034 l 432 1042 m 227 1037 l 233 1037 l 227 1031 l 227 1037 m 409 1037 l 412 1037 l 412 1031 l 409 1031 l 409 1037 m 461 1034 l 467 1034 l 467 1031 l 461 1031 l 461 1034 m 336 1031 l 336 1025 l 323 1022 l 320 1025 l 320 1028 l 336 1031 m 315 1028 l 317 1025 l 317 1022 q 271 1009 283 1009 l 269 1009 q 315 1028 273 1016 m 415 1012 l 420 1012 l 420 1006 l 415 1006 l 415 1012 m 228 1007 l 228 1004 l 230 1007 l 246 1007 l 246 1001 l 225 993 l 225 999 l 222 999 l 220 988 l 222 988 l 225 990 q 239 982 239 987 l 239 980 q 225 969 230 980 l 230 963 l 220 963 l 220 966 l 222 969 l 222 971 q 209 985 209 971 q 203 977 203 985 l 197 977 l 195 990 q 228 1007 195 995 m 384 1007 l 399 1004 l 393 999 l 377 999 l 377 1001 q 384 1007 377 1007 m 277 1004 l 282 1004 l 277 999 l 277 1004 m 364 1001 l 369 1001 l 364 996 l 358 996 l 364 1001 m 456 999 l 456 993 l 423 988 l 423 985 l 439 982 l 442 985 l 448 977 l 445 974 l 448 971 q 439 966 439 971 l 432 969 l 432 974 l 437 974 l 437 977 l 426 977 l 423 974 l 420 974 l 418 988 l 412 988 l 412 982 l 409 982 l 407 985 l 404 985 l 399 979 l 396 982 l 393 982 q 380 974 393 977 l 372 977 q 399 990 372 981 l 399 988 q 456 999 404 993 m 654 999 l 656 999 l 656 996 l 651 990 l 648 990 l 648 993 l 654 999 m 309 996 l 323 982 l 326 985 l 326 988 l 320 993 l 323 996 l 326 996 l 328 988 l 336 988 l 345 993 l 345 990 l 342 988 l 344 985 l 344 982 q 336 977 344 977 l 336 974 l 342 969 q 355 977 342 973 l 364 974 l 369 979 l 375 961 l 364 961 l 364 963 l 369 971 l 366 971 l 347 961 l 345 963 l 342 963 l 296 944 l 279 939 l 276 939 q 271 947 271 939 l 266 947 l 243 933 l 239 933 l 236 936 l 233 936 q 220 928 233 931 l 217 931 l 217 936 q 293 958 229 946 l 312 971 l 285 985 l 279 974 q 290 966 290 970 l 285 961 l 263 961 l 243 979 l 252 988 l 290 988 l 293 985 q 301 993 301 985 l 304 996 l 309 996 m 681 993 l 686 993 l 686 990 l 681 990 l 681 993 m 306 985 l 306 980 l 309 980 l 315 985 l 306 985 m 456 988 l 490 988 l 461 912 l 456 912 l 459 923 l 453 931 q 434 917 434 928 l 429 917 l 429 920 q 448 942 437 935 l 448 939 l 456 942 l 456 947 l 453 961 l 450 958 l 445 958 l 439 963 q 456 971 456 963 l 456 974 l 450 974 l 450 982 l 453 979 l 459 979 l 459 982 l 456 985 l 456 988 m 713 982 l 719 982 l 719 979 l 713 979 l 713 982 m 174 979 l 179 971 l 179 969 l 174 963 l 160 966 l 154 961 l 151 963 l 149 963 q 174 979 149 979 m 735 974 l 727 966 l 724 966 l 724 971 l 735 974 m 401 971 l 404 971 l 404 961 q 344 939 344 945 q 420 960 420 953 l 420 966 l 418 966 l 415 963 l 412 963 l 410 966 l 410 969 l 412 971 l 420 971 l 437 958 l 350 928 l 347 914 l 342 914 l 342 923 l 339 920 l 334 920 l 331 923 l 328 923 l 323 917 l 315 917 l 315 925 l 317 928 l 317 931 l 312 931 l 309 928 l 306 928 l 304 936 l 306 944 l 315 944 l 317 942 l 320 942 q 380 958 320 950 l 380 963 l 384 963 l 387 961 q 401 971 401 963 m 197 969 l 200 969 l 206 963 l 203 961 l 192 963 l 197 969 m 401 936 l 401 928 l 396 928 l 396 931 l 401 936 m 429 914 l 432 912 l 445 914 l 448 914 q 456 909 448 909 l 456 903 l 445 893 l 442 893 l 429 912 l 429 914 m 442 901 l 448 901 l 448 906 l 442 901 m 437 895 l 439 895 l 439 890 l 437 890 l 437 895 m 418 849 l 420 849 l 420 846 l 415 841 l 418 838 l 418 833 l 415 833 l 407 835 l 407 838 l 418 849 m 401 835 l 407 827 l 407 822 q 396 817 407 817 l 396 811 l 401 805 l 409 825 l 418 825 q 339 638 415 806 l 334 638 l 334 635 l 336 632 l 336 629 l 266 467 l 260 467 q 255 475 255 467 l 252 478 l 248 478 l 248 437 l 248 434 l 243 434 q 236 450 243 450 l 236 448 l 239 417 q 76 35 239 404 l 73 27 l 189 27 q 217 84 209 80 l 230 84 l 233 97 l 233 102 l 228 108 l 257 187 l 263 187 l 263 168 l 269 168 l 269 173 q 288 252 273 229 l 301 244 l 304 244 l 304 246 q 290 254 304 252 q 309 296 303 296 l 315 290 l 323 293 l 323 296 q 312 301 312 296 l 312 304 q 372 437 362 429 l 375 440 l 377 440 l 374 442 l 374 445 q 437 583 420 563 l 439 596 l 439 602 l 442 602 q 448 586 448 602 l 450 586 l 450 599 l 445 613 l 453 618 l 472 602 q 450 569 464 584 l 453 558 l 426 505 l 423 505 l 423 496 l 382 401 l 380 404 l 374 404 l 374 399 l 380 399 q 328 280 375 377 q 320 273 328 273 l 323 260 l 315 257 l 317 254 l 317 252 l 312 239 l 309 241 l 304 241 l 304 236 l 306 239 l 309 239 l 309 236 l 304 231 l 301 231 l 293 236 l 288 236 l 288 231 q 296 222 296 231 l 304 220 l 296 209 q 290 217 290 209 l 285 217 l 285 211 l 293 201 l 293 193 l 290 193 l 282 195 l 282 193 l 288 184 l 211 16 l 206 16 l 209 2 l 206 0 l 33 0 l 33 2 l 187 358 l 187 360 l 192 360 l 197 341 q 209 379 203 341 l 203 396 q 230 445 224 444 l 228 448 l 228 450 l 233 456 l 241 453 l 241 478 q 246 491 241 491 l 255 488 l 255 491 l 257 499 l 255 510 q 306 602 279 582 q 296 607 296 602 q 342 702 336 701 l 345 700 l 350 716 l 347 719 l 345 719 q 401 835 385 817 m 393 803 l 393 798 l 396 798 l 396 803 l 393 803 m 347 676 l 347 670 l 350 670 l 350 676 l 347 676 m 467 632 l 467 627 l 472 627 l 472 632 l 467 632 m 434 572 l 434 567 l 439 567 l 439 572 l 434 572 m 399 480 l 399 475 l 401 475 l 401 480 l 399 480 m 171 301 l 171 296 l 179 298 l 179 301 l 171 301 m 323 290 l 323 285 l 326 285 l 326 290 l 323 290 m 160 280 l 162 271 l 165 271 l 174 280 l 174 282 l 165 282 l 162 280 l 160 280 m 309 282 l 309 277 l 317 277 l 317 282 l 309 282 m 304 266 l 304 263 l 312 263 l 312 266 l 304 266 m 220 78 l 220 76 l 228 76 l 228 78 l 220 78 "},"¨":{"x_min":0,"x_max":0,"ha":463}}}
